<?xml version="1.0" standalone="no"?>
<!DOCTYPE svg PUBLIC "-//W3C//DTD SVG 1.1//EN" "http://www.w3.org/Graphics/SVG/1.1/DTD/svg11.dtd" >
<svg xmlns="http://www.w3.org/2000/svg">
<metadata>
This is a custom SVG webfont generated by Font Squirrel.
Copyright   : Copyright  2007 Jean Boyault All rights reserved
Designer    : Jean Boyault
</metadata>
<defs>
<font id="JBCursiveRegular" horiz-adv-x="1160" >
<font-face units-per-em="2048" ascent="1638" descent="-410" />
<missing-glyph horiz-adv-x="1116" />
<glyph unicode=" "  horiz-adv-x="1116" />
<glyph unicode="&#x09;" horiz-adv-x="1116" />
<glyph unicode="&#xa0;" horiz-adv-x="1116" />
<glyph unicode="!" horiz-adv-x="559" d="M115 56l56 143l155 -72v-98l-69 -54l-99 13zM184 618q58 303 59 618q0 224 -30 454l72 125l70 -43l29 -281l-29 -771l-70 -185h-57z" />
<glyph unicode="&#x22;" horiz-adv-x="903" d="M180 2059l29 197l113 -70l14 -453l-14 -84l-113 55zM659 1860v326l44 41l86 -41l12 -254l-28 -242l-85 29z" />
<glyph unicode="#" horiz-adv-x="1548" d="M158 579l33 131l198 -22l70 421l-202 20l41 112l200 -18l88 325l127 -16l-63 -309l306 2l69 314l140 -11l-65 -316h203l-28 -125l-175 5q-59 -149 -99 -457l203 -7l-27 -142l-223 8l-110 -341l-127 11q83 280 83 344l-289 44l-81 -384l-147 25l73 370zM530 677h1 q15 0 163 -11l142 -22l41 238l51 203h-319z" />
<glyph unicode="$" horiz-adv-x="1149" d="M197 122l56 98l243 -49l39 472q-160 56 -269 240q-8 49 -8 94q0 309 376 455l4 156q14 3 32 3q14 0 30 -2q38 -4 48 -4q-16 -70 -16 -99q0 -9 2 -14q6 -22 9 -29l17 -35q81 -16 95 -37q16 -16 49 -33q44 -64 44 -82q0 -5 -3 -7l-17 -8l-24 -9q-117 77 -136 77q-2 0 -3 -1 q-12 -7 -20 -10l-24 -12l-45 -487l184 -156l113 -198q0 -17 1 -34q0 -231 -54 -289q-51 -55 -248 -55q-26 0 -55 1l-16 -97l-111 4l-11 74zM393 1051q18 -246 143 -246q7 0 13 1v147l33 287l-75 -19q-109 -62 -114 -170zM613 147h49l100 32l69 98q11 52 11 96 q0 179 -184 220z" />
<glyph unicode="%" horiz-adv-x="1593" d="M197 957q5 113 69 197q109 89 256 89q61 0 128 -16l98 -143q2 -21 3 -41q0 -207 -257 -340l-170 29q-98 78 -127 225zM350 76l144 260l620 790l98 -54l-733 -1032zM352 999q16 -101 85 -140q10 -1 19 -1q133 0 137 128q-44 128 -106 128q-59 0 -135 -115zM1030 106 q-8 26 -8 55q0 112 119 270q66 17 119 17q143 0 180 -126q6 -36 6 -68q0 -184 -190 -254q-26 -3 -49 -3q-144 0 -177 109zM1154 266q-6 -35 -6 -61q0 -80 55 -80q5 0 9 1q165 48 165 115q0 29 -31 62l-119 48z" />
<glyph unicode="&#x26;" horiz-adv-x="1510" d="M201 217q-14 58 -14 110q0 131 89 219q125 123 304 182q-213 213 -212 416q0 149 114 292l112 55q67 15 124 20q24 2 46 2q300 0 300 -344q0 -54 -7 -115l-53 -128l-218 -232l118 -163l242 296l88 -60q-31 -53 -121 -152t-93 -105t-66 -94l-1 -105q162 -313 233 -367 q-28 -45 -113 -45q-19 0 -42 3l-154 314q-41 -130 -71 -160q-76 -76 -236 -76q-16 0 -32 1l-85 4q-199 9 -252 232zM330 318q-1 -8 0 -16q0 -85 80 -168q83 -25 149 -25q203 0 234 239l-57 171l-83 98l-140 -52q-167 -64 -183 -247zM664 1360q-186 -35 -186 -169 q0 -141 205 -391l165 154l44 127q20 78 20 129q0 158 -163 159q-38 0 -85 -9z" />
<glyph unicode="'" horiz-adv-x="696" d="M359 1217q46 106 104 443q96 -4 97 -49q-38 -153 -61 -220t-78 -191z" />
<glyph unicode="(" horiz-adv-x="1346" d="M131 670q-16 141 -16 277q0 726 454 1317q70 -11 70 -87v-12q-375 -645 -375 -1348q0 -321 79 -655l226 -690q78 -67 78 -134q0 -46 -37 -92l-127 70q-348 625 -352 1354z" />
<glyph unicode=")" horiz-adv-x="1051" d="M164 -705q295 661 334 1044q8 79 9 177q0 370 -119 998l-185 664q-27 12 -27 28q0 23 53 54h50q374 -1034 375 -1340q-6 -266 -6 -410q0 -60 1 -100q0 -12 1 -24q0 -127 -32 -310q-52 -198 -91.5 -290.5t-107.5 -233.5l-154 -297q-25 -12 -45 -12q-40 -1 -56 52z" />
<glyph unicode="*" horiz-adv-x="1116" d="M66 986l43 71l99 -26l380 -311l295 352l86 -41l14 -127l-296 -326l340 -338l-17 -86l-84 -12l-325 336h-82l-369 -352l-69 28v86l365 394z" />
<glyph unicode="+" horiz-adv-x="1200" d="M44 681l464 3v359q30 32 61.5 32t65.5 -32l7 -359l291 -5q56 -34 56 -76q0 -26 -22 -54l-329 -4v-348q-30 -73 -64 -73q-30 0 -63 59l1 296l-12 75l-430 -2q-55 33 -56 71q1 28 30 58z" />
<glyph unicode="," horiz-adv-x="592" d="M101 -475l145 267q44 82 44 190q0 85 -28 185q99 47 125 47q3 0 5 -1q40 -15 80 -87q11 -37 12 -73q0 -75 -53 -139l-122 -249l-95 -135q-47 -34 -75 -34q-27 0 -38 29z" />
<glyph unicode="-" horiz-adv-x="1133" d="M97 613l53 96l836 -28l41 -41l-41 -98l-848 15z" />
<glyph unicode="." horiz-adv-x="854" d="M388 -30q-22 37 0 100l52 47q85 -7 92 -60q12 -79 -65 -120z" />
<glyph unicode="/" horiz-adv-x="1510" d="M229 203l44 156l959 1032l127 -28v-86l-1045 -1086z" />
<glyph unicode="0" d="M75 774q-5 62 -5 121q0 455 316 746l187 82h20q401 0 492 -501l39 -210q15 -139 15 -259q0 -614 -398 -731q-93 -27 -173 -28q-348 0 -455 514zM213 984q-11 -51 -11 -116q0 -175 81 -449l50 -106q137 -167 287 -167q41 0 83 12q311 100 311 558q0 28 -1 58 q-27 654 -300 795q-55 30 -107 30q-137 0 -255 -210q-79 -141 -138 -405z" />
<glyph unicode="1" d="M218 1059l420 639l127 -10l-15 -1665l-43 -39l-106 47q27 435 26 835q0 279 -13 540l-259 -407z" />
<glyph unicode="2" d="M82 217l45 86q60 55 138 55q102 0 235 -93q370 324 369 773q0 112 -22 232q-35 180 -164 224q-63 21 -121 21q-62 0 -118 -24q-115 -48 -149 -227l-1 -101q47 -120 167 -119q31 0 66 7l-45 -84q-10 -18 -53 -18.5t-118 18.5q-105 26 -140 170q-13 53 -13 104 q0 122 75 227q106 150 220 169q61 10 115 10q352 0 414 -410q10 -69 10 -144q0 -228 -96 -513q-44 -130 -276 -389q45 -77 118 -77q44 0 98 28q172 87 215 184l71 -43l-54 -129q-124 -108 -253 -144q-62 -18 -109 -17q-49 0 -81 19l-101 90q-127 -87 -242 -87q-43 0 -85 12 q-118 35 -118 149q0 20 3 41zM213 142l55 -22q89 0 161 68l-33 24q-46 40 -104 40q-31 0 -65 -12q-45 -15 -46 -42q0 -24 32 -56z" />
<glyph unicode="3" d="M180 1387q26 284 279 305q421 35 449 -364q5 -71 -14 -195q-25 -165 -196 -267l86 -54q167 -126 185 -312q37 -345 -214 -469q-216 -105 -392 -24q-90 41 -147 195q-25 66 22 179h83q-19 -14 1 -107q26 -120 99 -140q193 -53 303 41q116 97 112 233q-5 303 -317 387 l-112 5l52 142q176 10 258 109q70 85 48 276q-27 238 -263 227q-156 -8 -202 -164z" />
<glyph unicode="4" d="M199 381q8 81 54 228q180 598 221 1065l136 19l-5 -93q-23 -386 -249 -1095l306 11l36 251l125 -5l-27 -240l229 5l-9 -147l-223 1l-16 -337l5 -52l-150 -6l30 395l-333 -12z" />
<glyph unicode="5" d="M131 171v90l112 1l16 -90q107 -107 222 -107q124 0 255 126q165 158 164 357q0 22 -2 45q-25 268 -332 268q-34 0 -72 -4l-139 -31l-82 -72q-31 35 -87 43l112 713l-25 131q18 56 90 63q130 -11 290 -11q139 0 300 8q27 1 41 -37q8 -25 8 -44q0 -16 -5 -29 q-16 -34 -52 -35l-443 7q-41 0 -51 -49q-89 -430 -112 -558l133 46h15q525 0 540 -404q1 -21 1 -42q0 -349 -302 -544q-156 -73 -276 -73q-215 0 -319 232z" />
<glyph unicode="6" d="M213 597q-11 130 -11 246q0 707 415 875q103 42 202 41q102 0 200 -44q120 -89 147 -193q5 -20 5 -33.5t-5 -19.5q-43 -47 -80 -47q-8 0 -16 2q-19 5 -35 59q-29 83 -154 101q-44 6 -85 6q-435 0 -435 -740q0 -48 2 -99q167 120 316 120q184 0 340 -183l49 -85 q46 -117 46 -217q0 -109 -55 -198q-130 -213 -322 -221q-15 -1 -30 0q-440 0 -494 630zM453 259q105 -161 229 -160q88 0 185 80q107 90 107 206q0 45 -16 93q-74 228 -273 228q-57 0 -125 -19q-192 -53 -193 -196q0 -96 86 -232z" />
<glyph unicode="7" d="M224 1223v33q71 259 71 267q0 36 -16 100.5t-17 88.5q54 32 93 32q52 0 76 -56q126 -47 242 -47q74 0 143 19l92 88l127 -22l-290 -1013l208 -60l-16 -73l-36 -61l-199 68l-190 -595l-138 24q116 406 199 609l-229 66l44 128l213 -60l218 726q-85 -5 -152 -5 q-172 0 -236 33l-71 -301l-87 -16z" />
<glyph unicode="8" d="M131 328q-1 20 -1 40q0 231 135 323l202 161q-218 213 -218 433q0 132 79 267q29 67 226 133q92 29 169 29q190 0 296 -175q54 -89 53 -178q0 -250 -422 -504q304 -239 325 -359q18 -83 18 -152q0 -281 -286 -357q-106 -21 -193 -20q-363 0 -383 359zM284 332 q19 -250 221 -250q84 0 200 44q142 49 147 215q0 197 -281 396q-288 -138 -288 -373q0 -16 1 -32zM426 1117l134 -142l98 71q232 142 232 293q0 43 -19 86q-45 131 -191 132q-30 0 -64 -6q-72 -10 -161 -111q-68 -76 -69 -170q0 -71 40 -153z" />
<glyph unicode="9" d="M98 168l70 56l209 -154q18 -1 56 -10q50 -11 94 -11q293 0 293 509q0 107 -13 235q-180 -70 -348 -110q-9 -1 -18 -1q-72 0 -132 41q-68 46 -71 111q-3 51 -4 99q0 555 420 734q51 22 103 22q91 0 188 -64q37 -25 37 -170v-10q-7 -696 -49 -1166q-25 -264 -321 -342 q-72 -19 -138 -19q-81 0 -152 29q-145 57 -224 221zM380 1158q-10 -52 -10 -106q0 -79 22 -163q14 -56 56 -56q5 0 11 1q228 41 333 127q34 27 42 180q5 92 5 162q0 132 -17 184q-17 47 -74 47q-27 0 -63 -10q-112 -33 -196 -135t-109 -231z" />
<glyph unicode=":" horiz-adv-x="854" d="M416 97q-11 18 -10.5 43t10.5 57l52 47q85 -7 93 -60q2 -11 2 -21q0 -64 -67 -99zM421 679q-11 18 -11 43t11 56l51 48q85 -7 93 -60q2 -11 2 -21q0 -64 -67 -99z" />
<glyph unicode=";" horiz-adv-x="1040" d="M478 -537l134 268q41 82 40 189q0 85 -25 185q92 47 115 47h4q37 -15 75 -88q10 -37 10 -72q0 -75 -48 -139l-113 -249l-87 -135q-43 -34 -70 -34q-25 -1 -35 28zM563 468q-11 18 -11 43.5t11 56.5l51 48q85 -7 93 -60q2 -11 2 -21q0 -64 -67 -99z" />
<glyph unicode="&#x3c;" horiz-adv-x="1626" d="M175 694l65 109l889 580l115 -29v-98l-705 -444l-45 -72q459 -246 778 -586l-57 -113l-368 268l-403 258q-154 55 -269 127z" />
<glyph unicode="=" horiz-adv-x="1609" d="M396 298l41 98l677 -12q82 -22 163.5 -22t162.5 22q1 -5 1 -11q0 -70 -102 -145l-902 26zM479 819l44 99l790 -14l55 -56l-55 -112q-267 55 -529 55q-131 0 -261 -14z" />
<glyph unicode="&#x3e;" horiz-adv-x="916" d="M0 113v99q289 184 717 361l-194 302q-239 247 -438 563l86 113l79 -48q247 -464 668 -897l-14 -140q-489 -123 -785 -372z" />
<glyph unicode="?" horiz-adv-x="1313" d="M224 1156q-9 49 -9 94q0 108 54 190q97 146 242 156q44 3 82 3q148 0 200 -47q152 -134 153 -290q0 -94 -56 -197l-185 -279q-75 -112 -93 -278.5t-32 -181.5q-11 -1 -21 0q-80 0 -80 49q0 10 3 21q40 397 283 680q70 81 69 163q0 79 -64 159q-64 81 -173 82 q-39 0 -84 -11q-173 -41 -191 -218q15 -115 103 -163l-29 -57q-13 -5 -27 -5q-41 0 -92 39zM463 25q-11 18 -11 43t11 56l52 48q85 -7 93 -60q2 -11 1 -21q0 -64 -67 -99z" />
<glyph unicode="@" horiz-adv-x="2052" d="M347 380q-1 19 -1 38q0 410 394 666q126 82 300 87q11 0 23 1q426 0 592 -406q58 -142 58 -270q0 -313 -349 -541q-29 -5 -55 -5q-119 0 -188 106q-7 -58 -99 -58q-45 0 -110 14q-253 55 -253 404v18q3 138 93 220q84 75 184 75q42 0 87 -14l13 96l114 -8 q-15 -166 -15 -253q0 -44 4 -68q31 -225 110 -365q32 -56 75 -55q35 0 77 36q167 146 199 331q10 57 10 108q0 268 -264 421q-145 84 -287 84q-202 0 -398 -168q-198 -183 -198 -475q0 -179 75 -399q184 -327 596 -327q68 0 143 9q190 23 282 233l70 -28 q-145 -304 -466 -325q-38 -2 -74 -3q-569 0 -708 564zM816 199l58 -52q64 -41 116 -42h4q81 0 81 89q0 31 -10 72l-42 180l-18 132q-32 43 -72 43q-50 0 -114 -67q-58 -61 -59 -150q0 -89 56 -205z" />
<glyph unicode="A" horiz-adv-x="1911" d="M-37 -27l37 49q201 7 352 101q306 191 471 992q-33 -37 -50 -47q-48 -31 -84 -32q-105 0 -113 267q40 120 93 158q51 37 195 50l78 736q75 296 175 297q57 0 123 -99q76 -116 76 -235q0 -12 -1 -24l-63 -950l98 -32q173 26 283 108l-86 -135q-91 -63 -318 -63v-108 q0 -407 93 -797q35 -146 155 -146q17 0 36 3q7 -1 13 -1q140 0 227 252q49 137 49 283q0 71 -12 144q-44 61 -81 61q-62 0 -105 -167l-56 13q10 63 28 116q46 144 165 145q40 0 89 -16q83 -49 83 -174v-8q-16 -707 -378 -751q-37 -4 -70 -4q-184 0 -233 137 q-115 318 -116 727q0 163 19 340q-56 48 -106 135q-27 49 -79 107q-8 -184 -30 -332q-78 -530 -276 -825q-132 -199 -363 -273q-41 -12 -128 -12q-77 0 -190 10zM658 1266q15 -122 61 -123q6 0 13 3q42 12 83 58q16 128 23 205q-164 -11 -180 -143zM967 1511l65 -64 l115 -146l8 81q52 511 52 872q0 16 -27 75q-21 47 -43 47q-27 0 -56 -69q-41 -98 -42 -166z" />
<glyph unicode="B" horiz-adv-x="2067" d="M16 85l51 106q225 -112 390 -112q193 0 301 154q144 205 144 1030q0 45 -1 91q-4 406 -53 915l121 100q-38 3 -74 2q-361 0 -524 -245q-150 -226 -150 -431q0 -173 107 -331q46 -19 82 -19q108 0 129 169l70 15v-18q0 -281 -180 -282q-71 0 -171 45q-138 63 -162 351 q-3 34 -3 67q0 217 123 420q206 341 479 372q96 10 182 10q746 0 831 -768q4 -35 4 -68q0 -215 -161 -368q451 -122 479 -583q2 -35 2 -68q0 -503 -481 -665q-57 -8 -106 -8q-236 0 -315 172q-7 57 -7 107q0 203 121 283l69 -17l-69 -194q-4 -31 -4 -58q0 -185 171 -185 q76 0 185 37q312 103 312 508q0 95 -17 207q-41 266 -425 359q-185 -191 -324 -191q-76 0 -138 57q2 -47 1 -94q0 -300 -67 -607q-38 -172 -205 -315q-99 -84 -238 -84q-95 0 -208 39zM1019 1200q104 153 285 153q71 0 153 -23q124 198 124 344v9q-7 248 -225 504 q-124 135 -332 156q-8 -255 -8 -412q0 -96 3 -155q4 -74 4 -209q0 -148 -4 -367zM1102 1109q37 -17 73 -17l189 111q-37 7 -72 7q-100 0 -190 -55v-46z" />
<glyph unicode="C" horiz-adv-x="1960" d="M124 2357v94l103 13q4 -296 82 -397q145 -188 346 -251l213 298q224 261 627 363q111 28 195 28t141 -28q177 -86 177 -274q0 -97 -47 -221q-169 -445 -699 -444q-176 0 -391 49l-147 47q-117 -278 -117 -539q0 -334 190 -640q208 -330 482 -331q117 0 245 60 q267 124 267 435q0 17 -1 34q-8 184 -183 200l-29 2q-157 0 -263 -163l-64 -132l-69 89q79 350 393 350q42 0 88 -6q153 -20 212 -185q40 -111 39 -214q0 -250 -235 -453q-130 -109 -267 -123q-82 -8 -152 -8q-186 0 -288 56q-177 98 -333 360q-130 218 -153 524 q-6 83 -5 161q0 346 109 586q-141 42 -310 219q-119 124 -156 441zM796 1754l72 -28q194 -77 374.5 -77t346.5 77q133 61 204.5 185t71.5 305q0 143 -214 143q-46 0 -103 -7q-154 -18 -404 -181q-150 -100 -348 -417z" />
<glyph unicode="D" horiz-adv-x="2267" d="M52 1316q-5 60 -5 118q0 592 537 908q199 117 435 148q124 17 235 17q677 0 909 -612q147 -385 146 -720q0 -556 -404 -974q-218 -225 -499 -225q-228 0 -497 148l-24 -22q-255 -148 -432 -147q-196 0 -297 180q-31 55 -31 106q0 123 181 216q68 35 145 35q47 0 98 -13 q175 -45 278 -104q27 -16 95 -90q57 205 64 951q1 78 0 153q0 455 -21 841l70 56l79 -29l4 -1386v-11q0 -453 -106 -616q233 -125 424 -125q311 0 514 330q220 358 220 750q0 316 -144 655q-226 536 -748 536q-175 0 -384 -61q-717 -209 -717 -822q0 -111 24 -235 q19 -117 109 -117q101 0 291 148l116 114v-114q-124 -206 -436 -243q-18 -2 -34 -2q-66 0 -116 29q-63 38 -79 229zM246 233q71 -179 222 -179q46 0 100 17q76 16 258 130l-188 127q-55 40 -143 40q-55 0 -122 -16q-117 -28 -127 -119z" />
<glyph unicode="E" horiz-adv-x="1616" d="M-66 2228l30 99h77q51 -326 229 -456q229 528 728 606q85 13 158 13q375 0 431 -346q12 -74 11 -140q0 -400 -429 -542q-100 -33 -221 -33q-86 0 -182 17q-167 29 -385 151q-1 -28 -1 -54q0 -289 95 -414q184 108 262 120q80 13 143 13q240 0 240 -180v-23 q-14 -187 -241 -218q-25 -3 -52 -3q-143 0 -348 96q-94 -127 -108 -265q-4 -39 -4 -75q0 -290 264 -397q138 -55 290 -55q94 0 193 20q410 87 445 345q16 40 16 75q0 104 -135 174h-178l15 75q119 30 190 31q51 0 77 -15q151 -86 152 -227q0 -13 -2 -26q-25 -258 -211 -400 q-177 -134 -489 -163q-71 -6 -136 -6q-587 0 -650 524q-5 41 -5 80q0 230 170 407l-82 144q-67 149 -68 327q0 89 17 186q-306 247 -306 525v10zM399 1729v15q194 -138 443 -168q51 -6 100 -7q188 0 335 93q167 105 189 279q7 46 7 87q0 126 -68 192q-155 146 -327 146 q-224 0 -476 -247q-154 -150 -203 -390zM561 1020q85 -48 160 -64q69 -15 123 -15q137 0 172 95l-8 58q-16 51 -94 50q-71 0 -193 -42q-86 -33 -160 -82z" />
<glyph unicode="F" horiz-adv-x="1608" d="M-113 167l16 73q250 -131 481 -131q347 0 650 297q99 97 99 593q0 112 -5 243l-123 -27l-3 107l126 21l-19 713q-590 -105 -713 -374q-78 -170 -78 -293q0 -225 260 -295q29 -8 54 -8q138 0 182 230q13 66 12 129q0 108 -37 206l81 16q71 -201 71 -346q0 -276 -258 -343 q-82 -22 -152 -22q-278 0 -349 351q-14 70 -15 135q0 330 359 569q35 23 237 91.5t352 107.5l-1 157l126 9l11 -148q259 52 420 324l82 -14q-56 -259 -508 -452l18 -703l102 26q-7 48 -6 93q0 144 66 251q21 34 77 34q37 0 89 -15q94 -91 93 -232q0 -53 -13 -112 q-15 -71 -93 -101q-71 -26 -98 -38q-5 -49 -5 -103q0 -160 49 -359l-129 60l-45 384l-93 -18q9 -167 10 -307q0 -376 -67 -561q-132 -221 -594 -354q-91 -26 -213.5 -26t-275.5 26q-114 21 -230 136zM1472 1428h20l81 59q12 25 12 51t-12 54q-21 49 -49 49q-8 0 -17 -4 q-38 -50 -38 -150q0 -28 3 -59z" />
<glyph unicode="G" horiz-adv-x="1938" d="M27 2157q-24 71 -23 155q0 91 27 197h71q10 -526 411 -712l82 -38q187 374 443 551q268 186 575 186q45 0 91 -4q269 -23 269 -296q0 -705 -725 -705q-246 0 -576 82q-220 -460 -221 -790q0 -361 264 -565q115 -89 246 -89q157 0 336 130l149 108l-6 415q55 35 127 65 q2 -151 2 -256v-93q0 -47 -1 -94q0 -212 10 -420q244 287 314 349q21 19 37 19q12 0 21 -11q9 -12 9 -27q0 -33 -42 -82l-333 -389l-21 -1152q-49 -276 -237 -280h-15q-366 0 -366 392q0 133 42 312q46 198 463 721l4 380l-89 -67q-229 -173 -424 -173q-132 0 -249 79 q-401 269 -400 730q0 277 145 624l87 209q-147 59 -295 203q-134 131 -202 336zM759 1708q302 -78 518 -78q541 0 541 490q0 12 -1 25q-6 217 -201 217q-165 0 -466 -156q-179 -92 -391 -498zM1072 -1215q-1 -11 -1 -21q0 -162 185 -225q30 -10 54 -10q123 0 128 248l15 876 q-115 -193 -159 -243q-195 -226 -222 -625zM1630 -25q14 115 281 377l21 29q1 0 1 1q45 38 66 39h2q20 0 20 -25q0 -22 -21 -70q0 -1 -1 -2l-25 -35q-139 -146 -225 -213q-122 -91 -119 -101z" />
<glyph unicode="H" horiz-adv-x="1982" d="M40 1768v60q205 108 259.5 171t89.5 181q-75 16 -91 129q-5 29 -5 53q0 85 57 109q38 17 66 17q97 0 98 -185q0 -10 -1 -20q16 -3 34 -3q114 0 275 134l53 -89q-62 -345 -62 -695q0 -251 32 -505l98 72l15 383l67 -43l2 -275l94 80q-3 70 -3 225q0 248 7 716 q3 209 213 209q289 0 317 -466q1 -15 1 -30q0 -333 -434 -724l29 -562l1 -107q71 141 295 171q17 2 33 2q183 0 236 -286q15 -82 15 -149q0 -283 -268 -311q-38 -4 -72 -4q-317 0 -332 340l-27 629l-4 206l-103 -106l13 -363l-95 30v269l-81 -59l2 -136q3 -89 3 -168 q0 -410 -72 -514q-86 -125 -279 -125q-17 0 -35 1q-221 11 -261 213q-18 93 -18 175q0 177 85 303q83 123 445 314l-12 1129q-52 -30 -128 -35q-13 -1 -24 -1q-56 0 -74 22q-46 -158 -124.5 -237t-329.5 -145zM322 382q19 -259 183 -259q23 0 48 5q176 34 192 170 q11 99 11 224q0 167 -19 380l-53 -24q-363 -163 -363 -461q0 -18 1 -35zM386 2350q-1 -8 -1 -15q0 -38 44 -43q1 46 -22 66zM1214 1828l9 -401q172 173 273 375q45 89 46 217q0 92 -24 205q-42 131 -151 131q-9 2 -18 2q-137 0 -136 -448q0 -39 1 -81zM1267 535l27 -235 q37 -153 169 -152q56 0 128 27q143 55 143 186q0 54 -25 121q-62 172 -202 172q-70 0 -158 -42z" />
<glyph unicode="I" horiz-adv-x="1165" d="M-27 408q0 193 149 266q10 4 217 77h54l15 -71q-278 -110 -278 -284q0 -82 61 -178l131 -92q101 -22 185 -22q399 0 421 491l-28 1420q-81 -28 -159 -27q-60 0 -118 16q-116 -255 -284 -325q-51 -20 -107.5 -20t-118.5 20v84l153 23q176 27 242 246q-202 86 -227 251 q-4 28 -4 53q0 126 97 186q33 6 62 6q220 0 219 -361v-15l164 -6l99 66q3 63 38 147q26 61 26 89q0 11 -4 16l124 14q-37 -102 -37 -305.5t-8 -535.5v-19q0 -22 3 -167t6 -395t3 -526q0 -246 -206 -426q-128 -112 -397 -112q-72 0 -155 8q-217 22 -311 287zM408 2352 q-2 -14 -1 -26q0 -91 76 -143l54 -12q2 24 1 44q0 155 -90 156q-10 0 -21 -2z" />
<glyph unicode="J" horiz-adv-x="1206" d="M0 1604q158 266 225 529q-116 83 -151 251v18q22 71 79 88q14 4 55 -6q125 -95 124 -198q0 -12 -2 -24q33 -74 125 -73q12 0 26 1l284 27q42 242 127 279q10 4 21 4q17 0 37 -10q75 -33 75 -106q0 -40 -23 -93l-80 -123q-12 -142 -13 -439v-1173q0 -269 -4 -507l321 352 q40 11 44 -16q2 -4 2 -11q0 -25 -31 -82l-333 -386q2 -37 1 -133q0 -159 -4 -481q-7 -515 -13 -559q-44 -240 -205 -285q-77 -22 -139 -22q-213 0 -245 259q-12 98 -12 192q0 334 151 615q79 149 164 243l179 199l12 2054l-23 93q-86 -26 -186 -26q-22 0 -45 1 q-120 5 -200 19q-48 -169 -116 -303q-60 -116 -129 -179l-16 -15zM169 2355q1 -18 7 -46q12 -61 88 -78q-4 82 -26 108q-40 49 -57 49q-12 0 -12 -26v-7zM556 -1471q73 0 184 97q67 109 67 504q0 56 -1 119q-5 255 -9 533l-153 -186q-232 -284 -232 -693q0 -374 144 -374z M842 2209q67 25 78 89q4 29 4 46q0 29 -11 30q-15 0 -50 -52q-17 -24 -21 -113zM901 -25q14 115 281 377l21 29q1 0 1 1q45 38 66 39h2q20 0 20 -25q0 -22 -21 -70q0 -1 -1 -2l-25 -35q-139 -146 -225 -213q-122 -91 -119 -101z" />
<glyph unicode="K" horiz-adv-x="2138" d="M16 1825q188 165 312 447q-14 53 -17 117q-6 25 -6 46q0 86 104 86q4 0 7 -1h2q58 0 80 -215q29 -91 132 -92q94 0 251 77q78 127 151 209h4q76 0 76 -100q0 -11 -1 -23l-116 -234l-41 -1046q83 131 165 131q32 0 63 -20l67 -44q107 139 108 251q0 35 -11 67 q-66 207 -66 384q0 376 300 617q26 3 49 3q130 0 175 -90q28 -53 27 -106q0 -13 -1 -25q-8 -70 -56 -96q-19 -10 -34 -10q-23 0 -37 24l-13 123q-22 39 -44 39q-13 0 -25 -13l-164 -260q-27 -97 -28 -231q0 -179 50 -423q3 -15 3 -32q0 -122 -167 -312q113 -190 113 -473 q0 -138 -27 -298q4 -150 192 -205q46 -6 88 -6q292 0 337 321v8q0 244 -195 243q-67 0 -156 -28l-141 -45h-5q-15 0 -15 11q0 29 87 127q40 45 138 54q32 3 63 4q150 0 240 -86q105 -99 105 -186q0 -9 -1 -18q-55 -466 -405 -512l-242 16q-202 50 -202 306q0 89 24 203 q5 25 6 61q0 56 -14 139q-25 145 -93 229q-56 -35 -104 -35q-85 0 -150 103l-4 -375q-3 -285 -77 -418q-71 -126 -111 -147q-149 -79 -266 -80q-88 0 -156 45q-225 170 -225 439q0 95 28 202q64 128 226 138q-144 -165 -145 -324q0 -176 178 -347q39 -37 101 -37 q56 0 129 30q90 37 160 197q15 35 31 711l26 1099l-39 -19q-117 -37 -198 -37q-79 0 -124 36l-70 56q-44 -177 -268 -350h-138zM1032 1032l36 -13l65 -17q59 12 79 55q-61 45 -112 45q-9 0 -19 -2q-44 -23 -49 -68z" />
<glyph unicode="L" horiz-adv-x="1892" d="M0 2281q-1 16 -1 32q0 119 57 190q90 -27 91 -41q-7 -83 -7 -159q0 -749 687 -796q-94 367 -94 554q0 81 18 128q91 246 468 299q50 7 94 7q320 0 361 -364q5 -46 5 -89q0 -263 -183 -458q-202 -208 -492 -208h-11q28 -270 28 -492q0 -385 -86 -625q337 -167 541 -166 q231 0 292 213q35 121 35 223q0 14 -1 28q-9 198 -240 198q-37 0 -79 -5q-84 -11 -84 -140q0 -18 2 -39l-82 -26l-15 192q53 143 123 149q38 3 73 3q415 0 414 -374q0 -32 -3 -66q-41 -479 -442 -479q-55 0 -117 10l-116 17l-374 156q-75 -109 -174 -153q-71 -32 -135 -32 q-129 0 -234 128q-46 57 -46 111q0 24 10 47q41 177 207 177q129 0 333 -106q70 132 70 495q0 126 -8 280q-12 210 -38 274q-799 11 -847 907zM388 238q-17 -34 -17 -62q0 -97 215 -113h7q91 0 188 153q-160 107 -261 107q-90 1 -132 -85zM983 1510h6q491 0 547 456 q7 60 7 111q0 288 -233 288q-105 0 -256 -58q-169 -51 -169 -301q0 -190 98 -496z" />
<glyph unicode="M" horiz-adv-x="2654" d="M0 53l41 74q29 -35 122 -35q33 0 75 4q158 17 188 90q412 994 466 1978q10 187 173 279q113 -29 148 -100t35 -221t14 -938q1 -68 1 -134q0 -462 -59 -845l33 -62q12 -21 34 -21q28 0 72 32q42 31 107 305q23 105 63 321q94 523 99 924q3 213 18 606q5 154 227 155 q8 0 15 -1q94 -3 97 -271q1 -74 1 -148q0 -460 -30 -894q-7 -102 -7 -517q0 -304 58 -433q32 -71 108 -71q62 0 154 46q246 126 246 343q0 56 -17 119q-49 104 -134 103q-24 0 -50 -8q-145 -42 -146 -191q0 -10 1 -22l-68 29q-2 19 -2 36q0 158 140 272q78 62 138 63 q45 0 80 -34q190 -179 191 -361q0 -194 -217 -391q-140 -129 -298 -129q-56 0 -114 15q-143 40 -176 271q-25 181 -25 354q0 102 8 200q-4 11 -4 59q0 99 19 356q44 592 45 815q0 107 -10 129q-33 72 -58 71q-33 0 -49 -129q-11 -87 -34 -757q-10 -254 -81 -684l-75 -345 q-81 -364 -289 -363q-41 0 -88 14q-102 31 -102 167q0 31 6 68q54 376 54 958q0 430 -30 974l-71 13q-145 -1185 -506 -2056q-52 -124 -267 -147q-34 -4 -64 -4q-130 0 -206 69z" />
<glyph unicode="N" horiz-adv-x="1968" d="M-41 31l27 73q57 -20 117 -20q154 0 318 134q172 141 251 414q236 814 261 1603q4 117 110 152q23 7 43 7q126 0 141 -285q17 -333 18 -507q0 -44 -1 -77l11 -319q-4 -89 -4 -192q0 -330 43 -796q53 -95 96 -94.5t76 94.5q205 580 205 1623q0 84 -1 170v18q0 342 207 409 q93 30 172 31q225 0 325 -250q34 -84 34 -174q0 -151 -95 -321q-107 -189 -220 -189q-23 0 -46 8q-93 31 -134 199q-6 25 -6 49q0 86 81 159q48 14 76 13q36 0 36 -23q0 -17 -19 -48q-59 -92 -59 -111q0 -55 31 -90.5t52 -35.5q28 0 62 37q124 137 124 308q0 29 -4 59 q-32 269 -228 269q-13 0 -27 -1q-212 -19 -222 -299q-53 -1633 -286 -1950q-82 -111 -161 -111q-80 0 -156 115q-77 116 -77 900v108q1 81 1 158q0 466 -21 827q-7 118 -32 118q-6 0 -13 -7q-32 -30 -32 -69q0 -12 3 -24q-16 -505 -97 -916q-124 -638 -252 -825 q-236 -349 -496 -349q-27 0 -53 4z" />
<glyph unicode="O" horiz-adv-x="1581" d="M33 829q-15 190 -16 346q0 496 155 659q159 176 248 175q23 0 41 -12q35 191 163 355q116 113 201 114q9 0 19 -2q69 11 133 12q389 0 589 -413q86 -201 102 -479q5 -86 6 -168q0 -869 -580 -1312q-109 -87 -366 -94q-605 86 -695 819zM137 1161q-4 -70 -4 -136 q0 -736 480 -876q86 -25 166 -25q396 0 640 615q70 175 118 606q12 101 12 194q0 542 -397 775q-48 28 -141 28q-59 0 -137 -11q-199 -29 -266 -263q-36 -126 -36 -256q0 -100 21 -204q26 -128 88 -147q57 -17 104 -17q115 0 169 100l96 161q71 0 71 -74q0 -46 -27 -121 q-48 -130 -278 -198q-30 -9 -59 -9q-132 0 -265 174q-51 136 -51 266q0 48 7 96l-60 32q-165 -135 -195 -301q-48 -263 -56 -409z" />
<glyph unicode="P" horiz-adv-x="1462" d="M-15 97l40 70q161 -74 389 -75q19 0 39 1q300 11 429 228q60 275 60 700q0 458 -70 1091l33 82l81 -41l26 -369q33 -467 33 -811q0 -409 -47 -643q-33 -171 -135 -219q-250 -120 -457 -120q-57 0 -111 9q-231 40 -310 97zM135 1166q-33 167 -33 314q0 711 779 945 q107 32 203 32q335 0 545 -386q123 -218 123 -356q0 -453 -287 -453q-290 0 -290 217q0 51 16 113q3 14 26 14t68 -14q41 -12 42 -41l-29 -111q65 -87 134 -86q56 0 115 59q86 86 85 216q0 175 -155 430q-138 227 -315 246q-47 5 -92 5q-425 0 -715 -444 q-121 -183 -121 -427q0 -143 42 -309q44 -173 161 -210q24 -4 45 -4q126 0 160 153q23 104 23 188q0 140 -64 224l95 14q92 -158 92 -316q0 -144 -77 -287q-108 -107 -231 -107q-74 0 -154 38q-147 125 -191 343z" />
<glyph unicode="Q" horiz-adv-x="1742" d="M8 251q-8 19 -7 39q0 55 57 122q79 91 189 119q23 6 49 6q64 0 149 -36l156 -120q414 180 540 673q56 219 57 439q0 355 -148 709l-111 123q-71 25 -133 26q-175 0 -291 -195q-90 -152 -90 -296q0 -155 105 -298l125 -46l228 139h2q31 0 31 -61q0 -26 -5 -62 q-4 -38 -56 -78q-119 -93 -200 -120l-112 15q-267 240 -267 514q0 142 72 293q135 283 376 336q69 16 130 15q364 0 449 -549q41 -270 41 -499q0 -706 -391 -1019l-216 -156q146 -179 284 -216q42 -11 91 -11q109 0 249 58q154 61 236 196q71 117 71 216q0 38 -10 74 q-25 83 -126 82q-21 0 -45 -3l-255 -139l16 139q124 167 266 167q75 0 156 -47l125 -182q7 -57 8 -108q0 -312 -259 -469l-325 -123q-76 -13 -139 -13q-92 0 -157 28l-322 257l-71 -45q-153 -66 -265 -67q-181 0 -257 173zM178 242q31 -31 91 -31q52 0 124 24l88 49 q-41 64 -113 100q-42 21 -73 21q-21 0 -36 -10q-98 -66 -98 -115q0 -21 17 -38z" />
<glyph unicode="R" horiz-adv-x="2083" d="M14 112l27 74q226 -69 396 -70q363 0 476 314q96 267 96 854q0 416 -48 993l44 71q-665 -46 -706 -644l30 -362q30 -169 111 -206q57 -27 99 -27q67 0 92 71l-17 311q12 56 71 56h3q33 0 41 -57q19 -115 19 -206q0 -178 -75 -259q-106 -37 -187 -36q-220 0 -265 266 q-33 197 -33 363q0 638 492 811l198 41q122 12 230 12q566 0 724 -332q103 -215 103 -394q0 -300 -288 -501l-234 -163l41 -525q25 -164 78 -294q29 -67 82 -87q74 -29 133 -29q152 0 200 191q9 37 9 69q0 25 -6 46q-13 48 -51 61l-195 29q-12 13 -13 26q0 34 85 70 q58 24 107 24q86 0 145 -75q43 -144 42 -253q0 -288 -301 -319q-11 -1 -21 -1q-382 0 -421 487l-37 466q-10 67 -37 79l-129 -8q-1 -986 -566 -1033q-92 -10 -171 -9q-159 0 -268 38q-93 33 -105 67zM1069 2324l60 -1198l18 50q76 56 126 55q44 0 69 -43l190 123 q227 147 250 286q17 106 16 197q0 543 -594 543h-120z" />
<glyph unicode="S" horiz-adv-x="1275" d="M-48 280q-1 8 -1 14q0 32 31 33q10 0 22 -3l201 -177q85 -23 162 -23q314 0 515 376q74 137 74 382q0 186 -43 434q-128 -10 -230 -10q-258 0 -358 66q-246 167 -292 668l-26 284q4 55 59 59l86 -46q0 -24 -1 -47q0 -829 427 -852q153 -8 235 -9q93 0 92 11 q0 73 -12 198.5t-12 178.5q0 548 259 669q73 35 149 35q103 0 209 -65q112 -67 173 -278q27 -93 27 -182q0 -256 -223 -485q-161 -160 -426 -178l35 -579q-60 -665 -721 -768q-294 10 -388 222q-19 43 -23 72zM1020 1524l11 -66q464 61 521 484q8 60 9 112q0 314 -302 314 q-3 0 -7 -1q-210 -3 -227 -393q-8 -174 -8 -310q1 -76 3 -140z" />
<glyph unicode="T" horiz-adv-x="2235" d="M-29 1842q-14 84 -14 154q0 139 57 219q121 171 292 171q180 0 415 -189q138 -112 229 -215q90 169 333 331q231 153 370 153h14q47 5 89 5q339 0 337 -345q-101 -520 -490 -520q-239 0 -587 196q21 -62 21 -128q0 -51 -13 -105q-44 -184 -205 -185q-79 -342 -79 -589 q0 -524 354 -627q144 -42 255 -42q369 0 396 456q1 12 1 22q0 175 -162 244h-4q-205 0 -361 -143v110q35 75 100 103q108 46 224 45q61 0 124 -13q215 -43 215 -316q0 -122 -43 -290q-55 -216 -291 -313q-125 -49 -260 -49q-121 0 -250 40q-450 137 -451 757q0 250 74 580 q-16 0 -32 -1q-578 0 -658 484zM97 2028q-3 -37 -3 -73q0 -417 425 -441l173 -15q45 177 178 373q-238 238 -268 265q-117 103 -235 103l-224 -94zM1090 1917l311 -135q114 -40 206 -40q272 0 356 348q1 13 1 25q0 203 -225 203q-84 0 -199 -28q-221 -86 -450 -373z" />
<glyph unicode="U" horiz-adv-x="2106" d="M87 2217q95 259 318 259q13 0 26 -1q171 -11 171 -400v-19q-14 -1350 -15 -1356l22 -460q1 -4 1 -7q0 -94 87 -93q31 0 73 12q270 75 541 385q13 570 13 1470q0 225 -1 471l30 4l93 -18q-9 -41 -9 -191q0 -139 8 -371q3 -82 2 -179q0 -194 -11 -446l10 -925 q21 -224 226 -224h10q228 68 255 237q8 47 8 89q0 145 -92 223q-48 41 -86 41q-78 0 -112 -173l-85 30q7 134 57 165q148 92 242 92q95 0 133 -95q74 -184 73 -325q0 -352 -463 -426l-96 14q-156 45 -193 375q-412 -352 -624 -375q-16 -2 -30 -2q-137 0 -182 149 q-26 86 -27 826q0 295 15 1065v6v30q0 284 -90 284q-62 0 -167 -133l-68 -289q10 -174 88 -174q17 0 38 9l82 120q14 10 22 10q22 1 4 -55q-44 -138 -97 -180q-49 -40 -87 -40q-31 0 -55 26q-111 122 -111 297q-1 121 53 268z" />
<glyph unicode="V" horiz-adv-x="1520" d="M0 1861q-1 23 -1 46q0 362 331 544q15 1 30 1q136 0 189 -83q115 -112 123 -316l-49 -906l8 -785q8 -201 151 -231q21 -5 40 -5q46 0 70 31q203 261 296 726q108 532 136 1033q-285 137 -285 373q0 76 30 162q38 42 89 42q29 0 61 -14q123 -81 179 -232q26 -70 38 -224 q46 -6 114 -6q162 0 452 36l-13 -69q-168 -78 -448 -78q-54 0 -111 3q0 -1021 -375 -1779q-60 -123 -248 -142l-98 12q-201 90 -215 321q-28 469 -28 680q0 57 2 95l64 948q-19 272 -148 272q-13 0 -28 -3q-37 -7 -189 -234q-50 -73 -51 -171q0 -35 7 -74q18 -104 83 -105 q67 0 183 107q11 -18 11 -37q0 -73 -152 -172q-24 -15 -49 -15q-43 0 -90 44q-104 97 -109 205zM1169 2329q-29 -15 -29 -50q0 -64 97 -194l86 -53v16q0 32 -3 96q-5 83 -117 178z" />
<glyph unicode="W" horiz-adv-x="2486" d="M102 1846l13 324q10 255 188 294q48 11 88 11q167 0 199 -184q101 -586 101 -969v-10v-96q0 -566 30 -921l27 -138q47 -40 83 -40q60 0 91 112q88 324 88 1063q0 406 -27 938q-1 22 -1 42q0 165 80 188q46 14 83 14q124 0 153 -152q120 -598 121 -1173q0 -425 -66 -836 q-5 -35 -5 -63q0 -108 80 -108q10 0 22 1q56 8 152 238q236 566 236 1191q0 260 -41 531q-8 0 -16 -1q-169 0 -298 174l-41 87q-1 9 -1 17q0 116 110 132q16 2 32 3q177 0 312 -298l557 110l73 -51l-605 -152q38 -262 37 -519q0 -665 -250 -1310q-87 -227 -138 -250 q-64 -30 -126 -30q-59 0 -116 27q-109 48 -109 180q0 13 1 28q8 94 67 577q14 120 14 285q0 230 -28 546q-49 564 -51 566q-59 52 -86 52q-21 0 -21 -31q2 -214 2 -408q0 -874 -40 -1355l-79 -340q-57 -130 -157 -156q-227 14 -267 338q-29 233 -35 864q-8 666 -82 1074 q-19 106 -82 106q-18 0 -41 -9q-93 -40 -108 -225l-16 -212l41 -83q15 -31 15 -50q0 -11 -6 -18q-32 -37 -66 -37q-15 0 -29 7q-52 24 -62 105zM1589 2384q-13 -11 -13 -26q0 -46 125 -130l62 -41q-4 26 -23.5 87t-105.5 134z" />
<glyph unicode="X" horiz-adv-x="2118" d="M509 2486q203 -31 295 -129q175 -187 245 -403q198 493 552 493q86 0 182 -29q233 -71 233 -296q0 -47 -10 -100q-67 -343 -421 -483q-339 -134 -356 -135l254 199q239 142 286 202q132 165 133 275q0 98 -105 154q-101 53 -196 53q-239 0 -438 -341l-49 -167 q-29 -319 -29 -618q0 -380 47 -727q44 -325 298 -325q28 0 58 4q400 52 401 551q0 33 -2 69q-9 180 -142 180q-115 0 -322 -133l-21 94l104 101q144 53 249 53q244 0 270 -289q5 -64 5 -122q0 -628 -632 -643q-304 59 -386 381q-63 -289 -264 -336q-112 -26 -205 -26 q-390 0 -469 449q-9 52 -9 103q0 303 321 547q224 78 503 94q-471 -112 -593 -378q-86 -189 -86 -327q0 -244 269 -332q75 -25 137 -25q294 0 319 546q22 503 22 792q0 297 -23 368q-165 489 -437 492q-6 0 -12 1q-329 0 -365 -387q-2 -25 -2 -48q0 -215 211 -215 q61 0 139 17l86 52l-5 -76q-74 -129 -265 -129h-19q-291 95 -291 350q0 563 535 599z" />
<glyph unicode="Y" horiz-adv-x="1809" d="M29 1749q-7 58 -7 112q0 351 297 550q70 30 134 30q101 0 186 -76q138 -124 141 -249l39 -1842q3 -116 81 -183q10 -1 23 -1q59 0 165 32q201 57 213 301q12 236 73 2026l125 15l-63 -1600l-15 -594l2 -256q191 176 194 177q61 35 180 178l35 -9q-3 -146 -411 -475 l-9 -1133l-14 -169q-22 -119 -190 -153q-13 -1 -26 -1q-363 0 -363 486q0 56 33 199t60 210q138 330 348 580l12 182q-156 -132 -379 -135q-153 26 -182 183q-25 128 -35 789q-14 796 -21 887l-24 306q-60 162 -162 162q-20 0 -40 -6l-78 -36q-187 -182 -187 -400 q0 -139 76 -293q64 -123 117 -123q61 0 107 167l75 -7l-80 -211q-67 -61 -119 -61q-23 0 -44 12q-230 137 -267 429zM956 -1133q10 -285 170 -317q130 22 149 123l13 242l-6 823q4 -26 -112 -199t-151 -282q-52 -140 -63 -390zM1494 -25q15 115 282 377l21 29q1 0 1 1 q45 38 66 39h2q21 0 21 -25q0 -22 -22 -70q0 -1 -1 -2l-25 -35q-139 -146 -225 -213q-121 -91 -120 -101z" />
<glyph unicode="Z" horiz-adv-x="1306" d="M15 -1062q262 827 849 1156q11 15 26 179q4 49 5 91q0 262 -167 287q-6 1 -12 1q-89 0 -229 -184q-53 -72 -109 -367l-83 -44l-53 74q288 866 568 1998l-328 13l-199 -516l-140 -105l-68 74v87q238 242 255 578l-69 131q-4 26 -4 49q0 64 31 96q18 19 39 19q27 0 57 -33 l83 -175q46 -59 109 -74q90 -20 155 -19q58 0 96 15l119 153q34 13 57 13q52 0 53 -67q0 -4 -1 -7l-121 -288l-373 -1348q112 91 186 91q36 0 63 -21q201 -162 201 -435q0 -94 -24 -200l230 180l129 111q34 -15 35 -44q0 -38 -66 -100q-186 -173 -354 -287 q-87 -651 -246 -1082q-158 -429 -385 -499q-81 -25 -143 -25q-204 0 -204 269q0 106 32 255zM105 -1292q19 -153 119 -153q36 0 82 20q93 40 136 112q254 427 385 1247l-86 -60q-332 -266 -467 -585q-153 -252 -169 -581z" />
<glyph unicode="[" horiz-adv-x="1149" d="M429 -266q59 747 68 1155q1 36 1 77q0 281 -32 824l225 3l124 16l53 -68l-26 -165l17 49l-212 -8l-38 -1814l221 6l-24 -144l-295 -16z" />
<glyph unicode="\" horiz-adv-x="1198" d="M246 1449q10 97 64 96q35 0 87 -39l675 -1335q-28 -106 -90 -106q-28 0 -62 21q-286 657 -674 1363z" />
<glyph unicode="]" horiz-adv-x="1067" d="M98 1659l25 162h330l99 -82q-5 -83 -5 -167q0 -326 74 -687l-16 -1031l-220 -18l-272 -7l58 115l282 36q35 475 35 743q0 67 -2 121q-7 251 -101 831z" />
<glyph unicode="^" horiz-adv-x="946" d="M124 1547q141 131 373 444q15 3 28 3q28 0 50 -14q12 -141 231 -411q24 -28 23.5 -43t-23.5 -16q-25 0 -96 81l-194 244q-206 -235 -392 -288z" />
<glyph unicode="_" horiz-adv-x="2284" d="M-25 0h2339v-22h-2339v22z" />
<glyph unicode="`" horiz-adv-x="772" d="M183 1540l38 70l60 -37q52 -108 115 -175t221 -116q13 -4 13 -8q0 -11 -115 -21q-11 -1 -22 0q-199 -1 -310 287z" />
<glyph unicode="a" horiz-adv-x="1242" d="M-35 324v4q0 33 36 76l15 18q63 55 80 86q3 4 24 16l4 2v26q12 131 105 233q89 100 197 135q31 10 65 11q91 0 201 -75l29 72h95l-4 -131q-21 -285 -20 -609v-41q0 -48 56 -61q194 53 356 266l21 29q1 0 1 1q45 38 66 39q22 1 21 -25l-30 -70q0 -1 -1 -2l-25 -35 q-97 -124 -215 -213q-46 -34 -74 -45q-30 -31 -173 -31q-75 0 -111 131q-64 -142 -195 -154q-17 -2 -33 -1q-112 0 -214 68q-67 87 -89 165q-23 85 -29 220l-45 -60q-11 -14 -20 -21q0 -1 -2 -1q-59 -42 -69 -43q-20 1 -23 20zM250 250q33 -135 100 -168q49 -24 110 -24 q25 0 52 3q137 76 157 204q29 180 29 323q0 94 -13 171q-96 63 -197 63q-15 0 -31 -1q-83 -10 -170 -141q-62 -95 -63 -234q0 -89 26 -196z" />
<glyph unicode="b" horiz-adv-x="1185" d="M-20 324v4q7 53 51 94q120 111 126 113l-19 423q-15 336 -15 586q0 335 27 512q49 315 287 437q39 20 85 20q72 0 161 -49q100 -55 118 -232q12 -118 13 -234q0 -277 -69 -549q-156 -621 -480 -915l29 -265q18 -167 142 -187q42 -7 81 -7q231 0 334 251q-37 15 -85 84 q-62 83 -62 158q0 58 36 111q42 63 104 62q8 0 18 -1q131 -16 143 -171q2 -24 2 -47q0 -90 -29 -178q46 -25 78 -25q22 0 38 11l71 51q1 0 1 1q45 38 66 39q22 1 21 -22q0 -51 -26 -73q1 0 5 -2l-74 -41q-54 -44 -115 -44q-51 0 -108 31q-76 -169 -187 -233 q-70 -40 -228 -52q-23 -2 -44 -2q-126 0 -191 62q-70 67 -95 234l-23 150q-3 -15 -84 -81q0 -1 -1 -1q-59 -42 -79 -42t-23 19zM224 1535l29 -889q330 414 417 820q65 300 65 514q0 233 -77 363q-45 77 -113 77q-20 0 -43 -7q-281 -87 -280 -760q0 -56 2 -118zM826 599 q-17 -21 -17 -47q0 -27 18 -60q38 -61 69 -84q27 78 32 123q2 11 2 21q0 31 -21 45q-29 19 -50 19q-20 -1 -33 -17z" />
<glyph unicode="c" horiz-adv-x="939" d="M-35 324v4q0 33 36 76l15 18q63 55 80 86q3 4 16 11l38 136q66 235 299 256q16 1 32 1q181 0 247 -191l12 -68l-82 -9q-33 142 -136 152q-17 2 -34 2q-136 0 -204 -113q-71 -117 -71 -250q0 -91 33 -189q57 -168 204 -168h11q19 1 130 28q160 66 298 246l20 29q1 0 2 1 q45 38 65 39q23 1 23 -25l-31 -70q0 -1 -1 -2l-25 -35q-81 -105 -179 -184q-18 -16 -52 -41q-11 -7 -23 -13l-29 -20q-92 -57 -186 -57q-89 0 -179 51q-154 86 -183 364l-2 19l-30 -39q-11 -14 -20 -21q0 -1 -2 -1q-59 -42 -69 -43q-20 1 -23 20z" />
<glyph unicode="d" horiz-adv-x="1294" d="M-35 324v4q0 33 36 76l15 18q63 55 80 86q3 4 24 16l4 2v26q12 131 105 233q90 101 197 135q31 10 66 10q95 0 213 -78l30 931h95l-27 -983q-11 -649 -11 -653q-1 -42 13 -59.5t44 -11.5q35 7 60 11q191 55 353 265l20 29q1 0 1 1q45 38 66 39q22 1 22 -25l-30 -70 q0 -1 -2 -2l-24 -35q-97 -124 -216 -213q-63 -46 -90 -49h-5q-27 -19 -114 -35q-24 -5 -46 -5q-118 0 -160 144q-64 -142 -195 -154q-17 -2 -33 -1q-112 0 -214 68q-67 87 -89 165q-23 85 -29 220l-45 -60q-11 -14 -20 -21q0 -1 -2 -1q-59 -42 -69 -43q-20 1 -23 20z M250 250q33 -135 100 -168q49 -24 110 -24q25 0 52 3q137 76 157 204q29 180 29 323q0 94 -13 171q-96 63 -197 63q-15 0 -31 -1q-83 -10 -170 -141q-62 -95 -63 -234q0 -89 26 -196z" />
<glyph unicode="e" horiz-adv-x="869" d="M-36 324v4q0 33 37 76l15 18q63 55 80 86q1 3 6 5q31 197 126 279q89 76 193 91q21 3 41 3q125 0 218 -117q33 -42 33 -145q0 -37 -4 -83q-14 -141 -207 -193q-72 -19 -141 -19q-95 0 -184 37q-1 -20 0 -38q0 -124 40 -176q61 -79 171 -79q24 0 49 3q7 1 12 2 q212 45 387 274l20 29q1 0 1 1q45 38 66 39q22 1 22 -25l-30 -70q0 -1 -2 -2l-24 -35q-97 -124 -216 -213q-51 -38 -78 -46q-98 -46 -197 -46h-6q-220 4 -280 166q-26 70 -34 197l4 26l-3 -4q-11 -14 -20 -21l-2 -1q-59 -42 -69 -43q-21 1 -24 20zM186 453q1 -14 41 -23 q88 -20 159 -20q44 0 81 8q167 31 167 186v14q-9 169 -169 170q-38 0 -84 -10q-86 -18 -134 -123q-62 -136 -62 -195q1 -4 1 -7z" />
<glyph unicode="f" horiz-adv-x="925" d="M-35 324v4q0 33 36 76l15 18q63 55 80 86q3 4 24 16l4 3q-21 656 -21 1110q0 314 10 531q3 59 63 164q45 79 235 154q58 23 112 22q124 0 228 -119q113 -129 113 -390v-12q-8 -698 -150 -948q-210 -370 -482 -556l21 -289q61 -104 224 -118q5 0 12 2q212 45 386 274 l21 29q1 0 1 1q45 38 66 39q23 1 23 -25l-32 -70q0 -1 -1 -2l-25 -35q-97 -124 -215 -213q-45 -34 -73 -45l-50 -34l46 -57q158 -225 211 -463q30 -135 29 -274q0 -153 -36 -310q-75 -322 -317 -451q-61 -32 -124 -32q-59 0 -122 28q-124 56 -130 161q-12 268 -11 408 q0 147 13 152q-19 429 -21 863q0 247 -1 409l-48 -62q-11 -14 -20 -21q0 -1 -2 -1q-59 -42 -69 -43q-20 1 -23 20zM213 890l8 -281q527 438 527 1183q0 100 -9 207q-34 378 -205 377h-15q-94 -10 -220 -89q-87 -55 -87 -391q0 -29 1 -61q3 -171 3 -407t-3 -538zM243 44 q0 -244 3 -463q11 -874 11 -905q0 -76 34 -114q34 -36 100 -37h5q124 3 222 132q89 115 126 289q31 147 31 283q0 436 -320 763q-144 8 -212 52z" />
<glyph unicode="g" horiz-adv-x="1312" d="M-35 324v4q0 33 36 76l15 18q63 55 80 86q3 4 15 11q4 11 9 22q100 208 239 281q90 48 193 48q84 0 176 -32l30 58h87v-1034l258 307q67 81 172 183l21 29q1 0 1 1q45 38 66 39q22 1 21 -25q0 -22 -20 -70q0 -1 -1 -2l-25 -35q-101 -105 -173 -169l-82 -104l-226 -263 q2 -448 2 -702v-206q-1 -304 -83 -403q-52 -62 -121 -62q-71 0 -159 66q-113 85 -129 223q-7 64 -6 128q0 252 102 514q111 284 297 466l-16 305q-184 -82 -314 -82q-75 0 -131 27q-156 74 -197 372v1l-23 -31q-11 -14 -20 -21q0 -1 -2 -1q-59 -42 -69 -43q-20 1 -23 20z M194 451q-2 -15 -2 -31q0 -99 66 -238q49 -104 183 -104q46 0 102 12q213 46 217 123q1 29 2 64q0 146 -23 393q-61 109 -171 110q-76 0 -176 -52q-176 -91 -198 -277zM449 -1251q23 -205 138 -262q30 -15 55 -15q87 0 120 180q22 122 22 294q0 75 -4 158q-14 277 -14 538 q-180 -158 -273 -499q-48 -177 -48 -314q0 -42 4 -80zM994 -23q-1 0 -1 -0.5t1 -1.5v2z" />
<glyph unicode="h" horiz-adv-x="1284" d="M-35 324v4q0 33 36 76l15 18l14 12l25 40l133 218l-38 765q-7 147 -7 273q0 179 15 316q25 233 95 349q67 112 177 112h8q279 -15 348 -275q49 -194 49 -373q0 -133 -27 -257q-75 -350 -325 -623l-180 -209q169 98 266 98q9 0 17 -1q120 -23 140 -213q35 -326 60 -461 q17 -94 92 -95q31 0 72 17l3 -2q152 68 281 239l21 29q1 0 1 1q45 38 66 39q22 1 21 -25l-30 -70q0 -1 -1 -2l-24 -35q-97 -124 -216 -213q-45 -34 -73 -45q-87 -36 -150 -36q-149 0 -169 198q-53 285 -67 498q-15 61 -82 61q-38 0 -94 -20l-139 -98l16 -646l-119 20l-7 500 l-73 -100l-13 -8l-23 -31q-11 -14 -20 -21q0 -1 -2 -1q-59 -42 -69 -43q-20 1 -23 20zM258 1339l25 -449l69 85q113 138 193 250q190 269 190 619q0 32 -2 65q-16 313 -90 409q-75 99 -192 99h-21q-57 -4 -90 -74q-92 -104 -92 -622q0 -169 10 -382z" />
<glyph unicode="i" horiz-adv-x="709" d="M-35 324v4q0 33 36 76l15 18q26 23 45 42q15 34 37 66q11 16 11 374q11 1 36 -4q17 2 29 2q32 0 32 -13l-3 -305l-5 -225q-1 -30 -1 -57q0 -146 26 -180q26 -35 58 -37q14 0 28 1q195 53 357 266l21 29q1 0 1 1q45 38 66 39q22 1 22 -25l-31 -70q0 -1 -1 -2l-24 -35 q-97 -124 -216 -213q-56 -42 -85 -47q-45 -26 -97 -29q-13 -1 -24 -1q-115 0 -153 49q-44 54 -44 305v44l-22 -28q-11 -14 -20 -21q0 -1 -2 -1q-59 -42 -69 -43q-20 1 -23 20zM90 1245q-9 14 -9 33.5t9 43.5l42 37q68 -5 76 -47q1 -8 1 -15q0 -49 -55 -76z" />
<glyph unicode="j" horiz-adv-x="674" d="M-162 -1241q-10 83 -10 164q0 298 132 585q100 214 329 532l17 607l-240 -306l-9 4q-59 -41 -69 -41q-20 0 -23 20v4q0 23 19 53l346 481l91 -25l-24 -593l7 -118l180 178l50 48l20 29q1 0 1 1q45 38 66 39q22 1 22 -25q0 -14 -8 -37q0 -7 -3 -15l-3 -3l-7 -15 q0 -1 -1 -2l-25 -35q-139 -146 -225 -213l-78 -60q16 -227 22 -761q1 -94 1 -173q0 -333 -19 -391q-20 -206 -177 -272q-32 -3 -60 -3q-128 0 -185 56q-117 118 -137 287zM-53 -863q-27 -152 -27 -266q0 -140 40 -221q55 -111 163 -137q24 -6 45 -6q109 0 123 162 q25 91 25 422q0 60 -1 128l-9 700l-225 -368q-94 -186 -134 -414zM274 1282q-5 14 -4 25q0 34 45 43q16 3 31 3q52 0 66 -44q12 -35 12 -59q0 -53 -53 -64q-6 -1 -12 -1q-52 0 -85 97zM352 -23q-1 0 -0.5 -0.5t0.5 -1.5v2z" />
<glyph unicode="k" horiz-adv-x="1198" d="M-35 332q0 28 36 72l15 18l18 16l160 256q67 106 67 131q0 4 -2 5l-32 1355q0 8 -1 14q0 153 81 237q96 62 210 62q36 0 74 -6q210 -35 233 -362q3 -49 3 -98q0 -283 -109 -597q-66 -190 -348 -617l-1 -48l84 38q81 37 147 37q134 0 207 -150q32 -65 32 -129 q0 -52 -21 -102q-19 -46 -65.5 -51.5t-90.5 -49.5q8 8 12 -16l6 -48q12 -162 41 -184q38 -27 84 -27q8 0 16 1q190 56 348 263l20 29q1 0 24 20t44 20.5t21 -25.5l-30 -70q0 -1 -1 -2l-25 -35q-97 -124 -216 -213l-23 -16v-3q-81 -64 -167 -64q-66 0 -136 38q-83 46 -83 332 q-57 -11 -103 -10q-83 0 -131 35l-9 -388l-95 -3l20 688q-35 -79 -99 -168q0 -10 -5.5 -20t-57 -77.5t-60.5 -72.5q-59 -42 -69 -43q-23 0 -23 28zM321 2236l7 -382l13 -900l63 84q334 444 335 982q0 33 -2 66q-11 300 -205 317q-20 2 -38 2q-175 -1 -173 -169zM365 410 q27 57 131 57q34 0 147 -45q46 4 74 42q45 63 45 119q0 67 -64 124q-73 48 -139 48q-54 0 -103 -31q-91 -60 -91 -73v-241z" />
<glyph unicode="l" horiz-adv-x="902" d="M-36 324v4q0 33 37 76l15 18l32 29q1 1 3 4q83 101 116 129q0 67 -6 810q-3 296 -3 468.5t3 222.5q15 382 231 429q56 12 104 12q255 0 305 -340q19 -127 19 -255q0 -697 -561 -1412q20 -244 35 -316q26 -132 132 -131h15l31 6l32 8q16 5 33 12h4q172 63 318 254l20 29 q1 0 2 1q45 38 65 39q23 1 23 -25l-31 -70q0 -1 -1 -2l-25 -35q-93 -120 -206 -206h4q-20 -14 -41 -26q-22 -15 -38 -23q-114 -61 -209 -61q-110 0 -194 83q-61 61 -61 401l-99 -101q-5 -5 -9 -8q0 -1 -2 -1q-59 -42 -69 -43q-21 1 -24 20zM261 661q329 416 441 1013 q26 143 26 266q0 209 -74 363q-53 111 -184 111q-17 0 -36 -1q-161 -63 -164 -391z" />
<glyph unicode="m" horiz-adv-x="2049" d="M-35 324v4q0 33 36 76l15 18l15 14l60 80q4 5 92 134q108 157 253 207q52 18 90 18q94 0 112 -105l8 -50q68 102 188 146q26 5 51 5q122 0 188 -134q16 -35 17 -82q12 63 54 116q81 101 169 102q5 0 9 -1q221 -15 236 -430l5 -158q-1 -31 -1 -58q0 -87 14 -125 q7 -22 45 -23h2q212 45 387 274l20 29q1 0 2 1q45 38 65 39q22 1 22 -25l-30 -70q0 -1 -1 -2l-25 -35l-44 -53l-15 -18q-76 -82 -157 -142q-40 -30 -65 -41q-49 -29 -107 -32q-22 -2 -42 -2q-92 0 -124 37q-42 51 -44 358q0 220 -44 299q-48 90 -118 90q-11 0 -22 -3 q-59 -11 -131 -148q-44 -52 -50 -198v-42q0 -96 3 -390l-95 4q-4 30 -4 133q0 136 6 400q0 12 1 22q0 193 -91 214q-25 6 -48 6q-121 0 -192 -156q-25 -173 -25 -424q0 -106 4 -226h-4q-37 0 -87 23q8 41 8 281q1 321 3 353q1 11 0 20q0 123 -84 123q-44 0 -110 -33 q-97 -81 -169 -190q-61 -93 -100 -138l-37 -47q-11 -14 -20 -21q0 -1 -2 -1q-59 -42 -69 -43q-20 1 -23 20z" />
<glyph unicode="n" horiz-adv-x="1576" d="M-35 324v4q0 33 36 76l15 18l6 5l251 364q64 91 161 117q47 13 87 13q90 0 143 -66q27 -34 39 -93q41 83 116 123q38 20 86 19q39 0 85 -12q139 -39 139 -565q0 -47 -1 -99v-9q0 -122 69 -133q106 29 204 107l31 35l118 141q33 27 54 34q25 18 38 18q23 1 24 -25l-32 -70 q0 -1 -1 -2l-25 -35q-38 -49 -79 -92q-37 -52 -49 -63q-64 -52 -94 -82q-64 -63 -230 -67q-93 20 -125 173q2 42 2 97q0 146 -16 384q-11 163 -120 163q-29 0 -64 -11q-70 -22 -101 -132q-3 -12 -3.5 -29t3.5 -40l2 39q1 0 -20 -625l-65 -19l-39 15q-2 3 -1 41q0 108 14 497 q2 47 1 85q0 133 -22 153q-45 41 -95 41q-65 0 -140 -69q-55 -49 -172 -222l-79 -116l-12 -9l-25 -32q-11 -14 -20 -21q0 -1 -2 -1q-59 -42 -69 -43q-20 1 -23 20z" />
<glyph unicode="o" horiz-adv-x="1112" d="M-36 324v4q0 33 37 76l15 18q59 51 77 80q10 18 23 36q68 210 197 291q135 84 254 84q124 0 230 -91q123 -108 124 -266q0 -10 -1 -19q-7 -72 -24 -166q34 -23 71 -23q20 0 42 7l64 26q1 0 2 1q45 38 65 39q23 1 23 -25q0 -22 -22 -70q0 -1 -1 -2l-56 -32 q-46 -17 -109 -17q-49 0 -108 10q-60 -287 -354 -286q-20 0 -41 1q-209 12 -304 176q-56 94 -56 198q0 21 3 42l-36 -47q-11 -14 -20 -21l-2 -1q-59 -42 -69 -43q-21 1 -24 20zM516 85h9q200 0 264 239q-29 12 -72 23q-37 10 -86 87q-31 48 -31 102q0 43 20 89 q51 115 113 125q-73 69 -166 69q-52 0 -110 -22q-251 -96 -251 -383q0 -321 310 -329zM696 501q3 -83 123 -91l10 92q0 173 -35 174h-2q-96 -10 -96 -159v-16z" />
<glyph unicode="p" horiz-adv-x="1433" d="M-36 324v4q0 33 37 76l15 18l18 16l1 2l381 452l70 -15l10 -91q75 104 158 104q76 0 157 -87q118 -124 118 -295q0 -9 -1 -19q-1 -37 -1 -71q0 -310 102 -336q205 49 375 270l20 29q1 0 1 1q45 38 66 39q22 1 22 -25l-30 -70q0 -1 -2 -2l-24 -35q-97 -124 -216 -213 q-63 -46 -90 -49h-3q-59 -29 -111 -29q-45 0 -85 22q-4 0 -4 2v1q-16 10 -33 23q-73 61 -73 290v24q0 10 1 21q0 271 -108 364q-38 33 -79 33q-85 0 -178 -143v-14q0 -104 -11 -969q-14 -1053 -26 -1166l-12 -109l-84 27l32 2272l-59 -58l-252 -277l-20 -2q-48 -34 -58 -35 q-21 1 -24 20z" />
<glyph unicode="q" horiz-adv-x="1056" d="M-35 324v4q0 38 109 161q26 30 57 72q18 59 55 124q98 175 251 183q14 1 28 1q113 0 197 -50q34 -20 34 -11q-1 12 4 60h103l8 -685v-29q122 79 210 198l21 29q1 0 1 1q45 38 66 39q22 1 21 -25l-30 -70q0 -1 -1 -2l-24 -35q-74 -97 -171 -178q-22 -18 -45 -35 q-31 -25 -56 -27l1 -1615l-44 -41l-73 45l9 1061q4 526 4 590l-107 -54q-105 -52 -193 -51q-85 0 -154 47q-59 40 -97 106q-48 82 -48 199v24q1 27 5 44l-27 -35q-12 -16 -22 -22q-59 -42 -69 -43q-20 1 -23 20zM201 393v-15q0 -291 183 -291q75 0 180 48q129 59 128 165v9 q-1 26 -1 45t1 31v315l-95 41q-44 19 -94 19q-54 0 -114 -23q-184 -74 -188 -344z" />
<glyph unicode="r" horiz-adv-x="1070" d="M-35 324v4q0 33 36 76l15 18l17 15l1 3q123 139 159 359q-55 20 -62 105q-1 13 -1 25q0 106 88 117q13 2 24 1q64 0 79 -53q5 -14 5 -32q0 -38 -22 -94q53 -19 112 -18q14 0 28 1q19 2 36 1q100 0 113 -55q22 -90 22 -199q0 -50 -5 -104q-2 -21 -2 -46q0 -86 21 -230 q15 -103 97 -102q21 0 47 7q41 22 94 65l135 134q64 76 66 77q34 23 51 22q11 0 14 -9q2 -5 2 -12q0 -28 -29 -93l-104 -113q-116 -128 -235 -169q-38 -13 -69 -13q-99 0 -140 125q-42 138 -42 508v46l-5 45l-14 23h-16q-77 0 -146 12l-61 11l-39 -138q-19 -78 -59 -144 l-1 -3q-1 -3 -6 -8q-55 -86 -90 -119v-1q-11 -14 -20 -21q0 -1 -2 -1q-59 -42 -69 -43q-20 1 -23 20zM206 956q-2 -15 -2 -28q0 -43 25 -54l18 39l1 43q0 23 -12 26q-4 1 -7 0q-18 1 -23 -26z" />
<glyph unicode="s" horiz-adv-x="916" d="M-35 324v4q0 33 36 76l15 18l36 33l49 60l426 472q4 3 44 -39q1 -1 4 -1q12 0 57 18l-120 -135q106 -8 236 -130q63 -59 89 -168q12 -51 12 -108q0 -55 -11 -117l99 114q12 3 21 2q27 0 27 -25q0 -18 -14 -50l-155 -162q-72 -176 -275 -205q-25 -4 -49 -4q-83 0 -160 43 q-154 86 -175 283q-5 44 -5 89q0 22 1 45l-66 -57l-8 -11q-11 -14 -20 -21q0 -1 -2 -1q-59 -42 -69 -43q-20 1 -23 20zM217 494q10 -1 33 -128q37 -191 108 -240q80 -55 153 -56q24 0 47 6q184 48 198 241q2 28 2 55q0 328 -312 375z" />
<glyph unicode="t" horiz-adv-x="879" d="M-36 324v4q0 33 37 76l15 18q26 23 44 42q106 135 154 220l7 528q-4 134 -4 233q0 147 10 211q64 -11 110 -26q4 -40 6 -127l2 -164q25 0 50 1q150 0 319 -7v-33l-9 -70q-79 8 -208 8q-71 0 -158 -2q-14 -339 -14.5 -608.5t14.5 -467.5q4 -60 95 -70q25 -3 49 0 q108 34 205 118l8 8q18 19 30 24q51 49 99 112l20 29q1 0 2 1q45 38 65 39q22 1 22 -25l-30 -70q0 -1 -2 -2l-24 -35q-52 -66 -109 -122q-174 -183 -331 -184q-16 0 -31 2q-83 11 -128 53q-58 52 -58 234v24q0 20 1 41q0 94 -10 206q0 -12 -39 -49q-12 -19 -94 -125 q-11 -14 -20 -21q0 -1 -2 -1q-59 -42 -69 -43q-21 1 -24 20z" />
<glyph unicode="u" horiz-adv-x="1307" d="M-35 324v4q0 33 36 76l15 18l30 27q1 1 3 4l41 45q4 5 6 10q3 3 9 7q46 53 79 95l6 32l9 251l107 -1q-7 -216 -11 -282q-7 -111 -7 -197q0 -230 48 -287q31 -38 83 -38q85 0 225 103q61 45 71 64q18 35 32 466l5 175l92 5l-25 -680v-15q0 -121 81 -120h11q195 53 357 266 l21 29q1 0 1 1q45 38 66 39q23 1 23 -25l-31 -70q0 -1 -2 -2l-24 -35q-97 -124 -216 -213q-49 -37 -77 -46q-63 -32 -126 -32q-40 0 -80 13q-76 52 -94 139q-78 -106 -251 -150q-56 -14 -102 -14q-174 0 -188 211q-9 53 -9 169q0 58 3 132q-66 -83 -95 -125h-5l-3 -4 q-11 -14 -20 -21q0 -1 -2 -1q-59 -42 -69 -43q-20 1 -23 20z" />
<glyph unicode="v" horiz-adv-x="1306" d="M-35 324v4q0 30 31 69q16 30 109 174l98 153q98 132 215 139h6q62 0 145 -74q28 -25 28 -113q0 -108 -41 -313q-13 -66 -14 -140q0 -32 3 -65q20 -63 76 -65q8 -1 17 -1q165 0 304 207q31 46 30 52q-81 34 -110 70q-51 61 -57 161q-1 12 -1 24q0 83 38 131q66 86 137 105 l68 6q127 -47 128 -183q0 -68 -32 -157l-43 -119q81 -44 114 -44h2q32 1 70 36q31 35 60.5 38.5t29.5 -23.5q0 -42 -23 -72l-25 -35q-30 -24 -86 -23q-28 0 -64 6q-14 1 -118 43q-51 -63 -67 -88q-61 -97 -123 -144q-113 -86 -264 -86q-75 0 -106 40q-59 72 -59 149 q0 16 3 32l34 216q20 124 20 197q0 59 -13 84q-19 38 -56.5 38t-92.5 -38q-76 -52 -131 -158l-26 -49q-3 -10 -17 -29q-51 -86 -81 -109q-12 -14 -47 -40q-35 -25 -52 -25q-14 1 -17 19zM904 528q42 -89 127 -106q18 19 37 83q18 65 17 110q0 48 -20 73q-38 21 -70 21 q-29 0 -53 -17q-42 -19 -41 -108q0 -25 3 -56z" />
<glyph unicode="w" horiz-adv-x="1881" d="M-36 324v4q0 33 37 76l15 18q12 7 50 94q59 137 129 219q127 145 216 155q13 1 24 2q129 0 140 -179q22 -418 23 -429q22 -126 87 -157q39 -19 70 -19q96 0 107 191l16 303q10 274 143 303q32 7 60 7q123 0 131 -143q2 -38 3 -91q0 -106 -9 -271q-4 -70 -4 -123 q0 -126 23 -150q35 -36 75 -36q68 0 150 101q102 127 109 159q-48 29 -125 105q-68 55 -80 233q-1 11 0 21q0 126 93 181q36 22 67 23q56 0 97 -70q69 -117 69 -264q0 -37 -5 -76l-15 -119q33 -37 163 -53l60 42q1 0 1 1q45 38 66 39q22 1 22 -25q0 -22 -21 -70q0 -1 -1 -2 l-84 -41q-64 -17 -97 -18q-12 0 -20 3q-79 19 -123 43l-102 -155q-94 -142 -212 -142q-69 0 -146 49q-40 27 -46 177q-4 84 -4 153q0 108 9 178q6 51 6 92q0 101 -39 132q-23 18 -40 18q-27 0 -42 -43q-27 -86 -60 -598q-11 -174 -204 -174q-18 0 -37 2q-205 16 -205 253 q0 492 -68 512q-12 3 -25 3q-79 0 -182 -130q-46 -59 -65 -136q-25 -96 -96 -154q0 -1 -1 -1q-59 -42 -79.5 -42t-23.5 19zM1468 588q7 -49 35 -80l73 -68q16 107 16 176q0 72 -18 102q-40 73 -69 73q-4 0 -9 -2q-46 -19 -46 -91q0 -44 18 -108v-2z" />
<glyph unicode="x" horiz-adv-x="1559" d="M-35 324v4q0 33 36 76l15 18l19 16q31 56 132 161q240 248 360 290q37 12 74 12q27 0 53 -7q141 -38 225 -195q74 199 242 200q4 0 9 -1q156 -4 274 -120q29 -29 28 -46q0 -28 -73 -29q-4 0 -29 29q-63 76 -155 76q-29 0 -61 -8q-194 -45 -194 -269v-9l4 -243 q1 -66 24 -108q51 -93 165 -94q9 0 19 1h4q212 45 386 274l21 29q1 0 1 1q45 38 66 39q23 1 23 -25l-31 -70q0 -1 -2 -2l-24 -35q-97 -124 -216 -213q-31 -25 -55 -36q-72 -44 -136 -59q-30 -6 -59 -6q-131 0 -243 126q-68 -133 -255 -133q-16 0 -33 1q-116 7 -187 75 q-66 62 -67 147q0 61 35 134l40 35l67 -20q-37 -66 -41 -119q-1 -8 -1 -16q0 -130 176 -148q19 -2 37 -2q141 0 176 125q12 42 12 155q0 26 -1 55q-3 158 -16 203t-83 117q-59 63 -133 63q-106 0 -241 -130q-150 -143 -258 -262q-1 -1 -9 -6l-6 -6q-11 -14 -20 -21 q0 -1 -2 -1q-59 -42 -69 -43q-20 1 -23 20z" />
<glyph unicode="y" horiz-adv-x="1449" d="M-35 324v4q0 33 36 76l15 18l18 15l126 180q192 273 272 273h4q36 9 65 9q141 0 152 -203q15 -310 26 -392q18 -132 105 -178q37 -20 81 -21q64 0 143 42q42 23 42 182v19l-8 542l113 -5l-19 -822q87 96 154 151q57 63 134 138l21 29q1 0 1 1q45 38 65 39q23 1 24 -25 q0 -22 -22 -70q0 -1 -2 -2l-24 -35l-142 -142l-221 -256q-3 -87 -3 -291q0 -153 1 -373q2 -203 2 -347q0 -216 -4 -297q-10 -143 -126 -175q-10 -3 -21 -3q-38 0 -96 28q-91 38 -155 211q-34 94 -45 230q-4 55 -4 109q0 501 362 935v171q-105 -80 -205 -80q-28 0 -56 6 q-216 49 -216 616q0 128 -53 158q-16 9 -34 9q-70 0 -168 -132l-150 -202l-4 -3l-70 -92q-11 -14 -20 -21q0 -1 -2 -1q-59 -42 -69 -43q-20 1 -23 20zM851 -1420q18 -40 38 -55q62 -39 99 -39q57 0 57 92q0 16 -2 33q0 46 -5 777q-3 328 -3 350v59q-273 -437 -273 -812 q0 -213 89 -405zM1141 -25l2 2q-2 -1 -2 -2z" />
<glyph unicode="z" horiz-adv-x="1137" d="M-96 -1341q-2 18 -1 37q0 126 70 310q154 404 636 871l171 165q0 75 -18 88q-24 18 -72 18q-35 0 -84 -10q-171 -35 -318 -187l-116 8l66 76l172 230q46 63 183 322q17 34 17 60q0 73 -132 90q-31 4 -54 4q-40 0 -55 -12q-128 -146 -172 -213q-64 -101 -133 -164l-4 -4 l-18 -15l-1 2q-44 -30 -53 -31q-20 0 -23 20v4q0 33 36 76l15 18l3 3q60 89 268 340q9 67 9 130q0 47 -5 92h67q25 -97 82 -135l192 -29l156 110l80 -32q1 -14 2 -42q-51 -48 -148 -123q2 -12 2 -25q0 -102 -96 -255l-123 -194q-64 -100 -93 -125q53 40 200 90q87 30 150 30 q34 0 61 -9q41 -43 42 -114q0 -7 -1 -14l66 66q57 70 143 153l17 19l6 7l11 16q1 0 2 1q45 38 65 39q22 1 22 -25q0 -22 -20 -70q0 -1 -2 -2l-24 -35l-131 -131l-3 -2q-119 -124 -142 -145q-10 -718 -384 -1341q-149 -247 -332 -247q-76 0 -158 42q-82 44 -96 194zM38 -1084 q-43 -142 -43 -234q0 -147 111 -162q17 -3 35 -3q218 0 441 533q146 345 194 740l19 155q-157 -138 -254 -252q-244 -291 -306 -387q-146 -228 -197 -390zM806 -23q-1 -1 0 -2v2z" />
<glyph unicode="{" horiz-adv-x="1231" d="M10 498q162 4 262 123q192 223 192 527q0 63 -8 129q-73 448 -73 732q0 50 2 95q8 157 98 202q132 66 251 66q31 0 61 -5l-179 -83q-118 -55 -118 -339q0 -227 75 -600q21 -102 21 -222q0 -131 -25 -283q-19 -122 -255 -321q228 -149 259 -400q25 -194 25 -403 q0 -432 -106 -924q-8 -37 -9 -68q0 -123 125 -164q66 -21 117 -22q25 0 46 5l-75 -94l-191 40q-138 30 -138 174q0 22 3 47q111 826 123 1042q1 21 1 41q0 283 -207 607q-64 98 -266 98h-11z" />
<glyph unicode="|" horiz-adv-x="707" d="M184 -1637v4177l71 13v-4190h-71z" />
<glyph unicode="}" horiz-adv-x="1247" d="M41 -1406l48 54h5q104 0 216 99q119 105 119 296q0 43 -6 90l-117 773q-20 167 -20 266q0 67 9 104q38 138 244 284q-152 196 -152 370q0 20 2 39q31 318 130 824q4 69 4 123q0 155 -34 198q-147 182 -336 182q-47 0 -97 -12l41 49q53 18 108 18q41 0 84 -9 q368 -89 368 -527q0 -30 -2 -62q-22 -385 -140 -784q-4 -49 -5 -92q0 -300 205 -334q-15 2 -30 2q-115 0 -189 -104q-41 -57 -67 -233l110 -907q23 -188 23 -312q0 -140 -30 -196q-75 -143 -450 -240z" />
<glyph unicode="~" horiz-adv-x="1133" d="M0 621q3 49 89 136t157 115l110 -16q78 -18 271 -332q38 -62 93 -62q68 0 162 95q86 89 93 140t19 125l120 4q-49 -351 -358 -467q-21 -8 -42 -8q-70 0 -145 82q-34 37 -136 210q-27 48 -144 113l-96 -12l-127 -150q-27 -17 -43 -17q-23 0 -23 37v7z" />
<glyph unicode="&#xa1;" horiz-adv-x="2398" d="M82 1150h180q-4 -123 183 -197l-131 -49q4 6 4 14q1 60 -236 232zM147 511l33 82q469 656 1348 655h33q317 -89 510 -377q49 -140 49 -247q0 -62 -16 -113q-173 -258 -298 -316q-119 -59 -409 -97q-101 -17 -223 -17q-241 0 -565 66q-310 122 -352 169.5t-110 194.5z M314 461l115 -147q355 -165 755 -165q215 0 442 48q266 102 412 248q17 86 17.5 172t-17.5 172q-295 376 -731 376q-181 0 -387 -65l-295 -196l17 49q-266 -135 -328 -393v-99zM478 1593l328 -296l-66 -147q-86 309 -262 443zM822 593q85 363 311 363q167 0 411 -200 q62 -127 62 -185q0 -63 -144 -208q-25 -52 -68 -65q-22 -7 -79 -7t-149 7q-74 -16 -126 -17q-66 0 -97 27q-55 47 -121 285zM1019 1659q-19 94 -19 131q0 24 8 24q7 0 21 -19q53 -74 203 -447h-66l-66 -17zM1051 609q-6 -20 -6 -37q0 -75 121 -78l49 82q-64 52 -93 55 q-3 0 -7 1q-27 0 -64 -23zM1479 1397l98 377l-33 -361zM1724 1297l249 542q-175 -218 -175 -261t57 -132q5 8 13 23.5t-29 -45.5q-20 -34 -33 -127h-82zM2006 1133l164 313l-99 -296z" />
<glyph unicode="&#xa2;" horiz-adv-x="1937" d="M295 699v148l278 98v26q0 212 82 418q66 162 167 196q86 28 172 28l254 -61q175 -85 278 -213q1 -9 1 -17q0 -76 -66 -131l-82 49q-173 200 -319 199q-120 0 -222 -134q-74 -119 -74 -257q0 -30 3 -60l366 88l-3 -158l-368 -102l5 -172l399 121l-66 -164l-322 -97 q-3 -15 -3 -30q0 -99 133 -209q90 -75 203 -75q177 0 411 181q82 64 168 246q24 -40 24 -86q0 -146 -237 -359q-164 -149 -429 -148q-23 0 -46 1q-194 8 -281 131q-91 79 -131 297l-262 -98v164l245 82l-8 180z" />
<glyph unicode="&#xa3;" horiz-adv-x="1247" d="M0 -12l27 82l111 15l-138 136l111 234l277 43l94 -84l124 110l109 -54l-28 -275l151 -69l-41 -99l-356 -39l-41 82l123 138l-82 69l-12 111l-209 -41l-41 -70l98 -110l12 -123l-122 -125h-99z" />
<glyph unicode="&#xa4;" horiz-adv-x="1668" d="M44 699v148l278 98v26q0 212 82 418q64 162 167 196q86 28 171 28q127 0 255 -61q173 -85 278 -213q1 -9 1 -17q0 -76 -66 -131l-82 49q-173 200 -319 199q-120 0 -222 -134q-75 -118 -75 -254q0 -31 4 -63l366 88l-3 -158l-368 -102l5 -172l399 121l-66 -164l-322 -97 q-3 -15 -3 -30q0 -99 131 -209q90 -75 204 -75q177 0 411 181q83 64 169 246q24 -39 24 -85q0 -146 -237 -360q-165 -149 -429 -148q-22 0 -46 1q-195 8 -281 131q-93 79 -131 297l-263 -98v164l246 82l-8 180z" />
<glyph unicode="&#xa5;" horiz-adv-x="1280" d="M0 470l27 177l140 138l262 -41l-15 -97l-206 -13l-56 -54l15 -69l110 -41l94 -123h111l83 69l-95 149l26 109l69 43l122 -29l57 -177l-110 -263h151v-81l-111 -82l-178 26l-82 110l-152 -110l-136 28l-85 123l44 44l123 -44l12 56z" />
<glyph unicode="&#xa7;" horiz-adv-x="1213" d="M177 853l80 37q-184 427 -184 696q0 334 283 425l144 -12q162 -78 210 -209l15 -238l-94 -16v29q0 340 -178 340h-15q-244 -16 -244 -297q0 -153 72 -383q90 -288 96 -292q139 -72 226 -213q152 -239 197 -414q29 -110 29 -189q0 -86 -34 -135q-86 -120 -179 -120 q-46 0 -93 30l229 -468q35 -106 35 -224q0 -44 -5 -90q-12 -115 -84 -205q-48 -61 -129 -66q-24 -2 -45 -1q-116 0 -185 49q-82 58 -122 200l38 117q71 -242 221 -242q11 0 22 2q177 20 177 184q0 99 -63 250q-184 434 -191 475q-371 444 -371 713q-1 167 142 267zM258 726 q-93 -70 -93 -177q0 -119 114 -284l184 -260q46 -20 84 -19q62 0 104 52q40 46 40 97q0 11 -2 23q-26 141 -113 286q-173 284 -247 308z" />
<glyph unicode="&#xa8;" horiz-adv-x="1329" d="M358 1262q0 34 71 68q15 8 32 7.5t36 -7.5q57 -22 67 -52q6 -18 6 -37q0 -35 -21 -71q-34 -59 -70 -59q-6 0 -12 2q-109 25 -109 149zM803 1223q7 101 90 118q5 1 10 1q47 0 96 -82q16 -28 16.5 -51.5t-16.5 -42.5q-40 -43 -87 -43q-16 0 -33 5q-77 22 -77 86q1 4 1 9z " />
<glyph unicode="&#xa9;" horiz-adv-x="2513" d="M101 -680q85 603 85 1061q-8 471 -85 1186l21 -483l-21 926l2269 41l21 -2672l-638 7l-446 2h-10q-33 1 -71 1q-353 0 -1125 -69zM363 -360q724 -66 993 -66q373 0 793 26l21 2268q-849 -103 -1542 -103q-124 0 -244 3q44 -532 43 -867q0 -117 -5 -209l-23 -438z" />
<glyph unicode="&#xaa;" horiz-adv-x="1242" d="M-35 324v4q0 33 36 76l15 18q63 55 80 86q3 4 24 16l4 2v26q12 131 105 233q89 100 197 135q31 10 65 11q91 0 201 -75l29 72h95l-4 -131q-21 -285 -20 -609v-41q0 -48 56 -61q194 53 356 266l21 29q1 0 1 1q45 38 66 39q22 1 21 -25l-30 -70q0 -1 -1 -2l-25 -35 q-97 -124 -215 -213q-46 -34 -74 -45q-30 -31 -173 -31q-75 0 -111 131q-64 -142 -195 -154q-17 -2 -33 -1q-112 0 -214 68q-67 87 -89 165q-23 85 -29 220l-45 -60q-11 -14 -20 -21q0 -1 -2 -1q-59 -42 -69 -43q-20 1 -23 20zM250 250q33 -135 100 -168q49 -24 110 -24 q25 0 52 3q137 76 157 204q29 180 29 323q0 94 -13 171q-96 63 -197 63q-15 0 -31 -1q-83 -10 -170 -141q-62 -95 -63 -234q0 -89 26 -196z" />
<glyph unicode="&#xab;" horiz-adv-x="1395" d="M266 431l23 67q270 206 607 398l69 -29v-82l-482 -287l-26 -69l571 -325l-50 -89q-172 86 -298 162zM760 441q411 398 501 398q5 0 9 -1l87 -11q-18 -51 -171 -180l-195 -149l-43 -53l361 -278q33 -41 33 -61q0 -10 -8 -13l-78 -41z" />
<glyph unicode="&#xad;" horiz-adv-x="1133" d="M97 613l53 96l836 -28l41 -41l-41 -98l-848 15z" />
<glyph unicode="&#xae;" horiz-adv-x="2857" d="M0 27q-18 89 -18 172t18 160l220 604q419 407 979 551q55 3 108 3q801 0 1239 -691l96 -537q1 -23 0 -45q0 -813 -673 -1231l-496 -111q-96 -10 -186 -10q-720 0 -1120 655zM248 388q-3 -49 -3 -101q0 -258 85 -574q339 -556 951 -633q40 -2 78 -3q641 0 939 662l138 482 v208q-240 789 -1032 880l-101 -8v-33q-76 8 -138 8q-101 0 -166 -21q-104 -33 -284 -196q-336 -267 -467 -671z" />
<glyph unicode="&#xb0;" horiz-adv-x="1264" d="M314 806q-17 41 -17 83q0 66 43 135q121 125 245 125q42 0 85 -14l99 -96q2 -26 2 -50q0 -213 -183 -309q-37 -10 -71 -10q-126 1 -203 136zM456 825q55 -53 102 -53q82 0 141 161q-77 109 -149 108q-22 0 -43 -10q-81 -70 -81 -133q0 -38 30 -73z" />
<glyph unicode="&#xb1;" horiz-adv-x="1200" d="M76 257l54 95l835 -27l41 -41l-41 -98l-848 15zM113 1025l465 3v359q30 32 61.5 32t65.5 -32l6 -359l291 -5q56 -34 56 -76q0 -26 -22 -54l-329 -4v-348q-30 -73 -63 -73q-30 0 -64 59l2 296l-13 75l-430 -2q-55 33 -55 71q0 28 29 58z" />
<glyph unicode="&#xb2;" d="M82 217l45 86q60 55 138 55q102 0 235 -93q370 324 369 773q0 112 -22 232q-35 180 -164 224q-63 21 -121 21q-62 0 -118 -24q-115 -48 -149 -227l-1 -101q47 -120 167 -119q31 0 66 7l-45 -84q-10 -18 -53 -18.5t-118 18.5q-105 26 -140 170q-13 53 -13 104 q0 122 75 227q106 150 220 169q61 10 115 10q352 0 414 -410q10 -69 10 -144q0 -228 -96 -513q-44 -130 -276 -389q45 -77 118 -77q44 0 98 28q172 87 215 184l71 -43l-54 -129q-124 -108 -253 -144q-62 -18 -109 -17q-49 0 -81 19l-101 90q-127 -87 -242 -87q-43 0 -85 12 q-118 35 -118 149q0 20 3 41zM213 142l55 -22q89 0 161 68l-33 24q-46 40 -104 40q-31 0 -65 -12q-45 -15 -46 -42q0 -24 32 -56z" />
<glyph unicode="&#xb3;" d="M180 1387q26 284 279 305q421 35 449 -364q5 -71 -14 -195q-25 -165 -196 -267l86 -54q167 -126 185 -312q37 -345 -214 -469q-216 -105 -392 -24q-90 41 -147 195q-25 66 22 179h83q-19 -14 1 -107q26 -120 99 -140q193 -53 303 41q116 97 112 233q-5 303 -317 387 l-112 5l52 142q176 10 258 109q70 85 48 276q-27 238 -263 227q-156 -8 -202 -164z" />
<glyph unicode="&#xb4;" horiz-adv-x="899" d="M251 1005q101 49 175 112q78 66 131 164q34 63 51 63q1 0 1 -1q89 -18 89 -67q0 -32 -37 -77q-115 -134 -355 -219z" />
<glyph unicode="&#xb5;" horiz-adv-x="1024" d="M4 326q0 129 48 234q45 109 128 191q175 175 423 175q122 0 234 -47q229 -104 318 -319q48 -105 48 -234t-48 -233q-89 -216 -318 -320q-112 -46 -233.5 -46t-234.5 46q-229 106 -317 320q-48 104 -48 233zM184 333q0 -177 123 -300t299 -123t299 123q126 126 126 299 t-125.5 298.5t-299 125.5t-299.5 -125q-123 -123 -123 -298zM294 307q0 126 90 219q89 91 217 91q127 0 218 -91q90 -93 90 -219q0 -127 -90 -217q-96 -90 -218 -90q-127 0 -217 90t-90 217zM380 300.5q0 -46.5 19 -90.5q33 -81 117 -117q41 -16 87.5 -16.5t85.5 16.5 q83 41 118 117q19 42 19 89q0 97 -67 157q-60 67 -156 67q-48 0 -87 -18q-81 -35 -117 -116q-19 -42 -19 -88.5zM445 299q0 66 46 112t111.5 46t111.5 -46t46 -112t-46 -111.5t-111.5 -45.5t-111.5 45.5t-46 111.5zM492 299q0 -48 32 -78q30 -33 78 -33t80.5 31.5t32.5 79.5 t-32.5 80.5t-80.5 32.5t-79 -32.5t-31 -80.5zM523 296q0 34 20 59q25 22 57 22t58 -22q22 -26 22 -58t-22 -57q-25 -20 -59 -20t-56 20q-20 22 -20 56zM547 306q0 -49 50 -49q22 0 36 13.5t14 35.5t-14.5 36t-35.5 14q-50 1 -50 -50z" />
<glyph unicode="&#xb6;" horiz-adv-x="2382" d="M0 126q217 59 381 144l217 114l-202 -208q85 -15 225 -15q175 0 436 23q393 34 448 197q25 75 25 139q0 174 -184 272l-184 67l26 82q344 -10 454 -373q13 -44 14 -88q0 -99 -68 -201q-239 -211 -789 -212q-175 0 -383 22l112 -175z" />
<glyph unicode="&#xb7;" horiz-adv-x="1757" d="M437 270q45 335 235 609q129 61 257.5 61t256.5 -61l238 -237q13 -58 13 -121q0 -136 -61 -297q-118 -237 -308 -237q-32 0 -66 6q-93 -23 -169 -23q-127 0 -208 65z" />
<glyph unicode="&#xb8;" horiz-adv-x="830" d="M348 -455l21 25q-4 -5 25 -5q38 0 133 9q68 21 68 102q0 14 -2 29q-54 48 -109 48l-88 -32l-33 264l98 31l-4 -210q26 21 69 21q40 0 95 -18q45 -27 53 -153q-5 -106 -180 -148l-98 17z" />
<glyph unicode="&#xb9;" d="M218 1059l420 639l127 -10l-15 -1665l-43 -39l-106 47q27 435 26 835q0 279 -13 540l-259 -407z" />
<glyph unicode="&#xba;" horiz-adv-x="1112" d="M-35 324v4q0 33 36 76l15 18q59 51 77 80q10 18 23 36q68 210 197 291q135 84 254 84q124 0 230 -91q123 -108 124 -266q0 -10 -1 -19q-7 -72 -24 -166q34 -23 71 -23q20 0 42 7l64 26q1 0 2 1q45 38 65 39q23 1 23 -25q0 -22 -22 -70q0 -1 -1 -2l-56 -32 q-46 -17 -109 -17q-49 0 -108 10q-60 -287 -354 -286q-20 0 -41 1q-209 12 -304 176q-56 94 -56 198q0 21 3 42l-36 -47q-11 -14 -20 -21l-2 -1q-59 -42 -69 -43q-20 1 -23 20zM516 85h9q200 0 264 239q-29 12 -72 23q-37 10 -86 87q-31 48 -31 102q0 43 20 89 q51 115 113 125q-73 69 -166 69q-52 0 -110 -22q-251 -96 -251 -383q0 -321 310 -329zM696 501q3 -83 123 -91l10 92q0 173 -35 174h-2q-96 -10 -96 -159v-16z" />
<glyph unicode="&#xbb;" horiz-adv-x="1395" d="M276 827q19 -51 172 -180l195 -149l42 -53l-360 -278q-33 -41 -33 -61q0 -10 8 -13l78 -41l496 389q-411 398 -501 398q-5 0 -8 -1q-44 13 -67 14q-24 0 -24 -15q0 -5 2 -10zM606 104l51 -89q172 86 297 162l414 254l-23 67q-269 206 -606 398l-70 -29v-82l482 -287 l26 -69z" />
<glyph unicode="&#xbc;" horiz-adv-x="2662" d="M218 1059l420 639l127 -10l-15 -1665l-43 -39l-106 47q27 435 26 835q0 279 -13 540l-259 -407zM901 0q218 470 606 1223l30 -11l52 11q-262 -612 -606 -1223l-49 -11zM1701 381q8 81 53 228q180 598 222 1065l136 19l-5 -93q-23 -386 -249 -1095l306 11l36 251l125 -5 l-27 -240l229 5l-9 -147l-223 1l-16 -337l5 -52l-150 -6l30 395l-333 -12z" />
<glyph unicode="&#xbd;" horiz-adv-x="2662" d="M218 1059l420 639l127 -10l-15 -1665l-43 -39l-106 47q27 435 26 835q0 279 -13 540l-259 -407zM901 0q218 470 606 1223l30 -11l52 11q-262 -612 -606 -1223l-49 -11zM1584 217l45 86q60 55 138 55q102 0 235 -93q370 324 369 773q0 112 -23 232q-35 180 -163 224 q-63 21 -121 21q-62 0 -118 -24q-115 -48 -149 -227l-2 -101q47 -120 168 -119q31 0 66 7l-45 -84q-10 -18 -53 -18.5t-118 18.5q-105 26 -140 170q-13 53 -13 104q0 122 75 227q106 150 220 169q61 10 115 10q352 0 414 -410q10 -69 10 -144q0 -228 -96 -513 q-44 -130 -276 -389q45 -77 118 -77q44 0 97 28q172 87 216 184l71 -43l-54 -129q-124 -108 -253 -144q-62 -18 -109 -17q-49 0 -81 19l-101 90q-127 -87 -242 -87q-43 0 -86 12q-118 35 -118 149q1 20 4 41zM1715 142l54 -22q89 0 162 68l-33 24q-46 40 -104 40 q-31 0 -65 -12q-45 -15 -46 -42q0 -24 32 -56z" />
<glyph unicode="&#xbe;" horiz-adv-x="2662" d="M180 1387q26 284 279 305q34 3 66 3q357 0 383 -367q1 -16 1 -34q0 -64 -15 -161q-25 -165 -196 -267l86 -54q167 -126 185 -312q5 -44 5 -85q0 -276 -219 -384q-122 -60 -232 -59q-84 0 -160 35q-90 41 -147 195q-9 23 -9 51q0 54 31 128h83q-9 -7 -9 -32q0 -27 10 -75 q26 -120 99 -140q70 -19 128 -19q104 0 175 60q112 94 112 224v9q-5 303 -317 387l-112 5l52 142q176 10 258 109q53 64 53 191q0 40 -5 85q-26 227 -242 227h-21q-156 -8 -202 -164zM901 0q218 470 606 1223l30 -11l52 11q-262 -612 -606 -1223l-49 -11zM1701 381 q8 81 53 228q180 598 222 1065l136 19l-5 -93q-23 -386 -249 -1095l306 11l36 251l125 -5l-27 -240l229 5l-9 -147l-223 1l-16 -337l5 -52l-150 -6l30 395l-333 -12z" />
<glyph unicode="&#xbf;" horiz-adv-x="756" d="M0 441l15 123l96 70h137l70 -70l-70 -220l41 -177l-81 -70l-123 82l82 303l-41 14l-58 -96zM400 511v110l96 66l260 -66l-68 -168l68 -245l-135 -126l-125 15l-55 70l29 259zM565 274l15 -41l54 28l-54 41z" />
<glyph unicode="&#xc0;" horiz-adv-x="1911" d="M-37 -27l37 49q201 7 352 101q306 191 471 992q-33 -37 -50 -47q-48 -31 -84 -32q-105 0 -113 267q40 120 93 158q51 37 195 50l78 736q75 296 175 297q57 0 123 -99q76 -116 76 -235q0 -12 -1 -24l-63 -950l98 -32q173 26 283 108l-86 -135q-91 -63 -318 -63v-108 q0 -407 93 -797q35 -146 155 -146q17 0 36 3q7 -1 13 -1q140 0 227 252q49 137 49 283q0 71 -12 144q-44 61 -81 61q-62 0 -105 -167l-56 13q10 63 28 116q46 144 165 145q40 0 89 -16q83 -49 83 -174v-8q-16 -707 -378 -751q-37 -4 -70 -4q-184 0 -233 137 q-115 318 -116 727q0 163 19 340q-56 48 -106 135q-27 49 -79 107q-8 -184 -30 -332q-78 -530 -276 -825q-132 -199 -363 -273q-41 -12 -128 -12q-77 0 -190 10zM658 1266q15 -122 61 -123q6 0 13 3q42 12 83 58q16 128 23 205q-164 -11 -180 -143zM967 1511l65 -64 l115 -146l8 81q52 511 52 872q0 16 -27 75q-21 47 -43 47q-27 0 -56 -69q-41 -98 -42 -166z" />
<glyph unicode="&#xc1;" horiz-adv-x="1911" d="M-37 -27l37 49q201 7 352 101q306 191 471 992q-33 -37 -50 -47q-48 -31 -84 -32q-105 0 -113 267q40 120 93 158q51 37 195 50l78 736q75 296 175 297q57 0 123 -99q76 -116 76 -235q0 -12 -1 -24l-63 -950l98 -32q173 26 283 108l-86 -135q-91 -63 -318 -63v-108 q0 -407 93 -797q35 -146 155 -146q17 0 36 3q7 -1 13 -1q140 0 227 252q49 137 49 283q0 71 -12 144q-44 61 -81 61q-62 0 -105 -167l-56 13q10 63 28 116q46 144 165 145q40 0 89 -16q83 -49 83 -174v-8q-16 -707 -378 -751q-37 -4 -70 -4q-184 0 -233 137 q-115 318 -116 727q0 163 19 340q-56 48 -106 135q-27 49 -79 107q-8 -184 -30 -332q-78 -530 -276 -825q-132 -199 -363 -273q-41 -12 -128 -12q-77 0 -190 10zM658 1266q15 -122 61 -123q6 0 13 3q42 12 83 58q16 128 23 205q-164 -11 -180 -143zM967 1511l65 -64 l115 -146l8 81q52 511 52 872q0 16 -27 75q-21 47 -43 47q-27 0 -56 -69q-41 -98 -42 -166z" />
<glyph unicode="&#xc2;" horiz-adv-x="1911" d="M-37 -27l37 49q201 7 352 101q306 191 471 992q-33 -37 -50 -47q-48 -31 -84 -32q-105 0 -113 267q40 120 93 158q51 37 195 50l78 736q75 296 175 297q57 0 123 -99q76 -116 76 -235q0 -12 -1 -24l-63 -950l98 -32q173 26 283 108l-86 -135q-91 -63 -318 -63v-108 q0 -407 93 -797q35 -146 155 -146q17 0 36 3q7 -1 13 -1q140 0 227 252q49 137 49 283q0 71 -12 144q-44 61 -81 61q-62 0 -105 -167l-56 13q10 63 28 116q46 144 165 145q40 0 89 -16q83 -49 83 -174v-8q-16 -707 -378 -751q-37 -4 -70 -4q-184 0 -233 137 q-115 318 -116 727q0 163 19 340q-56 48 -106 135q-27 49 -79 107q-8 -184 -30 -332q-78 -530 -276 -825q-132 -199 -363 -273q-41 -12 -128 -12q-77 0 -190 10zM658 1266q15 -122 61 -123q6 0 13 3q42 12 83 58q16 128 23 205q-164 -11 -180 -143zM967 1511l65 -64 l115 -146l8 81q52 511 52 872q0 16 -27 75q-21 47 -43 47q-27 0 -56 -69q-41 -98 -42 -166z" />
<glyph unicode="&#xc3;" horiz-adv-x="1911" d="M-37 -27l37 49q201 7 352 101q306 191 471 992q-33 -37 -50 -47q-48 -31 -84 -32q-105 0 -113 267q40 120 93 158q51 37 195 50l78 736q75 296 175 297q57 0 123 -99q76 -116 76 -235q0 -12 -1 -24l-63 -950l98 -32q173 26 283 108l-86 -135q-91 -63 -318 -63v-108 q0 -407 93 -797q35 -146 155 -146q17 0 36 3q7 -1 13 -1q140 0 227 252q49 137 49 283q0 71 -12 144q-44 61 -81 61q-62 0 -105 -167l-56 13q10 63 28 116q46 144 165 145q40 0 89 -16q83 -49 83 -174v-8q-16 -707 -378 -751q-37 -4 -70 -4q-184 0 -233 137 q-115 318 -116 727q0 163 19 340q-56 48 -106 135q-27 49 -79 107q-8 -184 -30 -332q-78 -530 -276 -825q-132 -199 -363 -273q-41 -12 -128 -12q-77 0 -190 10zM658 1266q15 -122 61 -123q6 0 13 3q42 12 83 58q16 128 23 205q-164 -11 -180 -143zM967 1511l65 -64 l115 -146l8 81q52 511 52 872q0 16 -27 75q-21 47 -43 47q-27 0 -56 -69q-41 -98 -42 -166z" />
<glyph unicode="&#xc4;" horiz-adv-x="1911" d="M-37 -27l37 49q201 7 352 101q306 191 471 992q-33 -37 -50 -47q-48 -31 -84 -32q-105 0 -113 267q40 120 93 158q51 37 195 50l78 736q75 296 175 297q57 0 123 -99q76 -116 76 -235q0 -12 -1 -24l-63 -950l98 -32q173 26 283 108l-86 -135q-91 -63 -318 -63v-108 q0 -407 93 -797q35 -146 155 -146q17 0 36 3q7 -1 13 -1q140 0 227 252q49 137 49 283q0 71 -12 144q-44 61 -81 61q-62 0 -105 -167l-56 13q10 63 28 116q46 144 165 145q40 0 89 -16q83 -49 83 -174v-8q-16 -707 -378 -751q-37 -4 -70 -4q-184 0 -233 137 q-115 318 -116 727q0 163 19 340q-56 48 -106 135q-27 49 -79 107q-8 -184 -30 -332q-78 -530 -276 -825q-132 -199 -363 -273q-41 -12 -128 -12q-77 0 -190 10zM658 1266q15 -122 61 -123q6 0 13 3q42 12 83 58q16 128 23 205q-164 -11 -180 -143zM967 1511l65 -64 l115 -146l8 81q52 511 52 872q0 16 -27 75q-21 47 -43 47q-27 0 -56 -69q-41 -98 -42 -166z" />
<glyph unicode="&#xc5;" horiz-adv-x="1911" d="M-37 -27l37 49q201 7 352 101q306 191 471 992q-33 -37 -50 -47q-48 -31 -84 -32q-105 0 -113 267q40 120 93 158q51 37 195 50l78 736q75 296 175 297q57 0 123 -99q76 -116 76 -235q0 -12 -1 -24l-63 -950l98 -32q173 26 283 108l-86 -135q-91 -63 -318 -63v-108 q0 -407 93 -797q35 -146 155 -146q17 0 36 3q7 -1 13 -1q140 0 227 252q49 137 49 283q0 71 -12 144q-44 61 -81 61q-62 0 -105 -167l-56 13q10 63 28 116q46 144 165 145q40 0 89 -16q83 -49 83 -174v-8q-16 -707 -378 -751q-37 -4 -70 -4q-184 0 -233 137 q-115 318 -116 727q0 163 19 340q-56 48 -106 135q-27 49 -79 107q-8 -184 -30 -332q-78 -530 -276 -825q-132 -199 -363 -273q-41 -12 -128 -12q-77 0 -190 10zM658 1266q15 -122 61 -123q6 0 13 3q42 12 83 58q16 128 23 205q-164 -11 -180 -143zM967 1511l65 -64 l115 -146l8 81q52 511 52 872q0 16 -27 75q-21 47 -43 47q-27 0 -56 -69q-41 -98 -42 -166z" />
<glyph unicode="&#xc6;" horiz-adv-x="2366" d="M-37 8l37 45h18q207 0 353 89q156 89 263 299q72 105 189 616q-54 -61 -104 -61q-41 0 -80 42q-66 68 -66 151q0 20 3 40q41 111 93 143.5t195 47.5l78 676q49 176 154 225q22 12 45 12q48 0 99 -56q76 -123 76 -220q0 -10 -1 -19l-63 -871l98 -28q176 25 283 98 l-86 -124q-91 -57 -318 -58v-98q-9 -83 -9 -166q0 -284 102 -566q16 -75 49 -101q43 -36 100 -35q20 0 42 4q33 8 52 5q68 40 125 88q55 49 95 152.5t43 196.5v22q0 81 -13 160q-26 46 -84 46q-14 0 -28 -3q-99 -42 -99 -128v-14l-56 13q10 56 27 105.5t63 101.5q20 5 82 19 q28 6 52 7q30 0 58 -9q86 -45 86 -133q0 -16 -3 -34q1 -29 1 -58q0 -464 -379 -630q-218 0 -268 74q-10 20 -35 48q-114 312 -115 682q0 144 18 296q-34 23 -58 56l-48 70q-38 60 -90 113q-29 -202 -47 -312q-91 -556 -268 -758q-115 -115 -171 -157t-172 -83 q-79 -21 -318 -21zM658 1195q8 -63 30 -95q25 -26 44 -16q34 4 83 55q15 117 23 187q-164 -8 -180 -131zM831 1898v194h74q49 -292 220 -407q221 471 700 540q59 7 113 8q351 0 453 -305q1 -26 1 -52q0 -419 -403 -556q-209 -17 -324 -16q-36 0 -63 1q-124 8 -370 135 q-1 -14 -1 -26q0 -160 76 -286q202 137 384 136q173 0 328 -123l-30 -118l-221 -133q-96 -26 -195 -25q-123 0 -251 39q-117 -106 -119 -247q-4 -27 -4 -54q0 -95 49 -188q76 -169 266 -224q128 -60 254 -60q89 0 178 30q261 11 385 194l60 150q3 23 2 44q0 143 -121 206 h-179l15 75q82 21 172 21q47 0 96 -6q122 -89 150 -252q-42 -269 -212 -402q-171 -128 -489 -161q-51 -4 -98 -4q-534 0 -688 522q-2 32 -2 62q0 264 180 444l-103 178q-27 86 -26 180q0 66 12 135q-184 126 -269 351zM958 1420l54 -55q97 -102 142 -138l8 74q45 406 45 800 q0 15 -27 70q-19 35 -35 34q-8 0 -16 -10q-61 -7 -78 -34l-1 1q-10 0 -18 -165zM1249 1558v14q183 -122 425 -149q51 -6 99 -6q180 0 320 81q102 60 130 105q31 46 53 145q1 9 1 18q0 80 -61 230q-149 126 -314 126q-216 0 -457 -216q-158 -162 -196 -348zM1438 1001 q66 -34 114 -47q32 -8 68 -9q19 0 39 3q115 19 203 131l-37 62q-43 31 -102 32q-92 0 -224 -77q-72 -33 -72 -68q0 -13 11 -27z" />
<glyph unicode="&#xc7;" horiz-adv-x="1960" d="M124 2357v94l103 13q4 -296 82 -397q145 -188 346 -251l213 298q224 261 627 363q111 28 195 28t141 -28q177 -86 177 -274q0 -97 -47 -221q-169 -445 -699 -444q-176 0 -391 49l-147 47q-117 -278 -117 -539q0 -334 190 -640q208 -330 482 -331q117 0 245 60 q267 124 267 435q0 17 -1 34q-8 184 -183 200l-29 2q-157 0 -263 -163l-64 -132l-69 89q79 350 393 350q42 0 88 -6q153 -20 212 -185q40 -111 39 -214q0 -250 -235 -453q-130 -109 -267 -123q-82 -8 -152 -8q-186 0 -288 56q-177 98 -333 360q-130 218 -153 524 q-6 83 -5 161q0 346 109 586q-141 42 -310 219q-119 124 -156 441zM796 1754l72 -28q194 -77 374.5 -77t346.5 77q133 61 204.5 185t71.5 305q0 143 -214 143q-46 0 -103 -7q-154 -18 -404 -181q-150 -100 -348 -417zM1181 -425l20 25q-4 -5 26 -5q38 0 133 9q68 21 67 102 q0 14 -2 29q-54 48 -108 48l-88 -31l-33 263l98 31l-4 -210q26 21 69 21q40 0 95 -18q45 -27 53 -153q-5 -106 -180 -147l-98 16z" />
<glyph unicode="&#xc8;" horiz-adv-x="1616" d="M-66 2228l31 99h76q51 -326 229 -456q229 528 728 606q85 13 158 13q375 0 431 -346q12 -74 11 -140q0 -400 -429 -542q-100 -33 -221 -33q-86 0 -182 17q-167 29 -385 151q-1 -28 -1 -54q0 -289 95 -414q184 108 262 120q80 13 143 13q240 0 240 -180v-23 q-14 -187 -241 -218q-25 -3 -52 -3q-143 0 -348 96q-94 -127 -108 -265q-4 -39 -4 -75q0 -290 264 -397q138 -55 290 -55q94 0 193 20q410 87 445 345q16 40 16 75q0 104 -135 174h-178l15 75q119 30 190 31q51 0 77 -15q151 -86 152 -227q0 -13 -2 -26q-25 -258 -211 -400 q-177 -134 -489 -163q-71 -6 -136 -6q-587 0 -650 524q-5 41 -5 80q0 230 170 407l-82 144q-67 149 -68 327q0 89 17 186q-306 247 -306 525v10zM399 1729v15q194 -138 443 -168q51 -6 100 -7q188 0 335 93q167 105 189 280q7 46 7 86q0 126 -68 192q-155 146 -327 146 q-224 0 -476 -247q-154 -150 -203 -390zM561 1020q85 -48 160 -64q69 -15 123 -15q137 0 172 95l-8 58q-16 51 -94 50q-71 0 -193 -42q-86 -33 -160 -82z" />
<glyph unicode="&#xc9;" horiz-adv-x="1616" d="M-66 2228l31 99h76q51 -326 229 -456q229 528 728 606q85 13 158 13q375 0 431 -346q12 -74 11 -140q0 -400 -429 -542q-100 -33 -221 -33q-86 0 -182 17q-167 29 -385 151q-1 -28 -1 -54q0 -289 95 -414q184 108 262 120q80 13 143 13q240 0 240 -180v-23 q-14 -187 -241 -218q-25 -3 -52 -3q-143 0 -348 96q-94 -127 -108 -265q-4 -39 -4 -75q0 -290 264 -397q138 -55 290 -55q94 0 193 20q410 87 445 345q16 40 16 75q0 104 -135 174h-178l15 75q119 30 190 31q51 0 77 -15q151 -86 152 -227q0 -13 -2 -26q-25 -258 -211 -400 q-177 -134 -489 -163q-71 -6 -136 -6q-587 0 -650 524q-5 41 -5 80q0 230 170 407l-82 144q-67 149 -68 327q0 89 17 186q-306 247 -306 525v10zM399 1729v15q194 -138 443 -168q51 -6 100 -7q188 0 335 93q167 105 189 280q7 46 7 86q0 126 -68 192q-155 146 -327 146 q-224 0 -476 -247q-154 -150 -203 -390zM561 1020q85 -48 160 -64q69 -15 123 -15q137 0 172 95l-8 58q-16 51 -94 50q-71 0 -193 -42q-86 -33 -160 -82z" />
<glyph unicode="&#xca;" horiz-adv-x="1616" d="M-66 2228l31 99h76q51 -326 229 -456q229 528 728 606q85 13 158 13q375 0 431 -346q12 -74 11 -140q0 -400 -429 -542q-100 -33 -221 -33q-86 0 -182 17q-167 29 -385 151q-1 -28 -1 -54q0 -289 95 -414q184 108 262 120q80 13 143 13q240 0 240 -180v-23 q-14 -187 -241 -218q-25 -3 -52 -3q-143 0 -348 96q-94 -127 -108 -265q-4 -39 -4 -75q0 -290 264 -397q138 -55 290 -55q94 0 193 20q410 87 445 345q16 40 16 75q0 104 -135 174h-178l15 75q119 30 190 31q51 0 77 -15q151 -86 152 -227q0 -13 -2 -26q-25 -258 -211 -400 q-177 -134 -489 -163q-71 -6 -136 -6q-587 0 -650 524q-5 41 -5 80q0 230 170 407l-82 144q-67 149 -68 327q0 89 17 186q-306 247 -306 525v10zM399 1729v15q194 -138 443 -168q51 -6 100 -7q188 0 335 93q167 105 189 280q7 46 7 86q0 126 -68 192q-155 146 -327 146 q-224 0 -476 -247q-154 -150 -203 -390zM561 1020q85 -48 160 -64q69 -15 123 -15q137 0 172 95l-8 58q-16 51 -94 50q-71 0 -193 -42q-86 -33 -160 -82z" />
<glyph unicode="&#xcb;" horiz-adv-x="1616" d="M-66 2228l31 99h76q51 -326 229 -456q229 528 728 606q85 13 158 13q375 0 431 -346q12 -74 11 -140q0 -400 -429 -542q-100 -33 -221 -33q-86 0 -182 17q-167 29 -385 151q-1 -28 -1 -54q0 -289 95 -414q184 108 262 120q80 13 143 13q240 0 240 -180v-23 q-14 -187 -241 -218q-25 -3 -52 -3q-143 0 -348 96q-94 -127 -108 -265q-4 -39 -4 -75q0 -290 264 -397q138 -55 290 -55q94 0 193 20q410 87 445 345q16 40 16 75q0 104 -135 174h-178l15 75q119 30 190 31q51 0 77 -15q151 -86 152 -227q0 -13 -2 -26q-25 -258 -211 -400 q-177 -134 -489 -163q-71 -6 -136 -6q-587 0 -650 524q-5 41 -5 80q0 230 170 407l-82 144q-67 149 -68 327q0 89 17 186q-306 247 -306 525v10zM399 1729v15q194 -138 443 -168q51 -6 100 -7q188 0 335 93q167 105 189 280q7 46 7 86q0 126 -68 192q-155 146 -327 146 q-224 0 -476 -247q-154 -150 -203 -390zM561 1020q85 -48 160 -64q69 -15 123 -15q137 0 172 95l-8 58q-16 51 -94 50q-71 0 -193 -42q-86 -33 -160 -82z" />
<glyph unicode="&#xcc;" horiz-adv-x="1165" d="M-27 408q0 193 149 266q10 4 217 77h54l15 -71q-278 -110 -278 -284q0 -82 61 -178l131 -92q101 -22 185 -22q399 0 421 491l-28 1420q-81 -28 -159 -27q-60 0 -118 16q-116 -255 -284 -325q-51 -20 -107.5 -20t-118.5 20v84l153 23q176 27 242 246q-202 86 -227 251 q-4 28 -4 53q0 126 97 186q33 6 62 6q220 0 219 -361v-15l164 -6l99 66q3 63 38 147q26 61 26 89q0 11 -4 16l124 14q-37 -102 -37 -305.5t-8 -535.5v-19q0 -22 3 -167t6 -395t3 -526q0 -246 -206 -426q-128 -112 -397 -112q-72 0 -155 8q-217 22 -311 287zM408 2352 q-2 -14 -1 -26q0 -91 76 -143l54 -12q2 24 1 44q0 155 -90 156q-10 0 -21 -2z" />
<glyph unicode="&#xcd;" horiz-adv-x="1165" d="M-27 408q0 193 149 266q10 4 217 77h54l15 -71q-278 -110 -278 -284q0 -82 61 -178l131 -92q101 -22 185 -22q399 0 421 491l-28 1420q-81 -28 -159 -27q-60 0 -118 16q-116 -255 -284 -325q-51 -20 -107.5 -20t-118.5 20v84l153 23q176 27 242 246q-202 86 -227 251 q-4 28 -4 53q0 126 97 186q33 6 62 6q220 0 219 -361v-15l164 -6l99 66q3 63 38 147q26 61 26 89q0 11 -4 16l124 14q-37 -102 -37 -305.5t-8 -535.5v-19q0 -22 3 -167t6 -395t3 -526q0 -246 -206 -426q-128 -112 -397 -112q-72 0 -155 8q-217 22 -311 287zM408 2352 q-2 -14 -1 -26q0 -91 76 -143l54 -12q2 24 1 44q0 155 -90 156q-10 0 -21 -2z" />
<glyph unicode="&#xce;" horiz-adv-x="1165" d="M-27 408q0 193 149 266q10 4 217 77h54l15 -71q-278 -110 -278 -284q0 -82 61 -178l131 -92q101 -22 185 -22q399 0 421 491l-28 1420q-81 -28 -159 -27q-60 0 -118 16q-116 -255 -284 -325q-51 -20 -107.5 -20t-118.5 20v84l153 23q176 27 242 246q-202 86 -227 251 q-4 28 -4 53q0 126 97 186q33 6 62 6q220 0 219 -361v-15l164 -6l99 66q3 63 38 147q26 61 26 89q0 11 -4 16l124 14q-37 -102 -37 -305.5t-8 -535.5v-19q0 -22 3 -167t6 -395t3 -526q0 -246 -206 -426q-128 -112 -397 -112q-72 0 -155 8q-217 22 -311 287zM408 2352 q-2 -14 -1 -26q0 -91 76 -143l54 -12q2 24 1 44q0 155 -90 156q-10 0 -21 -2z" />
<glyph unicode="&#xcf;" horiz-adv-x="1165" d="M-27 408q0 193 149 266q10 4 217 77h54l15 -71q-278 -110 -278 -284q0 -82 61 -178l131 -92q101 -22 185 -22q399 0 421 491l-28 1420q-81 -28 -159 -27q-60 0 -118 16q-116 -255 -284 -325q-51 -20 -107.5 -20t-118.5 20v84l153 23q176 27 242 246q-202 86 -227 251 q-4 28 -4 53q0 126 97 186q33 6 62 6q220 0 219 -361v-15l164 -6l99 66q3 63 38 147q26 61 26 89q0 11 -4 16l124 14q-37 -102 -37 -305.5t-8 -535.5v-19q0 -22 3 -167t6 -395t3 -526q0 -246 -206 -426q-128 -112 -397 -112q-72 0 -155 8q-217 22 -311 287zM408 2352 q-2 -14 -1 -26q0 -91 76 -143l54 -12q2 24 1 44q0 155 -90 156q-10 0 -21 -2z" />
<glyph unicode="&#xd1;" horiz-adv-x="1968" d="M-41 31l27 73q57 -20 117 -20q154 0 318 134q172 141 251 414q236 814 261 1603q4 117 110 152q23 7 43 7q126 0 141 -285q17 -333 18 -507q0 -44 -1 -77l11 -319q-4 -89 -4 -192q0 -330 43 -796q53 -95 96 -94.5t76 94.5q205 580 205 1623q0 84 -1 170v18q0 342 207 409 q93 30 172 31q225 0 325 -250q34 -84 34 -174q0 -151 -95 -321q-107 -189 -220 -189q-23 0 -46 8q-93 31 -134 199q-6 25 -6 49q0 86 81 159q48 14 76 13q36 0 36 -23q0 -17 -19 -48q-59 -92 -59 -111q0 -55 31 -90.5t52 -35.5q28 0 62 37q124 137 124 308q0 29 -4 59 q-32 269 -228 269q-13 0 -27 -1q-212 -19 -222 -299q-53 -1633 -286 -1950q-82 -111 -161 -111q-80 0 -156 115q-77 116 -77 900v108q1 81 1 158q0 466 -21 827q-7 118 -32 118q-6 0 -13 -7q-32 -30 -32 -69q0 -12 3 -24q-16 -505 -97 -916q-124 -638 -252 -825 q-236 -349 -496 -349q-27 0 -53 4zM1073 2564l62 98q34 75 180 99q22 4 41 3q71 0 98 -52l81 -117q61 -56 110 -55q77 0 124 135l81 -25q-49 -184 -167 -201q-32 -4 -59 -4q-146 0 -194 119q-37 90 -127 90q-93 0 -140 -140z" />
<glyph unicode="&#xd2;" horiz-adv-x="1581" d="M33 829q-15 190 -16 346q0 496 155 659q159 176 248 175q23 0 41 -12q35 191 163 355q116 113 201 114q9 0 19 -2q69 11 133 12q389 0 589 -413q86 -201 102 -479q5 -86 6 -168q0 -869 -580 -1312q-109 -87 -366 -94q-605 86 -695 819zM137 1161q-4 -70 -4 -136 q0 -736 480 -876q86 -25 166 -25q396 0 640 615q70 175 118 606q12 101 12 194q0 542 -397 775q-48 28 -141 28q-59 0 -137 -11q-199 -29 -266 -263q-36 -126 -36 -256q0 -100 21 -204q26 -128 88 -147q57 -17 104 -17q115 0 169 100l96 161q71 0 71 -74q0 -46 -27 -121 q-48 -130 -278 -198q-30 -9 -59 -9q-132 0 -265 174q-51 136 -51 266q0 48 7 96l-60 32q-165 -135 -195 -301q-48 -263 -56 -409zM646 2763l38 70l60 -37q52 -108 115 -174.5t221 -116.5q13 -4 13 -8q0 -11 -115 -20q-11 -1 -22 -1q-199 -1 -310 287z" />
<glyph unicode="&#xd3;" horiz-adv-x="1581" d="M33 829q-15 190 -16 346q0 496 155 659q159 176 248 175q23 0 41 -12q35 191 163 355q116 113 201 114q9 0 19 -2q69 11 133 12q389 0 589 -413q86 -201 102 -479q5 -86 6 -168q0 -869 -580 -1312q-109 -87 -366 -94q-605 86 -695 819zM137 1161q-4 -70 -4 -136 q0 -736 480 -876q86 -25 166 -25q396 0 640 615q70 175 118 606q12 101 12 194q0 542 -397 775q-48 28 -141 28q-59 0 -137 -11q-199 -29 -266 -263q-36 -126 -36 -256q0 -100 21 -204q26 -128 88 -147q57 -17 104 -17q115 0 169 100l96 161q71 0 71 -74q0 -46 -27 -121 q-48 -130 -278 -198q-30 -9 -59 -9q-132 0 -265 174q-51 136 -51 266q0 48 7 96l-60 32q-165 -135 -195 -301q-48 -263 -56 -409zM923 2501q101 49 175 112q78 66 131 164q34 63 50 63h2q89 -18 89 -68q0 -32 -37 -77q-115 -134 -355 -218z" />
<glyph unicode="&#xd4;" horiz-adv-x="1581" d="M33 829q-15 190 -16 346q0 496 155 659q159 176 248 175q23 0 41 -12q35 191 163 355q116 113 201 114q9 0 19 -2q69 11 133 12q389 0 589 -413q86 -201 102 -479q5 -86 6 -168q0 -869 -580 -1312q-109 -87 -366 -94q-605 86 -695 819zM137 1161q-4 -70 -4 -136 q0 -736 480 -876q86 -25 166 -25q396 0 640 615q70 175 118 606q12 101 12 194q0 542 -397 775q-48 28 -141 28q-59 0 -137 -11q-199 -29 -266 -263q-36 -126 -36 -256q0 -100 21 -204q26 -128 88 -147q57 -17 104 -17q115 0 169 100l96 161q71 0 71 -74q0 -46 -27 -121 q-48 -130 -278 -198q-30 -9 -59 -9q-132 0 -265 174q-51 136 -51 266q0 48 7 96l-60 32q-165 -135 -195 -301q-48 -263 -56 -409zM595 2505q141 131 373 444q15 3 28 3q28 0 50 -14q40 -149 285 -404q27 -27 27 -41.5t-27 -15.5h-4q-52 0 -162 103l-202 192 q-189 -214 -368 -267z" />
<glyph unicode="&#xd5;" horiz-adv-x="1581" d="M33 829q-15 190 -16 346q0 496 155 659q159 176 248 175q23 0 41 -12q35 191 163 355q116 113 201 114q9 0 19 -2q69 11 133 12q389 0 589 -413q86 -201 102 -479q5 -86 6 -168q0 -869 -580 -1312q-109 -87 -366 -94q-605 86 -695 819zM137 1161q-4 -70 -4 -136 q0 -736 480 -876q86 -25 166 -25q396 0 640 615q70 175 118 606q12 101 12 194q0 542 -397 775q-48 28 -141 28q-59 0 -137 -11q-199 -29 -266 -263q-36 -126 -36 -256q0 -100 21 -204q26 -128 88 -147q57 -17 104 -17q115 0 169 100l96 161q71 0 71 -74q0 -46 -27 -121 q-48 -130 -278 -198q-30 -9 -59 -9q-132 0 -265 174q-51 136 -51 266q0 48 7 96l-60 32q-165 -135 -195 -301q-48 -263 -56 -409zM588 2594l62 98q34 75 180 99q22 4 41 3q71 0 98 -52l81 -116q61 -56 111 -56q77 0 124 135l80 -25q-49 -184 -166 -201q-32 -4 -60 -4 q-146 0 -194 119q-37 90 -127 90q-93 0 -139 -140z" />
<glyph unicode="&#xd6;" horiz-adv-x="1581" d="M33 829q-15 190 -16 346q0 496 155 659q159 176 248 175q23 0 41 -12q35 191 163 355q116 113 201 114q9 0 19 -2q69 11 133 12q389 0 589 -413q86 -201 102 -479q5 -86 6 -168q0 -869 -580 -1312q-109 -87 -366 -94q-605 86 -695 819zM137 1161q-4 -70 -4 -136 q0 -736 480 -876q86 -25 166 -25q396 0 640 615q70 175 118 606q12 101 12 194q0 542 -397 775q-48 28 -141 28q-59 0 -137 -11q-199 -29 -266 -263q-36 -126 -36 -256q0 -100 21 -204q26 -128 88 -147q57 -17 104 -17q115 0 169 100l96 161q71 0 71 -74q0 -46 -27 -121 q-48 -130 -278 -198q-30 -9 -59 -9q-132 0 -265 174q-51 136 -51 266q0 48 7 96l-60 32q-165 -135 -195 -301q-48 -263 -56 -409zM647 2626q0 34 71 68q15 8 32 7.5t36 -7.5q57 -22 67 -52q6 -18 6 -37q0 -35 -21 -71q-34 -59 -70 -59q-6 0 -12 2q-109 25 -109 149z M1092 2587q7 101 90 118q5 1 10 1q47 0 97 -82q16 -28 16 -51.5t-16 -42.5q-40 -43 -88 -43q-16 0 -32 5q-77 22 -77 86v9z" />
<glyph unicode="&#xd8;" horiz-adv-x="3284" d="M-58 -1272q28 0 65 -2q39 -10 86 -10q138 0 352 85q-168 167 -233 287q-47 86 -47 160q0 29 7 57q-1 12 -1 25q-1 14 -1 27q0 337 464 352q264 -54 264 -348q0 -101 -31 -229l-191 -324q289 -89 427 -89q27 0 48 3q113 3 343 119q-248 277 -248 595q0 30 2 62 q12 93 192 211q39 3 75 4q152 0 259 -61q233 -73 233 -263q0 -153 -152 -383l-136 -182q85 -122 151 -130q41 -5 106 -5q40 0 88 2q231 18 271 23q52 8 114 75l-120 220q-63 140 -63 205q0 11 2 20q85 373 370 459q60 5 111 5q241 0 285 -112l82 -274q-14 -220 -68.5 -306.5 t-320.5 -265.5q165 -71 340 -71q26 0 53 1q8 -1 17 -1q67 0 205 53q339 -20 347 -52q11 -30 -299 -78l-512 -12l-232 40l-137 69q-210 -118 -419 -117h-19q-35 -4 -68 -4q-226 0 -395 168q-367 -124 -526 -124.5t-480 91.5l-194 -83q-178 -45 -315 -46q-49 0 -93 6 q-150 95 -150 125q0 23 92 23zM304 -814q35 -45 86 -93l147 -142l64 -16l16 16l63 100q22 45 37 85q40 105 40 176q0 157 -191 157h-18l-122 -56q-44 -18 -71 -38q-48 -31 -49 -88q-19 -29 -19 -54t17 -47zM1543 -950l78 -131l50 49l103 135q60 148 59 240q0 153 -164 153 q-38 0 -84 -8q-157 -29 -157 -155q1 -106 115 -283zM2400 -601q-8 -14 -8 -38q0 -85 101 -295q12 -93 32 -122t107 -75q122 34 246 115q116 144 116 250q0 145 -218 217q-45 1 -85 1q-256 0 -291 -53z" />
<glyph unicode="&#xd9;" horiz-adv-x="2106" d="M87 2217q95 259 318 259q13 0 26 -1q171 -11 171 -400v-19q-14 -1350 -15 -1356l22 -460q1 -4 1 -7q0 -94 87 -93q31 0 73 12q270 75 541 385q13 570 13 1470q0 225 -1 471l30 4l93 -18q-9 -41 -9 -191q0 -139 8 -371q3 -82 2 -179q0 -194 -11 -446l10 -925 q21 -224 226 -224h10q228 68 255 237q8 47 8 89q0 145 -92 223q-48 41 -86 41q-78 0 -112 -173l-85 30q7 134 57 165q148 92 242 92q95 0 133 -95q74 -184 73 -325q0 -352 -463 -426l-96 14q-156 45 -193 375q-412 -352 -624 -375q-16 -2 -30 -2q-137 0 -182 149 q-26 86 -27 826q0 295 15 1065v6v30q0 284 -90 284q-62 0 -167 -133l-68 -289q10 -174 88 -174q17 0 38 9l82 120q14 10 22 10q22 1 4 -55q-44 -138 -97 -180q-49 -40 -87 -40q-31 0 -55 26q-111 122 -111 297q-1 121 53 268zM754 2675l38 69l60 -37q52 -108 114.5 -174.5 t221.5 -115.5q13 -4 13 -8q0 -11 -116 -21q-11 -1 -21 -1q-199 0 -310 288z" />
<glyph unicode="&#xda;" horiz-adv-x="2106" d="M87 2217q95 259 318 259q13 0 26 -1q171 -11 171 -400v-19q-14 -1350 -15 -1356l22 -460q1 -4 1 -7q0 -94 87 -93q31 0 73 12q270 75 541 385q13 570 13 1470q0 225 -1 471l30 4l93 -18q-9 -41 -9 -191q0 -139 8 -371q3 -82 2 -179q0 -194 -11 -446l10 -925 q21 -224 226 -224h10q228 68 255 237q8 47 8 89q0 145 -92 223q-48 41 -86 41q-78 0 -112 -173l-85 30q7 134 57 165q148 92 242 92q95 0 133 -95q74 -184 73 -325q0 -352 -463 -426l-96 14q-156 45 -193 375q-412 -352 -624 -375q-16 -2 -30 -2q-137 0 -182 149 q-26 86 -27 826q0 295 15 1065v6v30q0 284 -90 284q-62 0 -167 -133l-68 -289q10 -174 88 -174q17 0 38 9l82 120q14 10 22 10q22 1 4 -55q-44 -138 -97 -180q-49 -40 -87 -40q-31 0 -55 26q-111 122 -111 297q-1 121 53 268zM752 2124q101 49 175 112q78 66 131 164 q34 63 51 63h1q89 -18 89 -68q0 -32 -37 -77q-115 -134 -355 -218z" />
<glyph unicode="&#xdb;" horiz-adv-x="233" d="M0 -109l56 2029l55 57l97 -57q25 -363 25 -727q0 -650 -81 -1302l84 -538v-496l-56 -57l-110 110q28 174 27 345q0 322 -97 636z" />
<glyph unicode="&#xdc;" horiz-adv-x="2106" d="M87 2217q95 259 318 259q13 0 26 -1q171 -11 171 -400v-19q-14 -1350 -15 -1356l22 -460q1 -4 1 -7q0 -94 87 -93q31 0 73 12q270 75 541 385q13 570 13 1470q0 225 -1 471l30 4l93 -18q-9 -41 -9 -191q0 -139 8 -371q3 -82 2 -179q0 -194 -11 -446l10 -925 q21 -224 226 -224h10q228 68 255 237q8 47 8 89q0 145 -92 223q-48 41 -86 41q-78 0 -112 -173l-85 30q7 134 57 165q148 92 242 92q95 0 133 -95q74 -184 73 -325q0 -352 -463 -426l-96 14q-156 45 -193 375q-412 -352 -624 -375q-16 -2 -30 -2q-137 0 -182 149 q-26 86 -27 826q0 295 15 1065v6v30q0 284 -90 284q-62 0 -167 -133l-68 -289q10 -174 88 -174q17 0 38 9l82 120q14 10 22 10q22 1 4 -55q-44 -138 -97 -180q-49 -40 -87 -40q-31 0 -55 26q-111 122 -111 297q-1 121 53 268zM647 2414q0 26 63 51q27 11 61 0q51 -16 59 -38 q5 -14 5 -28q0 -26 -18 -53q-30 -44 -63 -45q-5 0 -10 2q-97 18 -97 111zM1122 2474q4 1 9 0q42 0 86 -61q15 -21 14.5 -38.5t-14.5 -31.5q-35 -32 -78 -33q-14 0 -29 4q-68 16 -68 65q0 82 80 95z" />
<glyph unicode="&#xdd;" horiz-adv-x="1809" d="M29 1749q-7 58 -7 112q0 351 297 550q70 30 134 30q101 0 186 -76q138 -124 141 -249l39 -1842q3 -116 81 -183q10 -1 23 -1q59 0 165 32q201 57 213 301q12 236 73 2026l125 15l-63 -1600l-15 -594l2 -256q191 176 194 177q61 35 180 178l35 -9q-3 -146 -411 -475 l-9 -1133l-14 -169q-22 -119 -190 -153q-13 -1 -26 -1q-363 0 -363 486q0 56 33 199t60 210q138 330 348 580l12 182q-156 -132 -379 -135q-153 26 -182 183q-25 128 -35 789q-14 796 -21 887l-24 306q-60 162 -162 162q-20 0 -40 -6l-78 -36q-187 -182 -187 -400 q0 -139 76 -293q64 -123 117 -123q61 0 107 167l75 -7l-80 -211q-67 -61 -119 -61q-23 0 -44 12q-230 137 -267 429zM956 -1133q10 -285 170 -317q130 22 149 123l13 242l-6 823q4 -26 -112 -199t-151 -282q-52 -140 -63 -390zM1326 2612q101 49 175 112q78 66 131 164 q34 63 50 63q1 0 1 -1q89 -18 90 -67q0 -32 -38 -77q-115 -134 -355 -219zM1494 -25q15 115 282 377l21 29q1 0 1 1q45 38 66 39h2q21 0 21 -25q0 -22 -22 -70q0 -1 -1 -2l-25 -35q-139 -146 -225 -213q-121 -91 -120 -101z" />
<glyph unicode="&#xdf;" horiz-adv-x="876" d="M0 193l56 330l82 -27v-288l70 -15l94 125h54l56 -207l-28 -246l-95 29l-41 162l-180 14zM523 426l67 138l179 -109l13 -166l-54 -151l151 -68l-56 -95h-192l-67 54l-15 97l109 245z" />
<glyph unicode="&#xe0;" horiz-adv-x="1242" d="M-35 324v4q0 33 36 76l15 18q63 55 80 86q3 4 24 16l4 2v26q12 131 105 233q89 100 197 135q31 10 65 11q91 0 201 -75l29 72h95l-4 -131q-21 -285 -20 -609v-41q0 -48 56 -61q194 53 356 266l21 29q1 0 1 1q45 38 66 39q22 1 21 -25l-30 -70q0 -1 -1 -2l-25 -35 q-97 -124 -215 -213q-46 -34 -74 -45q-30 -31 -173 -31q-75 0 -111 131q-64 -142 -195 -154q-17 -2 -33 -1q-112 0 -214 68q-67 87 -89 165q-23 85 -29 220l-45 -60q-11 -14 -20 -21q0 -1 -2 -1q-59 -42 -69 -43q-20 1 -23 20zM239 1409l38 70l60 -37q52 -108 115 -175 q61 -66 221 -116q13 -4 13 -8q0 -11 -115 -21q-11 -1 -22 -1q-199 0 -310 288zM250 250q33 -135 100 -168q49 -24 110 -24q25 0 52 3q137 76 157 204q29 180 29 323q0 94 -13 171q-96 63 -197 63q-15 0 -31 -1q-83 -10 -170 -141q-62 -95 -63 -234q0 -89 26 -196z" />
<glyph unicode="&#xe1;" horiz-adv-x="1242" d="M-35 324v4q0 33 36 76l15 18q63 55 80 86q3 4 24 16l4 2v26q12 131 105 233q89 100 197 135q31 10 65 11q91 0 201 -75l29 72h95l-4 -131q-21 -285 -20 -609v-41q0 -48 56 -61q194 53 356 266l21 29q1 0 1 1q45 38 66 39q22 1 21 -25l-30 -70q0 -1 -1 -2l-25 -35 q-97 -124 -215 -213q-46 -34 -74 -45q-30 -31 -173 -31q-75 0 -111 131q-64 -142 -195 -154q-17 -2 -33 -1q-112 0 -214 68q-67 87 -89 165q-23 85 -29 220l-45 -60q-11 -14 -20 -21q0 -1 -2 -1q-59 -42 -69 -43q-20 1 -23 20zM250 250q33 -135 100 -168q49 -24 110 -24 q25 0 52 3q137 76 157 204q29 180 29 323q0 94 -13 171q-96 63 -197 63q-15 0 -31 -1q-83 -10 -170 -141q-62 -95 -63 -234q0 -89 26 -196zM257 1087q101 49 174 112q78 66 132 164q34 63 50 63q1 0 1 -1q89 -18 90 -67q0 -32 -38 -77q-115 -134 -355 -219z" />
<glyph unicode="&#xe2;" horiz-adv-x="1242" d="M-35 324v4q0 33 36 76l15 18q63 55 80 86q3 4 24 16l4 2v26q12 131 105 233q89 100 197 135q31 10 65 11q91 0 201 -75l29 72h95l-4 -131q-21 -285 -20 -609v-41q0 -48 56 -61q194 53 356 266l21 29q1 0 1 1q45 38 66 39q22 1 21 -25l-30 -70q0 -1 -1 -2l-25 -35 q-97 -124 -215 -213q-46 -34 -74 -45q-30 -31 -173 -31q-75 0 -111 131q-64 -142 -195 -154q-17 -2 -33 -1q-112 0 -214 68q-67 87 -89 165q-23 85 -29 220l-45 -60q-11 -14 -20 -21q0 -1 -2 -1q-59 -42 -69 -43q-20 1 -23 20zM96 1147q143 113 379 379q16 3 30 3 q28 0 49 -11q41 -128 291 -345q27 -24 27 -36.5t-27 -14.5h-3q-52 0 -166 89l-206 164q-191 -182 -374 -228zM250 250q33 -135 100 -168q49 -24 110 -24q25 0 52 3q137 76 157 204q29 180 29 323q0 94 -13 171q-96 63 -197 63q-15 0 -31 -1q-83 -10 -170 -141 q-62 -95 -63 -234q0 -89 26 -196z" />
<glyph unicode="&#xe3;" horiz-adv-x="1242" d="M-36 324v4q0 33 37 76l15 18q63 55 80 86q3 4 24 16l4 2v26q12 131 105 233q89 100 197 135q31 10 65 11q91 0 201 -75l29 72h95l-4 -131q-21 -285 -20 -609v-41q0 -48 56 -61q194 53 356 266l21 29q1 0 1 1q45 38 66 39q22 1 21 -25l-30 -70q0 -1 -1 -2l-25 -35 q-97 -124 -215 -213q-46 -34 -74 -45q-30 -31 -173 -31q-75 0 -111 131q-64 -142 -195 -154q-17 -2 -33 -1q-112 0 -214 68q-67 87 -89 165q-23 85 -29 220l-45 -60q-11 -14 -20 -21q0 -1 -2 -1q-59 -42 -69 -43q-21 1 -24 20zM250 250q33 -135 100 -168q49 -24 110 -24 q25 0 52 3q137 76 157 204q29 180 29 323q0 94 -13 171q-96 63 -197 63q-15 0 -31 -1q-83 -10 -170 -141q-62 -95 -63 -234q0 -89 26 -196zM296 1124l47 72q27 55 138 72q16 3 30 3q55 0 76 -38l62 -86q47 -41 84 -41q59 0 94 100l62 -20q-38 -135 -127 -147q-24 -3 -46 -3 q-111 0 -148 88q-27 67 -97 67q-70 -1 -106 -104z" />
<glyph unicode="&#xe4;" horiz-adv-x="1242" d="M-36 324v4q0 33 37 76l15 18q63 55 80 86q3 4 24 16l4 2v26q12 131 105 233q89 100 197 135q31 10 65 11q91 0 201 -75l29 72h95l-4 -131q-21 -285 -20 -609v-41q0 -48 56 -61q194 53 356 266l21 29q1 0 1 1q45 38 66 39q22 1 21 -25l-30 -70q0 -1 -1 -2l-25 -35 q-97 -124 -215 -213q-46 -34 -74 -45q-30 -31 -173 -31q-75 0 -111 131q-64 -142 -195 -154q-17 -2 -33 -1q-112 0 -214 68q-67 87 -89 165q-23 85 -29 220l-45 -60q-11 -14 -20 -21q0 -1 -2 -1q-59 -42 -69 -43q-21 1 -24 20zM250 250q33 -135 100 -168q49 -24 110 -24 q25 0 52 3q137 76 157 204q29 180 29 323q0 94 -13 171q-96 63 -197 63q-15 0 -31 -1q-83 -10 -170 -141q-62 -95 -63 -234q0 -89 26 -196zM251 1226q0 31 62 63q26 15 60 0q51 -19 58 -48q5 -17 6 -34q0 -33 -19 -66q-29 -55 -61 -54q-5 0 -10 1q-96 22 -96 138zM642 1191 q5 94 79 107q5 1 9 1q41 0 82 -74q15 -26 15 -48t-15 -40q-33 -40 -74 -40q-14 0 -29 5q-67 20 -68 79q1 5 1 10z" />
<glyph unicode="&#xe5;" horiz-adv-x="1242" d="M-35 324v4q0 33 36 76l15 18q63 55 80 86q3 4 24 16l4 2v26q12 131 105 233q89 100 197 135q31 10 65 11q91 0 201 -75l29 72h95l-4 -131q-21 -285 -20 -609v-41q0 -48 56 -61q194 53 356 266l21 29q1 0 1 1q45 38 66 39q22 1 21 -25l-30 -70q0 -1 -1 -2l-25 -35 q-97 -124 -215 -213q-46 -34 -74 -45q-30 -31 -173 -31q-75 0 -111 131q-64 -142 -195 -154q-17 -2 -33 -1q-112 0 -214 68q-67 87 -89 165q-23 85 -29 220l-45 -60q-11 -14 -20 -21q0 -1 -2 -1q-59 -42 -69 -43q-20 1 -23 20zM250 250q33 -135 100 -168q49 -24 110 -24 q25 0 52 3q137 76 157 204q29 180 29 323q0 94 -13 171q-96 63 -197 63q-15 0 -31 -1q-83 -10 -170 -141q-62 -95 -63 -234q0 -89 26 -196zM378 1235.5q0 46.5 33.5 80t80 33.5t80 -33.5t33.5 -80t-33.5 -80t-80 -33.5t-80 33.5t-33.5 80zM455 1236.5q0 -37.5 37.5 -37.5 t37.5 37.5t-37.5 37.5t-37.5 -37.5z" />
<glyph unicode="&#xe6;" horiz-adv-x="1504" d="M-35 324v4q0 33 36 76l15 18q63 55 80 86q3 4 24 16l4 2v26q12 131 105 233q89 100 197 135q31 10 65 11q91 0 201 -75l29 72h95l-4 -131l-2 -79q25 44 58 74q89 76 193 91q21 3 41 3q125 0 218 -117q33 -42 33 -145q0 -37 -4 -83q-14 -141 -206 -193q-72 -19 -141 -19 q-95 0 -183 37q-1 -23 -1 -44q0 -119 39 -170q61 -79 171 -79q24 0 49 3q7 1 13 2q212 45 386 274l20 29q1 0 2 1q45 38 65 39q23 1 24 -25q0 -12 -26 -70q0 -1 -2 -2l-24 -35q-79 -111 -222 -213q-51 -38 -77 -46q-98 -46 -198 -46h-6q-220 4 -280 166q-5 12 -9 27l-11 -62 q-46 -120 -243 -137q-18 -2 -35 -2q-111 0 -212 68q-67 87 -89 165q-23 81 -27 209l-39 -49q-10 -14 -19 -21l-1 -1q-59 -42 -79 -42t-23 19zM250 250q33 -135 100 -168q49 -24 110 -24q25 0 52 3q137 76 157 204q29 180 29 323q0 94 -13 171q-96 63 -197 63q-15 0 -31 -1 q-83 -10 -170 -141q-62 -95 -63 -234q0 -89 26 -196zM827 453q0 -14 41 -23q87 -20 158 -20q44 0 81 8q166 31 166 183q0 8 -1 17q-8 169 -167 170q-38 0 -84 -10q-86 -18 -134 -123q-60 -134 -60 -192v-10z" />
<glyph unicode="&#xe7;" horiz-adv-x="932" d="M-35.5 332q-0.5 28 36.5 72l15 18q63 55 80 86q3 4 16 11l38 136q66 235 299 256q16 1 32 1q181 0 247 -191l12 -68l-82 -9q-33 142 -136 152q-17 2 -34 2q-136 0 -204 -113q-71 -117 -71 -250q0 -91 33 -189q57 -168 204 -168h11q19 1 130 28q160 66 298 246l20 29 q1 0 24 20t44.5 20.5t21.5 -25.5l-31 -70q0 -1 -1 -2l-25 -35q-117 -153 -254 -238l-29 -20q-68 -42 -137 -53l-3 -161q27 21 70 21q40 0 94 -18q44 -27 53 -153q-5 -106 -180 -148l-99 17l-47 20l20 25q-4 -5 25 -5q38 0 133 9q68 21 68 101q0 14 -2 30q-54 48 -109 48 l-88 -32l-30 245q-67 11 -133 48q-160 91 -185 383l-30 -39q-14 -16 -47 -40.5t-44 -24.5q-23 0 -23.5 28z" />
<glyph unicode="&#xe8;" horiz-adv-x="869" d="M-35 332q0 26 36 72l15 18q63 55 80 86q1 3 6 5q31 197 122 276t197 94q21 3 40 3q125 0 219 -117q33 -42 33 -145q0 -37 -4 -83q-14 -141 -196 -190q-79 -21 -153 -21q-96 0 -183 36q-1 -20 0 -38q0 -124 40 -176q60 -79 169 -79q27 0 58 5q212 33 392 274l20 29 q1 0 23.5 20t44 20.5t21.5 -25.5l-30 -70q0 -1 -2 -2l-24 -35q-96 -127 -216 -213q-37 -27 -78 -46q-98 -46 -197 -46h-6q-220 4 -280 166q-26 70 -34 197l4 26q-12 -16 -25 -26q-49 -42 -69 -43q-23 1 -23 28zM186 453q1 -14 41 -23q88 -20 159 -20q44 0 81 8 q167 31 167 186v14q-9 169 -169 170q-38 0 -84 -10q-86 -18 -134 -123q-62 -136 -62 -195q1 -4 1 -7zM351 1376l38 62l60 -33q52 -96 115 -154q61 -59 221 -104q13 -3 13 -7q0 -10 -115 -18q-11 -1 -23 0q-198 -1 -309 254zM444 78z" />
<glyph unicode="&#xe9;" horiz-adv-x="869" d="M-35 332q0 26 36 72l15 18q63 55 80 86q1 3 6 5q31 197 122 276t197 94q21 3 40 3q125 0 219 -117q33 -42 33 -145q0 -37 -4 -83q-14 -141 -196 -190q-79 -21 -153 -21q-96 0 -183 36q-1 -20 0 -38q0 -124 40 -176q60 -79 169 -79q27 0 58 5q212 33 392 274l20 29 q1 0 23.5 20t44 20.5t21.5 -25.5l-30 -70q0 -1 -2 -2l-24 -35q-96 -127 -216 -213q-37 -27 -78 -46q-98 -46 -197 -46h-6q-220 4 -280 166q-26 70 -34 197l4 26q-12 -16 -25 -26q-49 -42 -69 -43q-23 1 -23 28zM186 453q1 -14 41 -23q88 -20 159 -20q44 0 81 8 q167 31 167 186v14q-9 169 -169 170q-38 0 -84 -10q-86 -18 -134 -123q-62 -136 -62 -195q1 -4 1 -7zM243 1055q101 49 175 112q78 67 131 164q35 63 51 63h1q90 -17 90 -67q0 -32 -38 -78q-115 -134 -355 -218z" />
<glyph unicode="&#xea;" horiz-adv-x="869" d="M-35 332q0 26 36 72l15 18q63 55 80 86q1 3 6 5q31 197 122 276t197 94q21 3 40 3q125 0 219 -117q33 -42 33 -145q0 -37 -4 -83q-14 -141 -196 -190q-79 -21 -153 -21q-96 0 -183 36q-1 -20 0 -38q0 -124 40 -176q60 -79 169 -79q27 0 58 5q212 33 392 274l20 29 q1 0 23.5 20t44 20.5t21.5 -25.5l-30 -70q0 -1 -2 -2l-24 -35q-96 -127 -216 -213q-37 -27 -78 -46q-98 -46 -197 -46h-6q-220 4 -280 166q-26 70 -34 197l4 26q-12 -16 -25 -26q-49 -42 -69 -43q-23 1 -23 28zM128 1169q141 131 373 443q15 3 28 3q28 0 50 -13 q40 -149 285 -403q27 -28 27 -43t-27 -17h-2q-52 0 -164 105l-202 190q-189 -212 -368 -265zM186 453q1 -14 41 -23q88 -20 159 -20q44 0 81 8q167 31 167 186v14q-9 169 -169 170q-38 0 -84 -10q-86 -18 -134 -123q-62 -136 -62 -195q1 -4 1 -7z" />
<glyph unicode="&#xeb;" horiz-adv-x="869" d="M-35 332q0 26 36 72l15 18q63 55 80 86q1 3 6 5q31 197 122 276t197 94q21 3 40 3q125 0 219 -117q33 -42 33 -145q0 -37 -4 -83q-14 -141 -196 -190q-79 -21 -153 -21q-96 0 -183 36q-1 -20 0 -38q0 -124 40 -176q60 -79 169 -79q27 0 58 5q212 33 392 274l20 29 q1 0 23.5 20t44 20.5t21.5 -25.5l-30 -70q0 -1 -2 -2l-24 -35q-96 -127 -216 -213q-37 -27 -78 -46q-98 -46 -197 -46h-6q-220 4 -280 166q-26 70 -34 197l4 26q-12 -16 -25 -26q-49 -42 -69 -43q-23 1 -23 28zM184 1217q0 34 64 68q14 8 30 7.5t33 -7.5q51 -22 60 -52 q5 -18 6 -37q0 -35 -19 -71q-32 -59 -65 -59q-5 0 -10 2q-99 25 -99 149zM186 453q1 -14 41 -23q88 -20 159 -20q44 0 81 8q167 31 167 186v14q-9 169 -169 170q-38 0 -84 -10q-86 -18 -134 -123q-62 -136 -62 -195q1 -4 1 -7zM588 1178q5 101 82 116l10 2q42 0 86 -81 q16 -28 16 -51.5t-16 -42.5q-36 -43 -79 -43q-14 0 -29 5q-70 22 -70 88v7z" />
<glyph unicode="&#xec;" horiz-adv-x="838" d="M104 324v4q0 33 37 76l13 18q27 23 47 42q15 34 37 66q11 16 10 374q11 1 36 -4q17 2 29 2q32 0 32 -13l-2 -305l-6 -225q-1 -30 -1 -57q0 -146 26 -180q26 -35 59 -37q12 0 27 1q195 53 358 266l20 29q1 0 1 1q45 38 66 39q22 1 22 -25l-30 -70q0 -1 -2 -2l-26 -35 q-96 -124 -214 -213q-56 -42 -85 -47q-45 -26 -97 -29q-13 -1 -24 -1q-115 0 -153 49q-44 54 -44 305v44l-23 -28q-10 -14 -19 -21q0 -1 -1 -1q-59 -42 -70 -43q-20 1 -23 20zM169 1458l39 70l60 -37q52 -108 114 -175q61 -66 221 -116q13 -4 14 -8q0 -11 -116 -21 q-11 -1 -22 0q-199 -1 -310 287z" />
<glyph unicode="&#xed;" horiz-adv-x="700" d="M-36 324v4q0 33 37 76l15 18q26 23 45 42q15 34 37 66q11 16 11 374q11 1 36 -4q17 2 29 2q32 0 32 -13l-3 -305l-5 -225q-1 -30 -1 -57q0 -146 26 -180q26 -35 58 -37q14 0 28 1q195 53 357 266l21 29q1 0 1 1q45 38 66 39q22 1 22 -25l-31 -70q0 -1 -1 -2l-24 -35 q-97 -124 -216 -213q-56 -42 -85 -47q-45 -26 -97 -29q-13 -1 -24 -1q-115 0 -153 49q-44 54 -44 305v44l-22 -28q-11 -14 -20 -21q0 -1 -2 -1q-59 -42 -69 -43q-21 1 -24 20zM0 1146q87 38 150 87q68 52 114 128q30 49 43 50q1 0 2 -1q78 -13 77 -52q0 -25 -32 -61 q-100 -104 -306 -171z" />
<glyph unicode="&#xee;" horiz-adv-x="723" d="M-141 1181q124 94 331 320q13 2 25 2q26 0 44 -11q35 -106 254 -291q23 -20 23.5 -30t-23.5 -12h-3q-47 0 -144 75l-180 138q-167 -153 -327 -191zM-22 324v4q0 33 37 76l15 18q27 23 45 42q16 34 37 66q11 16 11 374h5q11 0 30 -4q17 2 30 2q32 0 32 -13l-3 -305 l-5 -225q-1 -25 -1 -47q0 -155 25 -190q27 -35 59 -37q14 0 27 1q195 53 359 266l21 29l1 1q45 38 64 39q23 1 24 -25l-31 -70l-2 -2l-25 -35q-96 -124 -216 -213q-56 -42 -83 -47q-46 -26 -98 -29q-12 -1 -24 -1q-114 0 -154 49q-44 54 -44 305q0 22 1 44l-22 -28 q-11 -14 -21 -21v-1q-59 -42 -71 -43q-20 1 -23 20z" />
<glyph unicode="&#xef;" horiz-adv-x="712" d="M-57 1375q0 23 53 46q23 10 53 0q42 -15 51 -35q4 -12 4 -25q0 -24 -15 -48q-27 -39 -55 -39l-8 1q-83 17 -83 100zM-22 324v4q0 33 37 76l14 18q27 23 46 42q15 34 37 66q11 16 11 374q11 1 35 -4q17 2 30 2q32 0 32 -13l-3 -305l-5 -225q-1 -30 -1 -57q0 -146 25 -180 q26 -35 59 -37q12 0 27 1q195 53 358 266l20 29q1 0 2 1q45 38 65 39q22 1 22 -25l-30 -70q-1 -1 -1 -2l-26 -35q-96 -124 -215 -213q-56 -42 -84 -47q-46 -26 -97 -29q-13 -1 -24 -1q-115 0 -154 49q-44 54 -44 305q0 22 1 44l-24 -28q-10 -14 -19 -21q0 -1 -1 -1 q-59 -42 -70 -43q-20 1 -23 20zM350 1428q4 1 8 1q36 0 72 -54q13 -19 13 -35t-13 -29q-29 -28 -65 -28q-13 0 -26 3q-58 14 -58 58q0 72 69 84z" />
<glyph unicode="&#xf1;" horiz-adv-x="1576" d="M-35 324v4q0 33 36 76l15 18l6 5l251 364q64 91 161 117q47 13 87 13q90 0 143 -66q27 -34 39 -93q41 83 116 123q38 20 86 19q39 0 85 -12q139 -39 139 -565q0 -47 -1 -99v-9q0 -122 69 -133q106 29 204 107l31 35l118 141q33 27 54 34q25 18 38 18q23 1 24 -25l-32 -70 q0 -1 -1 -2l-25 -35q-38 -49 -79 -92q-37 -52 -49 -63q-64 -52 -94 -82q-64 -63 -230 -67q-93 20 -125 173q2 42 2 97q0 146 -16 384q-11 163 -120 163q-29 0 -64 -11q-70 -22 -101 -132q-3 -12 -3.5 -29t3.5 -40l2 39q1 0 -20 -625l-65 -19l-39 15q-2 3 -1 41q0 108 14 497 q2 47 1 85q0 133 -22 153q-45 41 -95 41q-65 0 -140 -69q-55 -49 -172 -222l-79 -116l-12 -9l-25 -32q-11 -14 -20 -21q0 -1 -2 -1q-59 -42 -69 -43q-20 1 -23 20zM366 1167l61 99q34 75 181 98q22 4 41 4q71 0 98 -53l80 -116q61 -56 111 -56q77 0 124 135l81 -25 q-49 -184 -167 -200q-32 -4 -60 -5q-146 0 -194 119q-35 90 -124 90h-3q-93 0 -139 -140z" />
<glyph unicode="&#xf2;" horiz-adv-x="1112" d="M-36 324v4q0 33 37 76l15 18q59 51 77 80q10 18 23 36q68 210 197 291q135 84 254 84q124 0 230 -91q123 -108 124 -266q0 -10 -1 -19q-7 -72 -24 -166q34 -23 71 -23q20 0 42 7l64 26q1 0 2 1q45 38 65 39q23 1 23 -25q0 -22 -22 -70q0 -1 -1 -2l-56 -32 q-46 -17 -109 -17q-49 0 -108 10q-60 -287 -354 -286q-20 0 -41 1q-209 12 -304 176q-56 94 -56 198q0 21 3 42l-36 -47q-11 -14 -20 -21l-2 -1q-59 -42 -69 -43q-21 1 -24 20zM516 85h9q200 0 264 239q-29 12 -72 23q-37 10 -86 87q-31 48 -31 102q0 43 20 89 q51 115 113 125q-73 69 -166 69q-52 0 -110 -22q-251 -96 -251 -383q0 -321 310 -329zM359 1307l38 69l60 -37q52 -108 115 -174q61 -66 221 -116q13 -4 13 -8q0 -11 -115 -21q-11 -1 -22 -1q-199 0 -310 288zM696 501q3 -83 123 -91l10 92q0 173 -35 174h-2 q-96 -10 -96 -159v-16z" />
<glyph unicode="&#xf3;" horiz-adv-x="1112" d="M-36 324v4q0 33 37 76l15 18q59 51 77 80q10 18 23 36q68 210 197 291q135 84 254 84q124 0 230 -91q123 -108 124 -266q0 -10 -1 -19q-7 -72 -24 -166q34 -23 71 -23q20 0 42 7l64 26q1 0 2 1q45 38 65 39q23 1 23 -25q0 -22 -22 -70q0 -1 -1 -2l-56 -32 q-46 -17 -109 -17q-49 0 -108 10q-60 -287 -354 -286q-20 0 -41 1q-209 12 -304 176q-56 94 -56 198q0 21 3 42l-36 -47q-11 -14 -20 -21l-2 -1q-59 -42 -69 -43q-21 1 -24 20zM516 85h9q200 0 264 239q-29 12 -72 23q-37 10 -86 87q-31 48 -31 102q0 43 20 89 q51 115 113 125q-73 69 -166 69q-52 0 -110 -22q-251 -96 -251 -383q0 -321 310 -329zM311 1068q101 49 175 112q78 66 131 163q34 63 51 63h1q89 -18 89 -67q0 -32 -37 -77q-115 -134 -355 -219zM696 501q3 -83 123 -91l10 92q0 173 -35 174h-2q-96 -10 -96 -159v-16z" />
<glyph unicode="&#xf4;" horiz-adv-x="1112" d="M-36 324v4q0 33 37 76l15 18q59 51 72.5 74.5t27.5 41.5q68 210 197 291q135 84 254 84q124 0 230 -91q123 -108 124 -266q0 -10 -1 -19q-7 -72 -24 -166q34 -23 71 -23q20 0 42 7l64 26q1 0 24 20t44.5 20.5t21.5 -23.5t-11 -48.5t-12 -25.5l-56 -32q-46 -17 -109 -17 q-49 0 -108 10q-60 -287 -354 -286q-20 0 -41 1q-209 12 -304 176q-56 94 -56 198q0 21 3 42l-36 -47q-11 -14 -45 -40q-34 -24 -52 -24q-15 0 -18 19zM162 1059q141 131 373 444q15 3 28 3q28 0 50 -14q40 -149 285 -402q27 -28 27 -43t-26 -16h-3q-53 0 -164 104l-202 191 q-189 -214 -368 -267zM516 85h9q200 0 264 239q-29 12 -69 22t-93 93q-28 43 -27 94q0 46 23 98q48 109 110 119q-73 69 -166 69q-52 0 -110 -22q-251 -96 -251 -383q0 -321 310 -329zM696 501q3 -83 123 -91l10 92q0 173 -35 174h-2q-96 -10 -96 -159v-16z" />
<glyph unicode="&#xf5;" horiz-adv-x="1112" d="M-36 332q0 28 37 72l15 18q59 51 77 80q10 18 23 36q68 210 197 291q135 84 254 84q124 0 230 -91q123 -108 124 -266q0 -10 -1 -19q-7 -72 -24 -166q34 -23 71 -23q20 0 42 7l64 26q1 0 24 20t44.5 20.5t21.5 -23.5t-11 -48.5t-12 -25.5l-56 -32q-46 -17 -109 -17 q-49 0 -108 10q-60 -287 -354 -286q-20 0 -41 1q-209 12 -304 176q-55 95 -55 201q0 20 2 39q-49 -64 -58 -69q-59 -42 -69 -43q-24 0 -24 28zM188 1084l62 98q34 75 180 99q22 4 41 3q71 0 98 -52l81 -117q61 -56 111 -55q77 0 124 135l80 -25q-49 -184 -166 -201 q-32 -4 -60 -4q-146 0 -194 119q-35 90 -127.5 90t-138.5 -140zM516 85h9q200 0 264 239q-29 12 -69 22t-93 93q-28 43 -27 94q0 46 23 98q48 109 110 119q-73 69 -166 69q-52 0 -110 -22q-251 -96 -251 -383q0 -321 310 -329zM696 501q3 -83 123 -91l10 92q0 173 -35 174 h-2q-96 -10 -96 -159v-16z" />
<glyph unicode="&#xf6;" horiz-adv-x="1112" d="M-36 324v4q0 33 37 76l15 18q59 51 72.5 74.5t27.5 41.5q68 210 197 291q135 84 254 84q124 0 230 -91q123 -108 124 -266q0 -10 -1 -19q-7 -72 -24 -166q34 -23 71 -23q20 0 42 7l64 26q1 0 24 20t44.5 20.5t21.5 -23.5t-11 -48.5t-12 -25.5l-56 -32q-46 -17 -109 -17 q-49 0 -108 10q-60 -287 -354 -286q-20 0 -41 1q-209 12 -304 176q-56 94 -56 198q0 21 3 42l-36 -47q-11 -14 -45 -40q-34 -24 -52 -24q-15 0 -18 19zM516 85h9q200 0 264 239q-29 12 -69 22t-93 93q-28 43 -27 94q0 46 23 98q48 109 110 119q-73 69 -166 69 q-52 0 -110 -22q-251 -96 -251 -383q0 -321 310 -329zM238 1064q0 34 69 68q14 7 32 7q21 0 47 -11q48 -18 58 -48q5 -17 5 -34q0 -38 -24 -81q-30 -52 -66 -52q-6 0 -12 2q-109 25 -109 149zM683 1025q7 101 90 118q5 1 10 1q47 0 95 -82q17 -28 17 -51.5t-17 -42.5 q-38 -42 -88 -42q-18 0 -38 6q-69 20 -70 84q1 4 1 9zM696 501q3 -83 123 -91l10 92q0 173 -35 174h-2q-96 -10 -96 -159v-16z" />
<glyph unicode="&#xf7;" horiz-adv-x="1100" d="M115 381l20 111q176 -13 357 -13q233 0 475 21l57 -37l-46 -92l-564 -19l-181 7zM497 108q11 33 14 49l13 48q10 3 21 3q43 0 90 -44q12 -17 12 -34q0 -37 -53 -77q-77 11 -97 55zM528 758q33 33 63 33q38 0 71 -55l-44 -68l-90 12v78z" />
<glyph unicode="&#xf8;" horiz-adv-x="921" d="M0 27l56 84l180 68l152 194l82 -26l-41 -482l-126 41l-26 135l-166 -53zM580 -53l67 274l164 179l111 -41l-125 -164l125 -207v-82l-84 -70l-179 14z" />
<glyph unicode="&#xf9;" horiz-adv-x="1307" d="M-35 324v4q0 33 36 76l15 18l30 27q1 1 3 4l41 45q4 5 6 10q3 3 9 7q46 53 79 95l6 32l9 251l107 -1q-7 -216 -11 -282q-7 -111 -7 -197q0 -230 48 -287q31 -38 83 -38q85 0 225 103q61 45 71 64q18 35 32 466l5 175l92 5l-25 -680v-15q0 -121 81 -120h11q195 53 357 266 l21 29q1 0 1 1q45 38 66 39q23 1 23 -25l-31 -70q0 -1 -2 -2l-24 -35q-97 -124 -216 -213q-49 -37 -77 -46q-63 -32 -126 -32q-40 0 -80 13q-76 52 -94 139q-78 -106 -251 -150q-56 -14 -102 -14q-174 0 -188 211q-9 53 -9 169q0 58 3 132q-66 -83 -95 -125h-5l-3 -4 q-11 -14 -20 -21q0 -1 -2 -1q-59 -42 -69 -43q-20 1 -23 20zM332 1328l38 70l60 -37q52 -108 115 -175q61 -66 221 -116q13 -4 13 -8q0 -11 -115 -20q-11 -1 -22 -1q-199 -1 -310 287z" />
<glyph unicode="&#xfa;" horiz-adv-x="1307" d="M-35 324v4q0 33 36 76l15 18l30 27q1 1 3 4l41 45q4 5 6 10q3 3 9 7q46 53 79 95l6 32l9 251l107 -1q-7 -216 -11 -282q-7 -111 -7 -197q0 -230 48 -287q31 -38 83 -38q85 0 225 103q61 45 71 64q18 35 32 466l5 175l92 5l-25 -680v-15q0 -121 81 -120h11q195 53 357 266 l21 29q1 0 1 1q45 38 66 39q23 1 23 -25l-31 -70q0 -1 -2 -2l-24 -35q-97 -124 -216 -213q-49 -37 -77 -46q-63 -32 -126 -32q-40 0 -80 13q-76 52 -94 139q-78 -106 -251 -150q-56 -14 -102 -14q-174 0 -188 211q-9 53 -9 169q0 58 3 132q-66 -83 -95 -125h-5l-3 -4 q-11 -14 -20 -21q0 -1 -2 -1q-59 -42 -69 -43q-20 1 -23 20zM268 1270q101 49 174 112q78 67 131 164q33 63 50 63q1 0 2 -1q89 -17 90 -67q0 -32 -38 -77q-115 -134 -355 -219z" />
<glyph unicode="&#xfb;" horiz-adv-x="1307" d="M-35 324v4q0 33 36 76l15 18l30 27q1 1 3 4l41 45q4 5 6 10q3 3 9 7q46 53 79 95l6 32l9 251l107 -1q-7 -216 -11 -282q-7 -111 -7 -197q0 -230 48 -287q31 -38 83 -38q85 0 225 103q61 45 71 64q18 35 32 466l5 175l92 5l-25 -680v-15q0 -121 81 -120h11q195 53 357 266 l21 29q1 0 1 1q45 38 66 39q23 1 23 -25l-31 -70q0 -1 -2 -2l-24 -35q-97 -124 -216 -213q-49 -37 -77 -46q-63 -32 -126 -32q-40 0 -80 13q-76 52 -94 139q-78 -106 -251 -150q-56 -14 -102 -14q-174 0 -188 211q-9 53 -9 169q0 58 3 132q-66 -83 -95 -125h-5l-3 -4 q-11 -14 -20 -21q0 -1 -2 -1q-59 -42 -69 -43q-20 1 -23 20zM164 1169q142 131 374 443q15 4 28 4q28 0 48 -14q41 -149 287 -403q27 -28 27 -43t-27 -17h-2q-52 0 -164 105l-203 190q-188 -212 -368 -265z" />
<glyph unicode="&#xfc;" horiz-adv-x="1307" d="M-36 324v4q0 33 37 76l15 18l30 27q1 1 3 4l41 45q4 5 6 10q3 3 9 7q46 53 79 95l6 32l9 251l107 -1q-7 -216 -11 -282q-7 -111 -7 -197q0 -230 48 -287q31 -38 83 -38q85 0 225 103q61 45 71 64q18 35 32 466l5 175l92 5l-25 -680v-15q0 -121 81 -120h11q195 53 357 266 l21 29q1 0 1 1q45 38 66 39q23 1 23 -25l-31 -70q0 -1 -2 -2l-24 -35q-97 -124 -216 -213q-49 -37 -77 -46q-63 -32 -126 -32q-40 0 -80 13q-76 52 -94 139q-78 -106 -251 -150q-56 -14 -102 -14q-174 0 -188 211q-9 53 -9 169q0 58 3 132q-66 -83 -95 -125h-5l-3 -4 q-11 -14 -20 -21q0 -1 -2 -1q-59 -42 -69 -43q-21 1 -24 20zM277 1268q0 22 60 44q26 10 60 0q49 -14 58 -34q5 -12 5 -24q0 -22 -19 -44q-30 -38 -60 -38q-5 0 -10 1q-94 14 -94 95zM739 1319h7q40 0 83 -52q15 -18 15 -33t-15 -27q-33 -28 -73 -28q-14 0 -30 3 q-66 14 -65 57q0 68 78 80z" />
<glyph unicode="&#xfd;" horiz-adv-x="1449" d="M-35 324v4q0 33 36 76l15 18l18 15l126 180q192 273 272 273h4q36 9 65 9q141 0 152 -203q15 -310 26 -392q18 -132 105 -178q37 -20 81 -20q64 0 143 41q42 23 42 182v19l-8 542l113 -5l-19 -822q87 96 154 151q57 63 134 138l21 29q1 0 1 1q45 38 65 39q23 1 24 -25 q0 -22 -22 -70q0 -1 -2 -2l-24 -35l-142 -142l-221 -256q-3 -87 -3 -291q0 -153 1 -373q2 -203 2 -347q0 -216 -4 -297q-10 -143 -126 -175q-10 -3 -21 -3q-38 0 -96 28q-91 38 -155 211q-34 94 -45 230q-4 55 -4 109q0 501 362 935v171q-105 -80 -205 -80q-28 0 -56 6 q-216 49 -216 616q0 128 -53 158q-16 9 -34 9q-70 0 -168 -132l-150 -202l-4 -3l-70 -92q-11 -14 -20 -21q0 -1 -2 -1q-59 -42 -69 -43q-20 1 -23 20zM328 1047q101 49 174 112q78 66 132 164q34 63 50 63h1q89 -18 90 -68q0 -32 -38 -77q-115 -134 -355 -218zM851 -1420 q18 -40 38 -55q62 -39 99 -39q57 0 57 92q0 16 -2 33q0 46 -5 777q-3 328 -3 350v59q-273 -437 -273 -812q0 -213 89 -405zM1141 -25l2 2q-2 -1 -2 -2z" />
<glyph unicode="&#xff;" horiz-adv-x="1449" d="M-35 324v4q0 33 36 76l15 18l18 15l126 180q192 273 272 273h4q36 9 65 9q141 0 152 -203q15 -310 26 -392q18 -132 105 -178q37 -20 81 -21q64 0 143 42q42 23 42 182v19l-8 542l113 -5l-19 -822q87 96 154 151q57 63 134 138l21 29q1 0 1 1q45 38 65 39q23 1 24 -25 q0 -22 -22 -70q0 -1 -2 -2l-24 -35l-142 -142l-221 -256q-3 -87 -3 -291q0 -153 1 -373q2 -203 2 -347q0 -216 -4 -297q-10 -143 -126 -175q-10 -3 -21 -3q-38 0 -96 28q-91 38 -155 211q-34 94 -45 230q-4 55 -4 109q0 501 362 935v171q-105 -80 -205 -80q-28 0 -56 6 q-216 49 -216 616q0 128 -53 158q-16 9 -34 9q-70 0 -168 -132l-150 -202l-4 -3l-70 -92q-11 -14 -20 -21q0 -1 -2 -1q-59 -42 -69 -43q-20 1 -23 20zM460 1394q0 34 70 68q15 8 32.5 8t36.5 -8q56 -22 66 -52q6 -19 6 -37q0 -35 -21 -70q-34 -59 -70 -59q-6 0 -12 1 q-108 25 -108 149zM851 -1420q18 -40 38 -55q62 -39 99 -39q57 0 57 92q0 16 -2 33q0 46 -5 777q-3 328 -3 350v59q-273 -437 -273 -812q0 -213 89 -405zM904 1356q7 101 91 116q5 1 10 1q46 0 95 -80q17 -29 17.5 -52.5t-17.5 -42.5q-39 -44 -86 -43q-16 0 -34 5 q-77 22 -76 89v7zM1141 -25l2 2q-2 -1 -2 -2z" />
<glyph unicode="&#x152;" horiz-adv-x="2871" d="M33 829q-15 190 -16 346q0 496 155 659q159 176 248 175q23 0 41 -12q35 191 163 355q116 113 201 114q9 0 19 -2q69 11 133 12q389 0 589 -413l7 -15q227 365 635 429q85 13 158 13q375 0 430 -346q12 -74 12 -140q0 -400 -430 -542q-101 -33 -221 -33q-86 0 -181 17 q-135 23 -306 109q4 -71 4 -140q0 -129 -14 -248q11 -20 25 -38q184 108 262 120q80 13 144 13q95 0 152 -28q87 -43 87 -152q0 -10 -1 -22q-14 -187 -240 -219q-25 -3 -52 -3q-143 0 -348 96q-94 -127 -108 -265q-4 -39 -4 -75q0 -290 263 -397q138 -55 291 -55 q94 0 193 20q410 87 445 345q16 40 16 75q0 104 -135 174h-179l15 75q119 30 191 31q51 0 77 -15q151 -86 151 -227q0 -13 -1 -26q-25 -258 -212 -400q-177 -134 -488 -163q-72 -6 -137 -6q-540 0 -636 445q-132 -209 -337 -366q-109 -87 -366 -94q-605 86 -695 819z M137 1161q-4 -70 -4 -136q0 -736 480 -876q86 -25 166 -25q396 0 640 615q4 11 9 23q8 37 22 71q34 126 63 325l-12 22q-67 149 -68 327q0 89 17 186q-306 247 -306 525v10l23 77l-15 9q-48 28 -141 28q-59 0 -137 -11q-199 -29 -266 -263q-36 -126 -36 -256q0 -100 21 -204 q26 -128 88 -147q57 -17 104 -17q115 0 169 100l96 161q71 0 71 -74q0 -46 -27 -121q-48 -130 -278 -198q-30 -9 -59 -9q-132 0 -265 174q-51 136 -51 266q0 48 7 96l-60 32q-165 -135 -195 -301q-48 -263 -56 -409zM1268 2231q60 -250 212 -360l14 30q-70 199 -226 330z M1637 1834q12 -59 19 -123q176 -109 396 -135q51 -6 100 -7q188 0 334 93q167 105 190 280q7 46 7 86q0 126 -68 192q-154 145 -326 145q-224 0 -477 -246q-119 -116 -175 -285zM1771 1020q85 -48 160 -64q69 -15 122 -15q137 0 172 95l-8 58q-16 51 -94 50q-71 0 -192 -42 q-86 -33 -160 -82z" />
<glyph unicode="&#x153;" horiz-adv-x="1555" d="M-36 324v4q0 33 37 76l15 18l11 11q33 56 118 139q74 307 348 324h15q164 0 355 -201q38 203 232 218q15 1 29 1q186 0 247 -181q19 -57 19 -110q0 -130 -116 -238q-91 -83 -204 -83q-63 0 -132 26q46 -242 188 -243q23 0 48 6q184 59 339 261l20 29q1 0 2 1q45 38 65 39 q22 1 22 -25l-30 -70q0 -1 -1 -2l-25 -35q-97 -124 -216 -213q-35 -27 -60 -39q-4 -4 -7 -6q-73 -43 -141 -42q-54 0 -104 26q-147 76 -202 335q-26 -180 -174 -321q-48 -46 -151 -47q-30 0 -66 4q-106 12 -191 118q-102 130 -107 355l-68 -90q-11 -14 -20 -21q0 -1 -2 -1 q-59 -42 -69 -43q-21 1 -24 20zM268 283q33 -123 146 -185q49 -26 94 -26q119 0 218 181q37 68 41 153q-27 3 -87 34q-83 45 -98 174l-2 23q0 86 86 113q-91 55 -168 55q-115 0 -200 -122q-59 -84 -60 -208q1 -86 30 -192zM650 655q-3 -17 -3 -31q0 -77 70 -120l57 -25 q17 54 17 96.5t-17 73.5q-27 49 -76 48q-10 0 -21 -2q-20 -3 -27 -40zM919 576q-5 -35 -5 -66q0 -57 17 -102q51 -30 108 -29q79 0 169 58q66 41 82 141q6 35 6 65q0 161 -166 173q-9 1 -17 1q-155 0 -194 -241z" />
<glyph unicode="&#x178;" horiz-adv-x="1809" d="M29 1749q-7 58 -7 112q0 351 297 550q70 30 134 30q101 0 186 -76q138 -124 141 -249l39 -1842q3 -116 81 -183q10 -1 22 -1q58 0 166 32q201 59 213 301q12 246 73 2026l125 15l-63 -1600l-15 -594l2 -256q191 176 194 177q7 4 15 10q60 68 144 151l21 29q1 0 1 1 q45 38 66 39q23 1 23 -25q0 -22 -22 -70q0 -1 -1 -2l-25 -35l-74 -73q-98 -132 -344 -331l-9 -1133l-14 -169q-22 -119 -190 -153q-13 -1 -26 -1q-363 0 -363 486q0 56 33 199t60 210q138 330 348 580l12 182q-156 -132 -379 -135q-152 26 -182 183q-25 131 -35 789 q-14 796 -21 887l-24 306q-60 162 -162 162q-20 0 -40 -6l-78 -36q-187 -182 -187 -400q0 -139 76 -293q64 -123 117 -123q61 0 107 167l75 -7l-80 -211q-67 -61 -119 -61q-23 0 -44 12q-230 140 -267 429zM673 2576q0 34 70 69q16 8 33 7.5t36 -7.5q57 -22 67 -52 q6 -18 6 -37q0 -35 -21 -71q-34 -59 -70 -59q-6 0 -12 2q-109 24 -109 148zM956 -1133q10 -285 170 -317q130 22 149 123l13 242l-6 819q-4 -33 -112 -195q-116 -172 -151 -282q-52 -140 -63 -390zM1118 2538q7 101 90 118q5 1 10 0q47 0 95 -81q17 -28 17.5 -51.5 t-17.5 -42.5q-39 -43 -86 -43q-16 0 -32 5q-77 22 -77 86v9z" />
<glyph unicode="&#x2c6;" horiz-adv-x="1378" d="M124 1547q141 131 373 444q15 3 28 3q28 0 50 -14q40 -149 285 -404q27 -27 27 -41.5t-27 -16.5h-4q-52 0 -162 104l-202 191q-189 -213 -368 -266z" />
<glyph unicode="&#x2dc;" horiz-adv-x="985" d="M135 721l62 98q34 75 180 99q22 4 41 3q71 0 98 -53l81 -116q61 -56 110 -55q77 0 124 134l81 -24q-49 -184 -167 -201q-32 -4 -59 -4q-146 0 -194 119q-37 90 -127 90q-93 0 -140 -141z" />
<glyph unicode="&#x2013;" horiz-adv-x="1067" d="M229 498l28 82l344 26l139 -54l-29 -95h-426z" />
<glyph unicode="&#x2014;" horiz-adv-x="2251" d="M180 72l68 84q509 -58 1011 -59q274 0 546 18l55 -70l-41 -94l-1431 41z" />
<glyph unicode="&#x2018;" horiz-adv-x="400" d="M0 1485q-5 53 -5 103q0 369 294 545l58 -13v-69q-225 -179 -225 -395q0 -133 86 -280l192 -165l-41 -82h-82l-166 152z" />
<glyph unicode="&#x2019;" horiz-adv-x="871" d="M314 1212q37 1 74 73q104 109 157 329q-30 23 -30 46q0 18 15.5 36.5t49.5 47.5h6h2q44 0 67 -91q22 -14 22 -42q0 -105 -293 -408z" />
<glyph unicode="&#x201a;" horiz-adv-x="658" d="M98 -618q162 220 208 495l-15 245q22 27 43 26.5t41 -26.5l67 -137q7 -34 7 -67q0 -99 -61 -192l-221 -336z" />
<glyph unicode="&#x201c;" horiz-adv-x="936" d="M0 1940v111l68 54l99 -41l26 -165l166 -302l-29 -54l-178 123zM248 2022l55 111l126 -54l205 -372l-28 -54l-136 54z" />
<glyph unicode="&#x201d;" horiz-adv-x="1084" d="M0 1679l303 552l111 -70l-55 -180l-291 -343zM330 1708l29 138l247 370l82 -41l-41 -180l-233 -316z" />
<glyph unicode="&#x201e;" horiz-adv-x="1247" d="M131 1430l49 111q26 59 32 76l27 66q10 25 30 93q-8 50 -8 93q0 93 37 154q11 2 20 2q59 0 90 -56q4 -26 4 -58q0 -72 -19 -176l-194 -315zM421 1363q158 258 192 454l14 234l84 -13l41 -98q3 -25 3 -49q0 -129 -72 -253l-164 -239z" />
<glyph unicode="&#x2022;" horiz-adv-x="1904" d="M532 348q-45 406 290 590q340 45 590 -193q168 -307 -193 -685q-447 -153 -687 288z" />
<glyph unicode="&#x2026;" horiz-adv-x="1638" d="M191 61.5q0 61.5 61.5 61.5t61.5 -61.5t-61.5 -61.5t-61.5 61.5zM601 61.5q0 61.5 61.5 61.5t61.5 -61.5t-61.5 -61.5t-61.5 61.5zM1010 61q0 63 66 63q57 0 57 -63q0 -61 -61.5 -61t-61.5 61z" />
<glyph unicode="&#x2039;" horiz-adv-x="1329" d="M347 683l106 71l369 295l96 -55l-82 -104q-152 -104 -297 -236l338 -307q6 -29 5 -51q0 -67 -51 -67q-19 0 -45 9z" />
<glyph unicode="&#x203a;" horiz-adv-x="1329" d="M375 999l82 -103q162 -102 297 -238l-324 -306q-6 -32 -6 -54q0 -64 43 -64q16 0 40 9l439 445l-106 71l-369 295z" />
<glyph unicode="&#x20ac;" horiz-adv-x="1852" d="M227 699v148l278 98v20q0 215 82 424q66 162 167 196q86 28 172 28l254 -61q175 -85 278 -213q1 -9 1 -17q0 -76 -66 -131l-82 49q-173 200 -319 199q-120 0 -222 -134q-73 -118 -73 -254q0 -31 3 -63l365 88l-3 -158l-368 -102l6 -172l398 121l-66 -164l-321 -97 q-3 -15 -3 -30q0 -99 133 -209q89 -75 203 -75q177 0 411 181q82 64 167 246q24 -40 24 -86q0 -146 -237 -359q-164 -149 -429 -148q-23 0 -46 1q-194 8 -281 131q-90 79 -131 297l-263 -98v164l246 82l-8 180z" />
<glyph unicode="&#x2122;" horiz-adv-x="1609" d="M0 770q-7 69 -7 135q0 567 503 926l344 205l166 -14l54 -94q-702 -112 -922 -828q-33 -222 -33 -375q0 -169 40 -255q74 -167 431 -389q236 -90 358 -91q40 0 68 10q109 42 251 359l110 975l-41 194q-129 92 -252 92q-132 0 -256 -106q-171 -213 -171 -457 q0 -126 45 -260l-67 -12q-110 147 -110 319q0 136 69 287q139 368 467 368q59 0 123 -11l193 -82l69 288l96 27l-14 -496l98 -274q16 -105 17 -206q0 -387 -238 -702q16 -216 17 -429q0 -716 -183 -1414l-82 14l-26 125q140 631 140 1260q0 105 -4 209q-198 -119 -456 -177 q-718 117 -797 879z" />
<glyph unicode="&#xe000;" horiz-adv-x="900" d="M0 900h900v-900h-900v900z" />
<glyph unicode="&#xfb01;" horiz-adv-x="1635" d="M-35 324v4q0 33 36 76l15 18q63 55 80 86q3 4 24 16l4 3q-21 656 -21 1110q0 314 10 531q3 59 63 164q45 79 235 154q58 23 112 22q124 0 228 -119q113 -129 113 -390v-12q-8 -698 -150 -948q-210 -370 -482 -556l21 -289q61 -104 224 -118q5 0 12 2q212 45 386 274 l21 29q1 0 1 1q45 38 66 39q23 1 23 -25l-32 -70q0 -1 -1 -2l-25 -35q-97 -124 -215 -213q-45 -34 -73 -45l-50 -34l46 -57q158 -225 211 -463q30 -135 29 -274q0 -153 -36 -310q-75 -322 -317 -451q-61 -32 -124 -32q-59 0 -122 28q-124 56 -130 161q-11 268 -11 408 q0 147 13 152q-19 429 -21 863q0 247 -1 409l-48 -62q-11 -14 -20 -21q0 -1 -2 -1q-59 -42 -69 -43q-20 1 -23 20zM213 890l8 -281q527 438 527 1183q0 100 -9 207q-34 378 -205 377h-15q-94 -10 -220 -89q-87 -55 -87 -391q0 -29 1 -61q3 -171 3 -407t-3 -538zM243 44 q0 -244 3 -463q11 -874 11 -905q0 -76 34 -114q34 -36 100 -37h5q124 3 222 132q89 115 126 289q31 147 31 283q0 436 -320 763q-144 8 -212 52zM890 324v4q0 33 37 76l15 18q26 23 45 42q15 34 37 66q11 16 11 374q11 1 35 -4q17 2 30 2q32 0 32 -13l-3 -305l-5 -225 q-1 -30 -1 -57q0 -146 25 -180q26 -35 59 -37q14 0 27 1q195 53 358 266l20 29q1 0 2 1q45 38 65 39q22 1 22 -25l-30 -70q0 -1 -1 -2l-25 -35q-97 -124 -215 -213q-56 -42 -85 -47q-45 -26 -97 -29q-13 -1 -24 -1q-115 0 -154 49q-44 54 -44 305q0 22 1 44l-22 -28 q-11 -14 -21 -21q0 -1 -1 -1q-59 -42 -70 -43q-20 1 -23 20zM1016 1245q-9 14 -9 33.5t9 43.5l42 37q68 -5 75 -47q1 -8 1 -15q0 -49 -54 -76z" />
<glyph unicode="&#xfb02;" horiz-adv-x="1828" d="M-35 324v4q0 33 36 76l15 18q63 55 80 86q3 4 24 16l4 3q-21 656 -21 1110q0 314 10 531q3 59 63 164q45 79 235 154q58 23 112 22q124 0 228 -119q113 -129 113 -390v-12q-8 -698 -150 -948q-210 -370 -482 -556l21 -289q61 -104 224 -118q5 0 12 2q212 45 386 274 l21 29q1 0 1 1q45 38 66 39q23 1 23 -25l-32 -70q0 -1 -1 -2l-25 -35q-97 -124 -215 -213q-45 -34 -73 -45l-50 -34l46 -57q158 -225 211 -463q30 -135 29 -274q0 -153 -36 -310q-75 -322 -317 -451q-61 -32 -124 -32q-59 0 -122 28q-124 56 -130 161q-11 268 -11 408 q0 147 13 152q-19 429 -21 863q0 247 -1 409l-48 -62q-11 -14 -20 -21q0 -1 -2 -1q-59 -42 -69 -43q-20 1 -23 20zM213 890l8 -281q527 438 527 1183q0 100 -9 207q-34 378 -205 377h-15q-94 -10 -220 -89q-87 -55 -87 -391q0 -29 1 -61q3 -171 3 -407t-3 -538zM243 44 q0 -244 3 -463q11 -874 11 -905q0 -76 34 -114q34 -36 100 -37h5q124 3 222 132q89 115 126 289q31 147 31 283q0 436 -320 763q-144 8 -212 52zM890 324v4q0 33 37 76l15 18l31 29q1 1 3 4q83 101 116 129q0 67 -5 810q-3 296 -3 468.5t3 222.5q15 382 231 429 q56 12 103 12q255 0 306 -340q19 -127 19 -255q0 -697 -561 -1412q20 -244 34 -316q26 -132 133 -131h15l31 6l32 8q16 5 32 12h4q172 63 318 254l21 29q1 0 1 1q45 38 66 39q23 1 23 -25l-31 -70q0 -1 -2 -2l-24 -35q-93 -120 -206 -206h4q-20 -14 -41 -26q-22 -15 -39 -23 q-114 -61 -208 -61q-110 0 -194 83q-61 61 -62 401l-98 -101q-5 -5 -10 -8q0 -1 -1 -1q-59 -42 -70 -43q-20 1 -23 20zM1186 661q329 416 441 1013q26 143 26 266q0 209 -73 363q-53 111 -185 111q-17 0 -35 -1q-161 -63 -164 -391z" />
<glyph unicode="&#xfb03;" horiz-adv-x="2561" d="M-35 324v4q0 33 36 76l15 18q63 55 80 86q3 4 24 16l4 3q-21 656 -21 1110q0 314 10 531q3 59 63 164q45 79 235 154q58 23 112 22q124 0 228 -119q113 -129 113 -390v-12q-8 -698 -150 -948q-210 -370 -482 -556l21 -289q61 -104 224 -118q5 0 12 2q212 45 386 274 l21 29q1 0 1 1q45 38 66 39q23 1 23 -25l-32 -70q0 -1 -1 -2l-25 -35q-97 -124 -215 -213q-45 -34 -73 -45l-50 -34l46 -57q158 -225 211 -463q30 -135 29 -274q0 -153 -36 -310q-75 -322 -317 -451q-61 -32 -124 -32q-59 0 -122 28q-124 56 -130 161q-11 268 -11 408 q0 147 13 152q-19 429 -21 863q0 247 -1 409l-48 -62q-11 -14 -20 -21q0 -1 -2 -1q-59 -42 -69 -43q-20 1 -23 20zM213 890l8 -281q527 438 527 1183q0 100 -9 207q-34 378 -205 377h-15q-94 -10 -220 -89q-87 -55 -87 -391q0 -29 1 -61q3 -171 3 -407t-3 -538zM243 44 q0 -244 3 -463q11 -874 11 -905q0 -76 34 -114q34 -36 100 -37h5q124 3 222 132q89 115 126 289q31 147 31 283q0 436 -320 763q-144 8 -212 52zM890 324v4q0 33 37 76l15 18q63 55 79 86q3 4 25 16l4 3q-21 656 -21 1110q0 314 10 531q3 59 63 164q45 79 235 154 q58 23 111 22q124 0 229 -119q113 -129 113 -390v-12q-8 -698 -150 -948q-210 -370 -482 -556l20 -289q61 -104 224 -118q5 0 12 2q212 45 387 274l20 29q1 0 2 1q45 38 65 39q23 1 23 -25l-31 -70q0 -1 -1 -2l-25 -35q-97 -124 -216 -213q-45 -34 -72 -45l-50 -34l46 -57 q158 -225 210 -463q30 -135 30 -274q0 -153 -37 -310q-75 -322 -316 -451q-61 -32 -125 -32q-59 0 -121 28q-124 56 -130 161q-12 268 -12 408q0 147 14 152q-19 429 -21 863q0 247 -1 409l-48 -62q-11 -14 -21 -21q0 -1 -1 -1q-59 -42 -70 -43q-20 1 -23 20zM1139 890 l8 -281q527 438 527 1183q0 100 -10 207q-34 378 -204 377h-15q-94 -10 -220 -89q-87 -55 -87 -391q0 -29 1 -61q3 -171 3 -407t-3 -538zM1169 44q0 -244 2 -463q11 -874 11 -905q0 -76 35 -114q34 -36 100 -37h5q124 3 222 132q89 115 126 289q31 147 31 283 q0 436 -321 763q-143 8 -211 52zM1816 324v4q0 33 37 76l15 18q26 23 45 42q15 34 37 66q11 16 11 374q11 1 35 -4q17 2 30 2q32 0 32 -13l-3 -305l-6 -225q-1 -30 0 -57q0 -146 25 -180q26 -35 59 -37q14 0 27 1q195 53 358 266l20 29q1 0 2 1q45 38 65 39q22 1 22 -25 l-30 -70q0 -1 -2 -2l-24 -35q-97 -124 -216 -213q-56 -42 -84 -47q-45 -26 -97 -29q-13 -1 -25 -1q-115 0 -153 49q-44 54 -44 305v44l-21 -28q-11 -14 -21 -21q0 -1 -1 -1q-59 -42 -70 -43q-20 1 -23 20zM1942 1245q-9 14 -9 33.5t9 43.5l42 37q68 -5 75 -47q1 -8 1 -15 q0 -49 -54 -76z" />
<glyph unicode="&#xfb04;" horiz-adv-x="2753" d="M-35 324v4q0 33 36 76l15 18q63 55 80 86q3 4 24 16l4 3q-21 656 -21 1110q0 314 10 531q3 59 63 164q45 79 235 154q58 23 112 22q124 0 228 -119q113 -129 113 -390v-12q-8 -698 -150 -948q-210 -370 -482 -556l21 -289q61 -104 224 -118q5 0 12 2q212 45 386 274 l21 29q1 0 1 1q45 38 66 39q23 1 23 -25l-32 -70q0 -1 -1 -2l-25 -35q-97 -124 -215 -213q-45 -34 -73 -45l-50 -34l46 -57q158 -225 211 -463q30 -135 29 -274q0 -153 -36 -310q-75 -322 -317 -451q-61 -32 -124 -32q-59 0 -122 28q-124 56 -130 161q-11 268 -11 408 q0 147 13 152q-19 429 -21 863q0 247 -1 409l-48 -62q-11 -14 -20 -21q0 -1 -2 -1q-59 -42 -69 -43q-20 1 -23 20zM213 890l8 -281q527 438 527 1183q0 100 -9 207q-34 378 -205 377h-15q-94 -10 -220 -89q-87 -55 -87 -391q0 -29 1 -61q3 -171 3 -407t-3 -538zM243 44 q0 -244 3 -463q11 -874 11 -905q0 -76 34 -114q34 -36 100 -37h5q124 3 222 132q89 115 126 289q31 147 31 283q0 436 -320 763q-144 8 -212 52zM890 324v4q0 33 37 76l15 18q63 55 79 86q3 4 25 16l4 3q-21 656 -21 1110q0 314 10 531q3 59 63 164q45 79 235 154 q58 23 111 22q124 0 229 -119q113 -129 113 -390v-12q-8 -698 -150 -948q-210 -370 -482 -556l20 -289q61 -104 224 -118q5 0 12 2q212 45 387 274l20 29q1 0 2 1q45 38 65 39q23 1 23 -25l-31 -70q0 -1 -1 -2l-25 -35q-97 -124 -216 -213q-45 -34 -72 -45l-50 -34l46 -57 q158 -225 210 -463q30 -135 30 -274q0 -153 -37 -310q-75 -322 -316 -451q-61 -32 -125 -32q-59 0 -121 28q-124 56 -130 161q-12 268 -12 408q0 147 14 152q-19 429 -21 863q0 247 -1 409l-48 -62q-11 -14 -21 -21q0 -1 -1 -1q-59 -42 -70 -43q-20 1 -23 20zM1139 890 l8 -281q527 438 527 1183q0 100 -10 207q-34 378 -204 377h-15q-94 -10 -220 -89q-87 -55 -87 -391q0 -29 1 -61q3 -171 3 -407t-3 -538zM1169 44q0 -244 2 -463q11 -874 11 -905q0 -76 35 -114q34 -36 100 -37h5q124 3 222 132q89 115 126 289q31 147 31 283 q0 436 -321 763q-143 8 -211 52zM1816 324v4q0 33 37 76l15 18l31 29q1 1 3 4q83 101 116 129q0 67 -5 810q-3 296 -3 468.5t3 222.5q15 382 230 429q56 12 104 12q255 0 306 -340q19 -127 19 -255q0 -697 -561 -1412q20 -244 34 -316q26 -132 132 -131h15l32 6l31 8 q16 5 33 12h4q172 63 318 254l21 29q1 0 1 1q45 38 66 39q23 1 23 -25l-32 -70q0 -1 -1 -2l-25 -35q-93 -120 -206 -206h4q-20 -14 -41 -26q-22 -15 -38 -23q-114 -61 -209 -61q-110 0 -194 83q-61 61 -61 401l-98 -101q-5 -5 -10 -8q0 -1 -1 -1q-59 -42 -70 -43 q-20 1 -23 20zM2112 661q329 416 441 1013q26 143 26 266q0 209 -74 363q-53 111 -184 111q-17 0 -35 -1q-161 -63 -164 -391z" />
</font>
</defs>
</svg>
